G04*
G04 #@! TF.GenerationSoftware,Altium Limited,Altium Designer,25.8.1 (18)*
G04*
G04 Layer_Color=16711935*
%FSLAX25Y25*%
%MOIN*%
G70*
G04*
G04 #@! TF.SameCoordinates,CA0B9550-AE98-4C71-85A6-844D78770B91*
G04*
G04*
G04 #@! TF.FilePolarity,Positive*
G04*
G01*
G75*
G36*
X72863Y17217D02*
X71685D01*
X71687Y17213D01*
X71695Y17205D01*
X71708Y17190D01*
X71724Y17170D01*
X71744Y17145D01*
X71765Y17113D01*
X71789Y17080D01*
X71812Y17041D01*
Y17039D01*
X71814Y17037D01*
X71818Y17031D01*
X71822Y17023D01*
X71834Y17002D01*
X71847Y16976D01*
X71863Y16947D01*
X71879Y16913D01*
X71895Y16880D01*
X71908Y16847D01*
X71728D01*
Y16849D01*
X71724Y16855D01*
X71720Y16862D01*
X71714Y16872D01*
X71708Y16886D01*
X71698Y16902D01*
X71679Y16939D01*
X71653Y16980D01*
X71622Y17027D01*
X71589Y17072D01*
X71552Y17117D01*
X71550Y17119D01*
X71548Y17123D01*
X71542Y17129D01*
X71534Y17137D01*
X71514Y17156D01*
X71487Y17182D01*
X71457Y17207D01*
X71422Y17235D01*
X71387Y17260D01*
X71350Y17282D01*
Y17401D01*
X72863D01*
Y17217D01*
D02*
G37*
G36*
X72430Y16453D02*
X72447D01*
X72469Y16451D01*
X72490Y16449D01*
X72537Y16443D01*
X72586Y16435D01*
X72633Y16423D01*
X72657Y16416D01*
X72677Y16408D01*
X72679D01*
X72680Y16406D01*
X72686Y16404D01*
X72694Y16400D01*
X72712Y16388D01*
X72735Y16372D01*
X72761Y16353D01*
X72786Y16327D01*
X72812Y16298D01*
X72835Y16263D01*
Y16261D01*
X72837Y16259D01*
X72839Y16253D01*
X72843Y16245D01*
X72853Y16225D01*
X72861Y16196D01*
X72871Y16163D01*
X72880Y16124D01*
X72886Y16078D01*
X72888Y16029D01*
Y16010D01*
X72886Y15996D01*
X72884Y15980D01*
X72882Y15961D01*
X72878Y15939D01*
X72874Y15918D01*
X72861Y15869D01*
X72851Y15843D01*
X72839Y15818D01*
X72828Y15792D01*
X72812Y15769D01*
X72794Y15747D01*
X72775Y15726D01*
X72773Y15724D01*
X72769Y15722D01*
X72763Y15716D01*
X72753Y15710D01*
X72741Y15702D01*
X72728Y15692D01*
X72710Y15683D01*
X72690Y15673D01*
X72667Y15665D01*
X72641Y15655D01*
X72614Y15647D01*
X72584Y15639D01*
X72551Y15633D01*
X72516Y15628D01*
X72479Y15626D01*
X72438D01*
X72412Y15806D01*
X72414D01*
X72420D01*
X72428D01*
X72439Y15808D01*
X72453Y15810D01*
X72469Y15812D01*
X72506Y15816D01*
X72545Y15824D01*
X72584Y15835D01*
X72620Y15849D01*
X72633Y15859D01*
X72647Y15869D01*
X72649Y15871D01*
X72657Y15880D01*
X72667Y15892D01*
X72679Y15912D01*
X72690Y15933D01*
X72700Y15961D01*
X72708Y15994D01*
X72710Y16029D01*
Y16041D01*
X72708Y16057D01*
X72706Y16074D01*
X72702Y16094D01*
X72696Y16116D01*
X72688Y16137D01*
X72677Y16159D01*
X72675Y16161D01*
X72671Y16169D01*
X72663Y16176D01*
X72651Y16188D01*
X72637Y16202D01*
X72622Y16214D01*
X72604Y16225D01*
X72583Y16233D01*
X72580Y16235D01*
X72571Y16237D01*
X72557Y16241D01*
X72537Y16245D01*
X72510Y16249D01*
X72479Y16251D01*
X72439Y16255D01*
X72394D01*
X71355D01*
Y16455D01*
X72383D01*
X72385D01*
X72390D01*
X72400D01*
X72414D01*
X72430Y16453D01*
D02*
G37*
G36*
X72863Y15285D02*
X72551Y15087D01*
X72549D01*
X72545Y15083D01*
X72537Y15079D01*
X72530Y15073D01*
X72518Y15065D01*
X72504Y15055D01*
X72475Y15036D01*
X72441Y15012D01*
X72408Y14989D01*
X72375Y14965D01*
X72345Y14942D01*
X72341Y14940D01*
X72334Y14932D01*
X72320Y14922D01*
X72306Y14908D01*
X72289Y14893D01*
X72271Y14875D01*
X72257Y14857D01*
X72243Y14840D01*
X72241Y14838D01*
X72240Y14832D01*
X72234Y14824D01*
X72228Y14812D01*
X72220Y14799D01*
X72214Y14783D01*
X72202Y14750D01*
Y14748D01*
X72200Y14744D01*
Y14736D01*
X72198Y14724D01*
X72196Y14708D01*
Y14689D01*
X72194Y14667D01*
Y14409D01*
X72863D01*
Y14209D01*
X71355D01*
Y14910D01*
X71358Y14928D01*
Y14946D01*
X71359Y14967D01*
X71361Y14991D01*
X71365Y15040D01*
X71373Y15091D01*
X71383Y15140D01*
X71389Y15163D01*
X71397Y15183D01*
Y15185D01*
X71399Y15187D01*
X71401Y15192D01*
X71404Y15200D01*
X71414Y15220D01*
X71430Y15244D01*
X71450Y15271D01*
X71475Y15298D01*
X71506Y15326D01*
X71542Y15351D01*
X71544D01*
X71546Y15353D01*
X71552Y15357D01*
X71559Y15361D01*
X71581Y15371D01*
X71608Y15383D01*
X71642Y15394D01*
X71681Y15404D01*
X71724Y15412D01*
X71769Y15414D01*
X71771D01*
X71777D01*
X71785D01*
X71797Y15412D01*
X71810Y15410D01*
X71826Y15408D01*
X71863Y15400D01*
X71906Y15389D01*
X71951Y15371D01*
X71973Y15359D01*
X71996Y15345D01*
X72018Y15328D01*
X72040Y15310D01*
X72041Y15308D01*
X72044Y15306D01*
X72049Y15298D01*
X72057Y15291D01*
X72065Y15279D01*
X72075Y15265D01*
X72087Y15249D01*
X72098Y15232D01*
X72110Y15210D01*
X72122Y15187D01*
X72134Y15159D01*
X72145Y15130D01*
X72155Y15098D01*
X72165Y15065D01*
X72173Y15028D01*
X72179Y14989D01*
X72181Y14993D01*
X72185Y15002D01*
X72192Y15016D01*
X72202Y15034D01*
X72228Y15073D01*
X72241Y15091D01*
X72255Y15108D01*
Y15110D01*
X72259Y15112D01*
X72269Y15124D01*
X72286Y15140D01*
X72310Y15163D01*
X72338Y15189D01*
X72373Y15216D01*
X72412Y15245D01*
X72455Y15275D01*
X72863Y15536D01*
Y15285D01*
D02*
G37*
%LPC*%
G36*
X71769Y15208D02*
X71767D01*
X71765D01*
X71759D01*
X71751Y15206D01*
X71732Y15204D01*
X71706Y15198D01*
X71679Y15189D01*
X71649Y15175D01*
X71620Y15155D01*
X71593Y15130D01*
X71589Y15126D01*
X71581Y15114D01*
X71571Y15097D01*
X71557Y15069D01*
X71552Y15053D01*
X71544Y15036D01*
X71538Y15016D01*
X71534Y14993D01*
X71528Y14969D01*
X71526Y14944D01*
X71522Y14914D01*
Y14409D01*
X72022D01*
Y14869D01*
X72020Y14883D01*
X72018Y14914D01*
X72016Y14947D01*
X72010Y14985D01*
X72004Y15018D01*
X71995Y15049D01*
X71992Y15053D01*
X71989Y15063D01*
X71983Y15077D01*
X71973Y15094D01*
X71961Y15112D01*
X71946Y15132D01*
X71926Y15151D01*
X71904Y15167D01*
X71902Y15169D01*
X71893Y15173D01*
X71881Y15181D01*
X71863Y15189D01*
X71844Y15194D01*
X71820Y15202D01*
X71797Y15206D01*
X71769Y15208D01*
D02*
G37*
%LPD*%
M02*
