G04*
G04 #@! TF.GenerationSoftware,Altium Limited,Altium Designer,25.8.1 (18)*
G04*
G04 Layer_Color=65535*
%FSLAX25Y25*%
%MOIN*%
G70*
G04*
G04 #@! TF.SameCoordinates,CA0B9550-AE98-4C71-85A6-844D78770B91*
G04*
G04*
G04 #@! TF.FilePolarity,Positive*
G04*
G01*
G75*
%ADD10C,0.00984*%
%ADD11C,0.00787*%
%ADD12C,0.00600*%
%ADD13C,0.01000*%
%ADD14C,0.00300*%
%ADD15C,0.00591*%
G36*
X75149Y5083D02*
X74149D01*
Y6583D01*
X75149D01*
Y5083D01*
D02*
G37*
G36*
X43349Y2524D02*
X42349D01*
Y4024D01*
X43349D01*
Y2524D01*
D02*
G37*
G36*
X-58777Y6080D02*
Y6020D01*
Y5960D01*
Y5900D01*
Y5840D01*
Y5780D01*
Y5720D01*
Y5660D01*
Y5600D01*
Y5540D01*
Y5480D01*
Y5420D01*
Y5360D01*
Y5300D01*
Y5240D01*
Y5180D01*
Y5120D01*
Y5060D01*
Y5000D01*
Y4940D01*
Y4880D01*
Y4820D01*
Y4760D01*
Y4700D01*
Y4640D01*
Y4580D01*
Y4520D01*
Y4460D01*
Y4400D01*
Y4340D01*
Y4280D01*
Y4220D01*
Y4160D01*
Y4100D01*
Y4040D01*
Y3980D01*
Y3920D01*
Y3860D01*
Y3800D01*
Y3740D01*
Y3680D01*
Y3620D01*
Y3560D01*
Y3500D01*
Y3440D01*
Y3380D01*
Y3320D01*
Y3260D01*
Y3200D01*
Y3140D01*
Y3080D01*
Y3020D01*
Y2960D01*
Y2900D01*
Y2840D01*
Y2780D01*
Y2720D01*
Y2660D01*
Y2600D01*
Y2540D01*
Y2480D01*
Y2420D01*
Y2360D01*
Y2300D01*
Y2240D01*
Y2180D01*
Y2120D01*
Y2060D01*
Y2000D01*
Y1940D01*
Y1880D01*
Y1820D01*
Y1760D01*
Y1700D01*
Y1640D01*
Y1580D01*
Y1520D01*
Y1460D01*
Y1400D01*
Y1340D01*
Y1280D01*
Y1220D01*
Y1160D01*
Y1100D01*
Y1040D01*
Y980D01*
Y920D01*
Y860D01*
Y800D01*
Y740D01*
Y680D01*
Y620D01*
Y560D01*
Y500D01*
Y440D01*
Y380D01*
Y320D01*
Y260D01*
Y200D01*
Y140D01*
Y80D01*
Y20D01*
Y-40D01*
Y-100D01*
Y-160D01*
Y-220D01*
Y-280D01*
Y-340D01*
Y-400D01*
X-61537D01*
Y-340D01*
X-61597D01*
Y-280D01*
Y-220D01*
Y-160D01*
Y-100D01*
Y-40D01*
Y20D01*
Y80D01*
Y140D01*
Y200D01*
Y260D01*
Y320D01*
Y380D01*
Y440D01*
Y500D01*
Y560D01*
Y620D01*
Y680D01*
Y740D01*
Y800D01*
Y860D01*
Y920D01*
Y980D01*
Y1040D01*
Y1100D01*
Y1160D01*
Y1220D01*
Y1280D01*
Y1340D01*
Y1400D01*
Y1460D01*
Y1520D01*
Y1580D01*
Y1640D01*
Y1700D01*
Y1760D01*
Y1820D01*
Y1880D01*
Y1940D01*
Y2000D01*
Y2060D01*
Y2120D01*
Y2180D01*
Y2240D01*
Y2300D01*
Y2360D01*
Y2420D01*
Y2480D01*
Y2540D01*
Y2600D01*
Y2660D01*
Y2720D01*
Y2780D01*
Y2840D01*
Y2900D01*
Y2960D01*
Y3020D01*
Y3080D01*
X-61657D01*
Y3140D01*
Y3200D01*
X-61717D01*
Y3260D01*
X-61777D01*
Y3320D01*
X-61837D01*
Y3380D01*
X-61957D01*
Y3440D01*
X-62197D01*
Y3500D01*
X-62257D01*
Y3440D01*
X-62497D01*
Y3380D01*
X-62617D01*
Y3320D01*
X-62677D01*
Y3260D01*
X-62737D01*
Y3200D01*
X-62797D01*
Y3140D01*
Y3080D01*
X-62857D01*
Y3020D01*
Y2960D01*
Y2900D01*
Y2840D01*
Y2780D01*
Y2720D01*
Y2660D01*
Y2600D01*
Y2540D01*
Y2480D01*
Y2420D01*
Y2360D01*
Y2300D01*
Y2240D01*
Y2180D01*
Y2120D01*
Y2060D01*
Y2000D01*
Y1940D01*
Y1880D01*
Y1820D01*
Y1760D01*
Y1700D01*
Y1640D01*
Y1580D01*
X-62917D01*
Y1520D01*
Y1460D01*
Y1400D01*
Y1340D01*
Y1280D01*
Y1220D01*
Y1160D01*
Y1100D01*
Y1040D01*
Y980D01*
Y920D01*
Y860D01*
Y800D01*
Y740D01*
Y680D01*
Y620D01*
Y560D01*
Y500D01*
Y440D01*
Y380D01*
Y320D01*
Y260D01*
Y200D01*
Y140D01*
Y80D01*
Y20D01*
Y-40D01*
Y-100D01*
Y-160D01*
Y-220D01*
Y-280D01*
Y-340D01*
Y-400D01*
Y-460D01*
Y-520D01*
Y-580D01*
Y-640D01*
Y-700D01*
Y-760D01*
Y-820D01*
Y-880D01*
Y-940D01*
Y-1000D01*
Y-1060D01*
Y-1120D01*
Y-1180D01*
Y-1240D01*
Y-1300D01*
Y-1360D01*
Y-1420D01*
Y-1480D01*
Y-1540D01*
Y-1600D01*
Y-1660D01*
Y-1720D01*
Y-1780D01*
Y-1840D01*
Y-1900D01*
Y-1960D01*
Y-2020D01*
Y-2080D01*
Y-2140D01*
X-62857D01*
Y-2200D01*
Y-2260D01*
Y-2320D01*
Y-2380D01*
Y-2440D01*
Y-2500D01*
Y-2560D01*
Y-2620D01*
Y-2680D01*
Y-2740D01*
Y-2800D01*
Y-2860D01*
Y-2920D01*
Y-2980D01*
Y-3040D01*
Y-3100D01*
Y-3160D01*
Y-3220D01*
Y-3280D01*
Y-3340D01*
Y-3400D01*
Y-3460D01*
Y-3520D01*
Y-3580D01*
Y-3640D01*
Y-3700D01*
Y-3760D01*
Y-3820D01*
Y-3880D01*
Y-3940D01*
Y-4000D01*
Y-4060D01*
Y-4120D01*
Y-4180D01*
Y-4240D01*
Y-4300D01*
Y-4360D01*
Y-4420D01*
Y-4480D01*
Y-4540D01*
Y-4600D01*
Y-4660D01*
Y-4720D01*
Y-4780D01*
Y-4840D01*
Y-4900D01*
Y-4960D01*
Y-5020D01*
Y-5080D01*
Y-5140D01*
Y-5200D01*
Y-5260D01*
Y-5320D01*
Y-5380D01*
Y-5440D01*
Y-5500D01*
Y-5560D01*
Y-5620D01*
Y-5680D01*
Y-5740D01*
Y-5800D01*
Y-5860D01*
Y-5920D01*
Y-5980D01*
Y-6040D01*
Y-6100D01*
Y-6160D01*
Y-6220D01*
Y-6280D01*
Y-6340D01*
Y-6400D01*
Y-6460D01*
Y-6520D01*
Y-6580D01*
Y-6640D01*
Y-6700D01*
Y-6760D01*
Y-6820D01*
Y-6880D01*
Y-6940D01*
Y-7000D01*
Y-7060D01*
Y-7120D01*
Y-7180D01*
Y-7240D01*
Y-7300D01*
Y-7360D01*
Y-7420D01*
Y-7480D01*
Y-7540D01*
Y-7600D01*
Y-7660D01*
Y-7720D01*
Y-7780D01*
Y-7840D01*
Y-7900D01*
Y-7960D01*
Y-8020D01*
Y-8080D01*
Y-8140D01*
Y-8200D01*
Y-8260D01*
Y-8320D01*
X-62917D01*
Y-8380D01*
X-63937D01*
Y-8320D01*
X-64177D01*
Y-8260D01*
X-64297D01*
Y-8200D01*
X-64357D01*
Y-8140D01*
X-64417D01*
Y-8080D01*
X-64537D01*
Y-8020D01*
Y-7960D01*
X-64597D01*
Y-7900D01*
X-64657D01*
Y-7840D01*
Y-7780D01*
X-64717D01*
Y-7720D01*
X-64777D01*
Y-7660D01*
Y-7600D01*
X-64837D01*
Y-7540D01*
Y-7480D01*
X-64897D01*
Y-7420D01*
Y-7360D01*
X-64957D01*
Y-7300D01*
X-65017D01*
Y-7240D01*
Y-7180D01*
X-65077D01*
Y-7120D01*
Y-7060D01*
X-65137D01*
Y-7000D01*
X-65197D01*
Y-6940D01*
Y-6880D01*
X-65257D01*
Y-6820D01*
Y-6760D01*
X-65317D01*
Y-6700D01*
Y-6640D01*
X-65377D01*
Y-6580D01*
X-65437D01*
Y-6520D01*
Y-6460D01*
X-65497D01*
Y-6400D01*
Y-6340D01*
X-65557D01*
Y-6280D01*
Y-6220D01*
X-65617D01*
Y-6160D01*
X-65677D01*
Y-6100D01*
Y-6040D01*
X-65737D01*
Y-5980D01*
Y-5920D01*
X-65797D01*
Y-5860D01*
Y-5800D01*
X-65857D01*
Y-5740D01*
X-65917D01*
Y-5680D01*
Y-5620D01*
X-65977D01*
Y-5560D01*
Y-5500D01*
X-66037D01*
Y-5440D01*
X-66097D01*
Y-5380D01*
Y-5320D01*
X-66157D01*
Y-5260D01*
Y-5200D01*
X-66217D01*
Y-5140D01*
Y-5080D01*
X-66277D01*
Y-5020D01*
X-66337D01*
Y-4960D01*
Y-4900D01*
X-66397D01*
Y-4840D01*
Y-4780D01*
X-66457D01*
Y-4720D01*
Y-4660D01*
X-66517D01*
Y-4600D01*
X-66577D01*
Y-4540D01*
Y-4480D01*
X-66637D01*
Y-4420D01*
Y-4360D01*
X-66697D01*
Y-4300D01*
Y-4240D01*
X-66757D01*
Y-4180D01*
X-66817D01*
Y-4120D01*
Y-4060D01*
X-66877D01*
Y-4000D01*
Y-3940D01*
X-66937D01*
Y-3880D01*
Y-3820D01*
X-66997D01*
Y-3760D01*
X-67057D01*
Y-3700D01*
Y-3640D01*
X-67117D01*
Y-3580D01*
Y-3520D01*
X-67177D01*
Y-3460D01*
Y-3400D01*
X-67237D01*
Y-3340D01*
X-67297D01*
Y-3280D01*
Y-3220D01*
X-67357D01*
Y-3160D01*
Y-3100D01*
X-67417D01*
Y-3040D01*
X-67477D01*
Y-2980D01*
Y-2920D01*
X-67537D01*
Y-2860D01*
Y-2800D01*
X-67597D01*
Y-2740D01*
Y-2680D01*
X-67657D01*
Y-2620D01*
X-67717D01*
Y-2560D01*
Y-2500D01*
X-67777D01*
Y-2440D01*
Y-2380D01*
X-67837D01*
Y-2320D01*
Y-2260D01*
X-67897D01*
Y-2200D01*
X-67957D01*
Y-2140D01*
Y-2080D01*
X-68017D01*
Y-2020D01*
Y-1960D01*
X-68077D01*
Y-1900D01*
Y-1840D01*
X-68137D01*
Y-1780D01*
X-68197D01*
Y-1720D01*
Y-1660D01*
X-68257D01*
Y-1600D01*
Y-1540D01*
X-68317D01*
Y-1480D01*
Y-1420D01*
X-68377D01*
Y-1360D01*
Y-1300D01*
Y-1240D01*
Y-1180D01*
Y-1120D01*
Y-1060D01*
Y-1000D01*
Y-940D01*
Y-880D01*
Y-820D01*
X-68317D01*
Y-760D01*
Y-700D01*
Y-640D01*
X-68257D01*
Y-580D01*
Y-520D01*
X-68197D01*
Y-460D01*
X-68137D01*
Y-400D01*
Y-340D01*
X-68077D01*
Y-280D01*
Y-220D01*
X-68017D01*
Y-160D01*
Y-100D01*
X-67957D01*
Y-40D01*
X-67897D01*
Y20D01*
Y80D01*
X-67837D01*
Y140D01*
Y200D01*
X-67777D01*
Y260D01*
X-67717D01*
Y320D01*
Y380D01*
X-67657D01*
Y440D01*
Y500D01*
X-67597D01*
Y560D01*
Y620D01*
X-67537D01*
Y680D01*
X-67477D01*
Y740D01*
Y800D01*
X-67417D01*
Y860D01*
Y920D01*
X-67357D01*
Y980D01*
Y1040D01*
X-67297D01*
Y1100D01*
X-67237D01*
Y1160D01*
Y1220D01*
X-67177D01*
Y1280D01*
X-67117D01*
Y1340D01*
Y1400D01*
X-67057D01*
Y1460D01*
Y1520D01*
X-66997D01*
Y1580D01*
Y1640D01*
X-66937D01*
Y1700D01*
X-66877D01*
Y1760D01*
Y1820D01*
X-66817D01*
Y1880D01*
Y1940D01*
X-66757D01*
Y2000D01*
Y2060D01*
X-66697D01*
Y2120D01*
X-66637D01*
Y2180D01*
Y2240D01*
X-66577D01*
Y2300D01*
Y2360D01*
X-66517D01*
Y2420D01*
Y2480D01*
X-66457D01*
Y2540D01*
X-66397D01*
Y2600D01*
Y2660D01*
X-66337D01*
Y2720D01*
Y2780D01*
X-66277D01*
Y2840D01*
X-66217D01*
Y2900D01*
Y2960D01*
X-66157D01*
Y3020D01*
Y3080D01*
X-66097D01*
Y3140D01*
Y3200D01*
X-66037D01*
Y3260D01*
X-65977D01*
Y3320D01*
Y3380D01*
X-65917D01*
Y3440D01*
Y3500D01*
X-65857D01*
Y3560D01*
Y3620D01*
X-65797D01*
Y3680D01*
X-65737D01*
Y3740D01*
Y3800D01*
X-65677D01*
Y3860D01*
Y3920D01*
X-65617D01*
Y3980D01*
Y4040D01*
X-65557D01*
Y4100D01*
X-65497D01*
Y4160D01*
Y4220D01*
X-65437D01*
Y4280D01*
Y4340D01*
X-65377D01*
Y4400D01*
X-65317D01*
Y4460D01*
Y4520D01*
X-65257D01*
Y4580D01*
Y4640D01*
X-65197D01*
Y4700D01*
Y4760D01*
X-65137D01*
Y4820D01*
X-65077D01*
Y4880D01*
Y4940D01*
X-65017D01*
Y5000D01*
Y5060D01*
X-64957D01*
Y5120D01*
Y5180D01*
X-64897D01*
Y5240D01*
X-64837D01*
Y5300D01*
Y5360D01*
X-64777D01*
Y5420D01*
Y5480D01*
X-64717D01*
Y5540D01*
Y5600D01*
X-64657D01*
Y5660D01*
X-64597D01*
Y5720D01*
Y5780D01*
X-64537D01*
Y5840D01*
X-64477D01*
Y5900D01*
X-64417D01*
Y5960D01*
X-64297D01*
Y6020D01*
X-64177D01*
Y6080D01*
X-64057D01*
Y6140D01*
X-58777D01*
Y6080D01*
D02*
G37*
G36*
X-56317D02*
X-56137D01*
Y6020D01*
X-56017D01*
Y5960D01*
X-55957D01*
Y5900D01*
X-55897D01*
Y5840D01*
X-55837D01*
Y5780D01*
X-55777D01*
Y5720D01*
X-55717D01*
Y5660D01*
X-55657D01*
Y5600D01*
Y5540D01*
X-55597D01*
Y5480D01*
Y5420D01*
X-55537D01*
Y5360D01*
Y5300D01*
X-55477D01*
Y5240D01*
X-55417D01*
Y5180D01*
Y5120D01*
X-55357D01*
Y5060D01*
Y5000D01*
X-55297D01*
Y4940D01*
X-55237D01*
Y4880D01*
Y4820D01*
X-55177D01*
Y4760D01*
Y4700D01*
X-55117D01*
Y4640D01*
Y4580D01*
X-55057D01*
Y4520D01*
X-54997D01*
Y4460D01*
Y4400D01*
X-54937D01*
Y4340D01*
Y4280D01*
X-54877D01*
Y4220D01*
Y4160D01*
X-54817D01*
Y4100D01*
X-54757D01*
Y4040D01*
Y3980D01*
X-54697D01*
Y3920D01*
Y3860D01*
X-54637D01*
Y3800D01*
Y3740D01*
X-54577D01*
Y3680D01*
X-54517D01*
Y3620D01*
Y3560D01*
X-54457D01*
Y3500D01*
Y3440D01*
X-54397D01*
Y3380D01*
X-54337D01*
Y3320D01*
Y3260D01*
X-54277D01*
Y3200D01*
Y3140D01*
X-54217D01*
Y3080D01*
Y3020D01*
X-54157D01*
Y2960D01*
X-54097D01*
Y2900D01*
Y2840D01*
X-54037D01*
Y2780D01*
Y2720D01*
X-53977D01*
Y2660D01*
Y2600D01*
X-53917D01*
Y2540D01*
X-53857D01*
Y2480D01*
Y2420D01*
X-53797D01*
Y2360D01*
Y2300D01*
X-53737D01*
Y2240D01*
Y2180D01*
X-53677D01*
Y2120D01*
X-53617D01*
Y2060D01*
Y2000D01*
X-53557D01*
Y1940D01*
Y1880D01*
X-53497D01*
Y1820D01*
X-53437D01*
Y1760D01*
Y1700D01*
X-53377D01*
Y1640D01*
Y1580D01*
X-53317D01*
Y1520D01*
Y1460D01*
X-53257D01*
Y1400D01*
X-53197D01*
Y1340D01*
Y1280D01*
X-53137D01*
Y1220D01*
Y1160D01*
X-53077D01*
Y1100D01*
Y1040D01*
X-53017D01*
Y980D01*
X-52957D01*
Y920D01*
Y860D01*
X-52897D01*
Y800D01*
Y740D01*
X-52837D01*
Y680D01*
Y620D01*
X-52777D01*
Y560D01*
X-52717D01*
Y500D01*
Y440D01*
X-52657D01*
Y380D01*
Y320D01*
X-52597D01*
Y260D01*
X-52537D01*
Y200D01*
Y140D01*
X-52477D01*
Y80D01*
Y20D01*
X-52417D01*
Y-40D01*
Y-100D01*
X-52357D01*
Y-160D01*
X-52297D01*
Y-220D01*
Y-280D01*
X-52237D01*
Y-340D01*
Y-400D01*
X-52177D01*
Y-460D01*
Y-520D01*
X-52117D01*
Y-580D01*
X-52057D01*
Y-640D01*
Y-700D01*
X-51997D01*
Y-760D01*
Y-820D01*
Y-880D01*
Y-940D01*
X-51937D01*
Y-1000D01*
Y-1060D01*
Y-1120D01*
Y-1180D01*
Y-1240D01*
X-51997D01*
Y-1300D01*
Y-1360D01*
Y-1420D01*
Y-1480D01*
X-52057D01*
Y-1540D01*
Y-1600D01*
X-52117D01*
Y-1660D01*
Y-1720D01*
X-52177D01*
Y-1780D01*
Y-1840D01*
X-52237D01*
Y-1900D01*
X-52297D01*
Y-1960D01*
Y-2020D01*
X-52357D01*
Y-2080D01*
Y-2140D01*
X-52417D01*
Y-2200D01*
X-52477D01*
Y-2260D01*
Y-2320D01*
X-52537D01*
Y-2380D01*
Y-2440D01*
X-52597D01*
Y-2500D01*
Y-2560D01*
X-52657D01*
Y-2620D01*
X-52717D01*
Y-2680D01*
Y-2740D01*
X-52777D01*
Y-2800D01*
Y-2860D01*
X-52837D01*
Y-2920D01*
Y-2980D01*
X-52897D01*
Y-3040D01*
X-52957D01*
Y-3100D01*
Y-3160D01*
X-53017D01*
Y-3220D01*
Y-3280D01*
X-53077D01*
Y-3340D01*
X-53137D01*
Y-3400D01*
Y-3460D01*
X-53197D01*
Y-3520D01*
Y-3580D01*
X-53257D01*
Y-3640D01*
Y-3700D01*
X-53317D01*
Y-3760D01*
X-53377D01*
Y-3820D01*
Y-3880D01*
X-53437D01*
Y-3940D01*
Y-4000D01*
X-53497D01*
Y-4060D01*
Y-4120D01*
X-53557D01*
Y-4180D01*
X-53617D01*
Y-4240D01*
Y-4300D01*
X-53677D01*
Y-4360D01*
Y-4420D01*
X-53737D01*
Y-4480D01*
X-53797D01*
Y-4540D01*
Y-4600D01*
X-53857D01*
Y-4660D01*
Y-4720D01*
X-53917D01*
Y-4780D01*
Y-4840D01*
X-53977D01*
Y-4900D01*
X-54037D01*
Y-4960D01*
Y-5020D01*
X-54097D01*
Y-5080D01*
Y-5140D01*
X-54157D01*
Y-5200D01*
Y-5260D01*
X-54217D01*
Y-5320D01*
Y-5380D01*
X-54277D01*
Y-5440D01*
Y-5500D01*
X-54337D01*
Y-5560D01*
X-54397D01*
Y-5620D01*
Y-5680D01*
X-54457D01*
Y-5740D01*
Y-5800D01*
X-54517D01*
Y-5860D01*
X-54577D01*
Y-5920D01*
Y-5980D01*
X-54637D01*
Y-6040D01*
Y-6100D01*
X-54697D01*
Y-6160D01*
Y-6220D01*
X-54757D01*
Y-6280D01*
X-54817D01*
Y-6340D01*
Y-6400D01*
X-54877D01*
Y-6460D01*
Y-6520D01*
X-54937D01*
Y-6580D01*
Y-6640D01*
X-54997D01*
Y-6700D01*
X-55057D01*
Y-6760D01*
Y-6820D01*
X-55117D01*
Y-6880D01*
Y-6940D01*
X-55177D01*
Y-7000D01*
Y-7060D01*
X-55237D01*
Y-7120D01*
X-55297D01*
Y-7180D01*
Y-7240D01*
X-55357D01*
Y-7300D01*
Y-7360D01*
X-55417D01*
Y-7420D01*
Y-7480D01*
X-55477D01*
Y-7540D01*
X-55537D01*
Y-7600D01*
Y-7660D01*
X-55597D01*
Y-7720D01*
Y-7780D01*
X-55657D01*
Y-7840D01*
X-55717D01*
Y-7900D01*
Y-7960D01*
X-55777D01*
Y-8020D01*
X-55837D01*
Y-8080D01*
X-55897D01*
Y-8140D01*
X-55957D01*
Y-8200D01*
X-56077D01*
Y-8260D01*
X-56197D01*
Y-8320D01*
X-56377D01*
Y-8380D01*
X-61537D01*
Y-8320D01*
X-61597D01*
Y-8260D01*
Y-8200D01*
Y-8140D01*
Y-8080D01*
Y-8020D01*
Y-7960D01*
Y-7900D01*
Y-7840D01*
Y-7780D01*
Y-7720D01*
Y-7660D01*
Y-7600D01*
Y-7540D01*
Y-7480D01*
Y-7420D01*
Y-7360D01*
Y-7300D01*
Y-7240D01*
Y-7180D01*
Y-7120D01*
Y-7060D01*
Y-7000D01*
Y-6940D01*
Y-6880D01*
Y-6820D01*
Y-6760D01*
Y-6700D01*
Y-6640D01*
Y-6580D01*
Y-6520D01*
Y-6460D01*
Y-6400D01*
Y-6340D01*
Y-6280D01*
Y-6220D01*
Y-6160D01*
Y-6100D01*
Y-6040D01*
Y-5980D01*
Y-5920D01*
Y-5860D01*
Y-5800D01*
Y-5740D01*
Y-5680D01*
Y-5620D01*
Y-5560D01*
Y-5500D01*
Y-5440D01*
Y-5380D01*
Y-5320D01*
Y-5260D01*
Y-5200D01*
Y-5140D01*
Y-5080D01*
Y-5020D01*
Y-4960D01*
Y-4900D01*
Y-4840D01*
Y-4780D01*
Y-4720D01*
Y-4660D01*
Y-4600D01*
Y-4540D01*
Y-4480D01*
Y-4420D01*
Y-4360D01*
Y-4300D01*
Y-4240D01*
Y-4180D01*
Y-4120D01*
Y-4060D01*
Y-4000D01*
Y-3940D01*
Y-3880D01*
Y-3820D01*
Y-3760D01*
Y-3700D01*
Y-3640D01*
Y-3580D01*
Y-3520D01*
Y-3460D01*
Y-3400D01*
Y-3340D01*
Y-3280D01*
Y-3220D01*
Y-3160D01*
Y-3100D01*
Y-3040D01*
Y-2980D01*
Y-2920D01*
Y-2860D01*
Y-2800D01*
Y-2740D01*
Y-2680D01*
Y-2620D01*
Y-2560D01*
Y-2500D01*
Y-2440D01*
Y-2380D01*
Y-2320D01*
Y-2260D01*
Y-2200D01*
Y-2140D01*
Y-2080D01*
Y-2020D01*
Y-1960D01*
Y-1900D01*
Y-1840D01*
X-61537D01*
Y-1780D01*
X-58777D01*
Y-1840D01*
Y-1900D01*
Y-1960D01*
Y-2020D01*
Y-2080D01*
Y-2140D01*
Y-2200D01*
Y-2260D01*
Y-2320D01*
Y-2380D01*
Y-2440D01*
Y-2500D01*
Y-2560D01*
Y-2620D01*
Y-2680D01*
Y-2740D01*
Y-2800D01*
Y-2860D01*
Y-2920D01*
Y-2980D01*
Y-3040D01*
Y-3100D01*
Y-3160D01*
Y-3220D01*
Y-3280D01*
Y-3340D01*
Y-3400D01*
Y-3460D01*
Y-3520D01*
Y-3580D01*
Y-3640D01*
Y-3700D01*
Y-3760D01*
Y-3820D01*
Y-3880D01*
Y-3940D01*
Y-4000D01*
Y-4060D01*
Y-4120D01*
Y-4180D01*
X-58717D01*
Y-4240D01*
Y-4300D01*
Y-4360D01*
Y-4420D01*
Y-4480D01*
Y-4540D01*
Y-4600D01*
Y-4660D01*
Y-4720D01*
Y-4780D01*
Y-4840D01*
Y-4900D01*
Y-4960D01*
Y-5020D01*
Y-5080D01*
Y-5140D01*
Y-5200D01*
Y-5260D01*
Y-5320D01*
X-58657D01*
Y-5380D01*
X-58597D01*
Y-5440D01*
Y-5500D01*
X-58477D01*
Y-5560D01*
X-58417D01*
Y-5620D01*
X-58237D01*
Y-5680D01*
X-57937D01*
Y-5620D01*
X-57817D01*
Y-5560D01*
X-57697D01*
Y-5500D01*
X-57637D01*
Y-5440D01*
X-57577D01*
Y-5380D01*
X-57517D01*
Y-5320D01*
Y-5260D01*
Y-5200D01*
X-57457D01*
Y-5140D01*
Y-5080D01*
Y-5020D01*
Y-4960D01*
Y-4900D01*
Y-4840D01*
Y-4780D01*
Y-4720D01*
Y-4660D01*
Y-4600D01*
Y-4540D01*
Y-4480D01*
Y-4420D01*
Y-4360D01*
Y-4300D01*
Y-4240D01*
Y-4180D01*
Y-4120D01*
Y-4060D01*
Y-4000D01*
Y-3940D01*
Y-3880D01*
Y-3820D01*
Y-3760D01*
Y-3700D01*
Y-3640D01*
Y-3580D01*
Y-3520D01*
Y-3460D01*
Y-3400D01*
Y-3340D01*
Y-3280D01*
Y-3220D01*
Y-3160D01*
Y-3100D01*
Y-3040D01*
Y-2980D01*
Y-2920D01*
Y-2860D01*
Y-2800D01*
Y-2740D01*
Y-2680D01*
Y-2620D01*
Y-2560D01*
Y-2500D01*
Y-2440D01*
Y-2380D01*
Y-2320D01*
Y-2260D01*
Y-2200D01*
Y-2140D01*
Y-2080D01*
Y-2020D01*
Y-1960D01*
Y-1900D01*
Y-1840D01*
Y-1780D01*
Y-1720D01*
Y-1660D01*
Y-1600D01*
Y-1540D01*
Y-1480D01*
Y-1420D01*
Y-1360D01*
Y-1300D01*
Y-1240D01*
Y-1180D01*
Y-1120D01*
Y-1060D01*
Y-1000D01*
Y-940D01*
Y-880D01*
Y-820D01*
Y-760D01*
Y-700D01*
Y-640D01*
Y-580D01*
Y-520D01*
Y-460D01*
Y-400D01*
Y-340D01*
Y-280D01*
Y-220D01*
Y-160D01*
Y-100D01*
Y-40D01*
Y20D01*
Y80D01*
Y140D01*
Y200D01*
Y260D01*
Y320D01*
Y380D01*
Y440D01*
Y500D01*
Y560D01*
Y620D01*
Y680D01*
Y740D01*
Y800D01*
Y860D01*
Y920D01*
Y980D01*
Y1040D01*
Y1100D01*
Y1160D01*
Y1220D01*
Y1280D01*
Y1340D01*
Y1400D01*
Y1460D01*
Y1520D01*
Y1580D01*
Y1640D01*
Y1700D01*
Y1760D01*
Y1820D01*
Y1880D01*
Y1940D01*
Y2000D01*
Y2060D01*
Y2120D01*
Y2180D01*
Y2240D01*
Y2300D01*
Y2360D01*
Y2420D01*
Y2480D01*
Y2540D01*
Y2600D01*
Y2660D01*
Y2720D01*
Y2780D01*
Y2840D01*
Y2900D01*
Y2960D01*
Y3020D01*
Y3080D01*
Y3140D01*
Y3200D01*
Y3260D01*
Y3320D01*
Y3380D01*
Y3440D01*
Y3500D01*
Y3560D01*
Y3620D01*
Y3680D01*
Y3740D01*
Y3800D01*
Y3860D01*
Y3920D01*
Y3980D01*
Y4040D01*
Y4100D01*
Y4160D01*
Y4220D01*
Y4280D01*
Y4340D01*
Y4400D01*
Y4460D01*
Y4520D01*
Y4580D01*
Y4640D01*
Y4700D01*
Y4760D01*
Y4820D01*
Y4880D01*
Y4940D01*
Y5000D01*
Y5060D01*
Y5120D01*
Y5180D01*
Y5240D01*
Y5300D01*
Y5360D01*
Y5420D01*
Y5480D01*
Y5540D01*
Y5600D01*
Y5660D01*
Y5720D01*
Y5780D01*
Y5840D01*
Y5900D01*
Y5960D01*
Y6020D01*
Y6080D01*
Y6140D01*
X-56317D01*
Y6080D01*
D02*
G37*
G36*
X-27713Y349D02*
X-27716Y325D01*
Y299D01*
X-27719Y237D01*
X-27728Y171D01*
X-27737Y100D01*
X-27752Y35D01*
X-27761Y3D01*
X-27770Y-24D01*
Y-27D01*
X-27773Y-30D01*
X-27782Y-48D01*
X-27793Y-74D01*
X-27814Y-107D01*
X-27841Y-142D01*
X-27876Y-181D01*
X-27918Y-216D01*
X-27965Y-252D01*
X-27968D01*
X-27971Y-255D01*
X-27989Y-267D01*
X-28018Y-279D01*
X-28057Y-296D01*
X-28101Y-311D01*
X-28155Y-326D01*
X-28211Y-335D01*
X-28273Y-338D01*
X-28276D01*
X-28282D01*
X-28294D01*
X-28308Y-335D01*
X-28329D01*
X-28350Y-332D01*
X-28400Y-320D01*
X-28459Y-302D01*
X-28521Y-279D01*
X-28584Y-243D01*
X-28613Y-219D01*
X-28643Y-196D01*
X-28646Y-193D01*
X-28649Y-190D01*
X-28658Y-181D01*
X-28666Y-169D01*
X-28678Y-154D01*
X-28690Y-137D01*
X-28705Y-113D01*
X-28723Y-89D01*
X-28738Y-59D01*
X-28752Y-27D01*
X-28770Y9D01*
X-28785Y47D01*
X-28797Y91D01*
X-28812Y136D01*
X-28820Y186D01*
X-28829Y239D01*
X-28832Y234D01*
X-28838Y222D01*
X-28850Y204D01*
X-28862Y180D01*
X-28894Y127D01*
X-28915Y100D01*
X-28933Y77D01*
X-28939Y71D01*
X-28954Y56D01*
X-28977Y32D01*
X-29007Y3D01*
X-29048Y-30D01*
X-29093Y-68D01*
X-29146Y-107D01*
X-29205Y-148D01*
X-29762Y-501D01*
Y-163D01*
X-29335Y106D01*
X-29333D01*
X-29327Y112D01*
X-29318Y118D01*
X-29306Y127D01*
X-29273Y148D01*
X-29232Y174D01*
X-29188Y207D01*
X-29140Y239D01*
X-29096Y272D01*
X-29054Y302D01*
X-29051Y305D01*
X-29039Y313D01*
X-29022Y328D01*
X-29001Y349D01*
X-28957Y393D01*
X-28936Y417D01*
X-28918Y441D01*
X-28915Y444D01*
X-28912Y450D01*
X-28906Y461D01*
X-28897Y479D01*
X-28888Y497D01*
X-28880Y518D01*
X-28865Y565D01*
Y568D01*
X-28862Y574D01*
Y586D01*
X-28859Y601D01*
X-28856Y621D01*
Y645D01*
X-28853Y678D01*
Y1027D01*
X-29762D01*
Y1299D01*
X-27713D01*
Y349D01*
D02*
G37*
G36*
X-28220Y-856D02*
X-28214Y-862D01*
X-28211Y-874D01*
X-28202Y-888D01*
X-28193Y-906D01*
X-28181Y-927D01*
X-28152Y-977D01*
X-28119Y-1036D01*
X-28078Y-1096D01*
X-28030Y-1158D01*
X-27980Y-1220D01*
X-27977Y-1223D01*
X-27974Y-1226D01*
X-27965Y-1235D01*
X-27956Y-1247D01*
X-27926Y-1273D01*
X-27891Y-1309D01*
X-27850Y-1344D01*
X-27802Y-1383D01*
X-27755Y-1415D01*
X-27705Y-1445D01*
Y-1608D01*
X-29762D01*
Y-1356D01*
X-28160D01*
X-28163Y-1353D01*
X-28175Y-1338D01*
X-28193Y-1321D01*
X-28214Y-1291D01*
X-28240Y-1258D01*
X-28270Y-1217D01*
X-28302Y-1170D01*
X-28335Y-1116D01*
Y-1113D01*
X-28338Y-1110D01*
X-28350Y-1093D01*
X-28365Y-1063D01*
X-28382Y-1027D01*
X-28403Y-986D01*
X-28424Y-942D01*
X-28444Y-897D01*
X-28462Y-853D01*
X-28220D01*
Y-856D01*
D02*
G37*
G36*
X-37523Y12295D02*
X-39329D01*
Y11286D01*
X-39572D01*
Y12567D01*
X-37523D01*
Y12295D01*
D02*
G37*
G36*
Y9477D02*
X-37766D01*
Y10688D01*
X-38390D01*
Y9554D01*
X-38633D01*
Y10688D01*
X-39329D01*
Y9430D01*
X-39572D01*
Y10960D01*
X-37523D01*
Y9477D01*
D02*
G37*
G36*
Y8267D02*
X-37526Y8213D01*
X-37529Y8154D01*
X-37535Y8095D01*
X-37544Y8036D01*
X-37553Y7986D01*
Y7982D01*
X-37556Y7977D01*
Y7968D01*
X-37562Y7956D01*
X-37571Y7923D01*
X-37585Y7882D01*
X-37606Y7835D01*
X-37633Y7784D01*
X-37662Y7734D01*
X-37701Y7687D01*
X-37704Y7683D01*
X-37707Y7681D01*
X-37716Y7672D01*
X-37725Y7660D01*
X-37754Y7630D01*
X-37795Y7595D01*
X-37846Y7556D01*
X-37905Y7515D01*
X-37973Y7476D01*
X-38050Y7444D01*
X-38053D01*
X-38059Y7441D01*
X-38071Y7435D01*
X-38089Y7432D01*
X-38109Y7423D01*
X-38133Y7417D01*
X-38160Y7411D01*
X-38192Y7402D01*
X-38225Y7393D01*
X-38263Y7388D01*
X-38346Y7373D01*
X-38438Y7364D01*
X-38539Y7361D01*
X-38541D01*
X-38547D01*
X-38562D01*
X-38577D01*
X-38598Y7364D01*
X-38621D01*
X-38678Y7367D01*
X-38743Y7376D01*
X-38811Y7385D01*
X-38882Y7399D01*
X-38953Y7417D01*
X-38956D01*
X-38962Y7420D01*
X-38971Y7423D01*
X-38982Y7426D01*
X-39015Y7438D01*
X-39057Y7456D01*
X-39104Y7473D01*
X-39151Y7497D01*
X-39202Y7527D01*
X-39249Y7556D01*
X-39255Y7559D01*
X-39270Y7571D01*
X-39290Y7589D01*
X-39317Y7613D01*
X-39347Y7639D01*
X-39376Y7672D01*
X-39409Y7704D01*
X-39435Y7743D01*
X-39438Y7749D01*
X-39447Y7761D01*
X-39459Y7781D01*
X-39474Y7811D01*
X-39492Y7846D01*
X-39506Y7888D01*
X-39524Y7935D01*
X-39539Y7988D01*
Y7994D01*
X-39542Y8003D01*
X-39545Y8012D01*
X-39548Y8042D01*
X-39554Y8083D01*
X-39560Y8130D01*
X-39566Y8187D01*
X-39569Y8249D01*
X-39572Y8317D01*
Y9054D01*
X-37523D01*
Y8267D01*
D02*
G37*
G36*
X-38029Y6896D02*
X-38023Y6890D01*
X-38021Y6878D01*
X-38012Y6864D01*
X-38003Y6846D01*
X-37991Y6825D01*
X-37961Y6775D01*
X-37929Y6716D01*
X-37887Y6656D01*
X-37840Y6594D01*
X-37790Y6532D01*
X-37787Y6529D01*
X-37784Y6526D01*
X-37775Y6517D01*
X-37766Y6505D01*
X-37736Y6479D01*
X-37701Y6443D01*
X-37659Y6408D01*
X-37612Y6369D01*
X-37565Y6337D01*
X-37514Y6307D01*
Y6144D01*
X-39572D01*
Y6396D01*
X-37970D01*
X-37973Y6399D01*
X-37985Y6414D01*
X-38003Y6431D01*
X-38023Y6461D01*
X-38050Y6494D01*
X-38080Y6535D01*
X-38112Y6582D01*
X-38145Y6636D01*
Y6639D01*
X-38148Y6642D01*
X-38160Y6659D01*
X-38174Y6689D01*
X-38192Y6724D01*
X-38213Y6766D01*
X-38234Y6810D01*
X-38254Y6855D01*
X-38272Y6899D01*
X-38029D01*
Y6896D01*
D02*
G37*
%LPC*%
G36*
X-27941Y1027D02*
X-28619D01*
Y417D01*
X-28616Y381D01*
X-28613Y340D01*
X-28610Y293D01*
X-28604Y245D01*
X-28596Y198D01*
X-28584Y157D01*
X-28581Y151D01*
X-28575Y139D01*
X-28566Y121D01*
X-28554Y97D01*
X-28536Y71D01*
X-28516Y44D01*
X-28489Y17D01*
X-28459Y-3D01*
X-28456Y-6D01*
X-28444Y-12D01*
X-28427Y-21D01*
X-28403Y-33D01*
X-28376Y-42D01*
X-28347Y-51D01*
X-28311Y-57D01*
X-28276Y-59D01*
X-28273D01*
X-28270D01*
X-28252Y-57D01*
X-28225Y-54D01*
X-28190Y-48D01*
X-28155Y-33D01*
X-28113Y-15D01*
X-28074Y12D01*
X-28036Y47D01*
X-28033Y53D01*
X-28021Y68D01*
X-28007Y91D01*
X-27989Y130D01*
X-27971Y174D01*
X-27956Y234D01*
X-27944Y302D01*
X-27941Y381D01*
Y1027D01*
D02*
G37*
G36*
X-37766Y8782D02*
X-39329D01*
Y8296D01*
X-39326Y8275D01*
X-39323Y8231D01*
X-39320Y8181D01*
X-39314Y8128D01*
X-39305Y8074D01*
X-39293Y8030D01*
X-39290Y8024D01*
X-39287Y8009D01*
X-39279Y7988D01*
X-39267Y7962D01*
X-39249Y7932D01*
X-39231Y7903D01*
X-39210Y7873D01*
X-39187Y7843D01*
X-39181Y7840D01*
X-39169Y7829D01*
X-39148Y7811D01*
X-39119Y7790D01*
X-39080Y7766D01*
X-39036Y7740D01*
X-38985Y7716D01*
X-38929Y7695D01*
X-38926D01*
X-38920Y7692D01*
X-38912Y7689D01*
X-38900Y7687D01*
X-38885Y7683D01*
X-38864Y7678D01*
X-38843Y7672D01*
X-38820Y7666D01*
X-38761Y7657D01*
X-38692Y7648D01*
X-38616Y7642D01*
X-38533Y7639D01*
X-38530D01*
X-38518D01*
X-38503D01*
X-38479Y7642D01*
X-38453D01*
X-38423Y7645D01*
X-38388Y7648D01*
X-38352Y7651D01*
X-38272Y7666D01*
X-38189Y7683D01*
X-38112Y7710D01*
X-38074Y7728D01*
X-38041Y7746D01*
X-38038D01*
X-38032Y7752D01*
X-38023Y7757D01*
X-38012Y7763D01*
X-37982Y7787D01*
X-37947Y7817D01*
X-37908Y7855D01*
X-37870Y7900D01*
X-37837Y7950D01*
X-37810Y8003D01*
X-37807Y8009D01*
X-37804Y8024D01*
X-37795Y8051D01*
X-37787Y8089D01*
X-37781Y8136D01*
X-37772Y8196D01*
X-37769Y8231D01*
Y8270D01*
X-37766Y8308D01*
Y8782D01*
D02*
G37*
%LPD*%
D10*
X-38051Y-6935D02*
G03*
X-38051Y-6935I-492J0D01*
G01*
X-87580Y-24836D02*
G03*
X-87580Y-24836I-492J0D01*
G01*
X40717Y-22775D02*
G03*
X40717Y-22775I-492J0D01*
G01*
X-39890Y50888D02*
G03*
X-39890Y50888I-492J0D01*
G01*
X-14484Y4446D02*
G03*
X-14484Y4446I-492J0D01*
G01*
X-70366Y-43801D02*
G03*
X-70366Y-43801I-492J0D01*
G01*
X62640Y-19154D02*
G03*
X62640Y-19154I-492J0D01*
G01*
D11*
X82960Y40397D02*
G03*
X82960Y40397I-19685J0D01*
G01*
X105273Y-20718D02*
Y20778D01*
Y-20718D02*
X115273Y-20718D01*
X115273Y20778D01*
X105273Y20778D02*
X115273Y20778D01*
X-55042Y35784D02*
Y43706D01*
X-61735Y35784D02*
Y43706D01*
X-35393Y-3687D02*
Y3399D01*
X-41693Y-3687D02*
Y3399D01*
X-93230Y-22218D02*
Y8766D01*
X-82915D01*
Y-22218D02*
Y8766D01*
X-93230Y-22218D02*
X-82915D01*
X-35786Y-21647D02*
Y-11647D01*
X5710D01*
Y-21647D02*
Y-11647D01*
X-35786Y-21647D02*
X5710D01*
X29508Y43570D02*
X37430D01*
X29508Y36877D02*
X37430D01*
X80132Y12722D02*
X82076D01*
X80132Y17077D02*
X82076D01*
X94115Y-24033D02*
Y-16552D01*
X88406Y-24033D02*
Y-16552D01*
X86808Y-20385D02*
Y-18441D01*
X82453Y-20385D02*
Y-18441D01*
X77854Y-26256D02*
Y-24311D01*
X73105Y-26256D02*
Y-24311D01*
X44711Y-23510D02*
Y-16621D01*
X38006Y-23531D02*
Y-16642D01*
X28020Y-47145D02*
Y-44263D01*
Y-28216D02*
Y-25334D01*
Y-47145D02*
X52430D01*
Y-25334D01*
X28020D02*
X52430D01*
X13308Y-24213D02*
X21230D01*
X13308Y-30906D02*
X21230D01*
X13308Y-39110D02*
X21230D01*
X13308Y-32417D02*
X21230D01*
X22023Y-3723D02*
X33079D01*
X22023Y3593D02*
X33079D01*
X24058Y-4476D02*
X35113D01*
X24058Y-11792D02*
X35113D01*
X-33287Y-31293D02*
Y-23371D01*
X-26594Y-31293D02*
Y-23371D01*
X-16829Y-31091D02*
Y-23169D01*
X-23522Y-31091D02*
Y-23169D01*
X-8478Y-31182D02*
Y-23260D01*
X-15170Y-31182D02*
Y-23260D01*
X-104584Y-525D02*
X-96662D01*
X-104584Y6168D02*
X-96662D01*
X-104183Y-9004D02*
X-96262D01*
X-104183Y-2311D02*
X-96262D01*
X-71653Y35612D02*
Y43534D01*
X-64960Y35612D02*
Y43534D01*
X-73984Y45731D02*
X-43000D01*
X-73984D02*
Y56046D01*
X-43000D01*
Y45731D02*
Y56046D01*
X-20134Y7064D02*
X-9819D01*
Y38048D01*
X-20134D02*
X-9819D01*
X-20134Y7064D02*
Y38048D01*
X-30452Y36296D02*
X-22530D01*
X-30452Y29603D02*
X-22530D01*
X-30347Y21295D02*
X-22425D01*
X-30347Y27988D02*
X-22425D01*
X-65858Y-41871D02*
Y-31360D01*
X-76606Y-41871D02*
Y-31360D01*
Y-41871D02*
X-45110D01*
Y-31360D01*
X-76606D02*
X-45110D01*
X69904Y-44745D02*
Y-26044D01*
X54392Y-44745D02*
X56223D01*
X68073D02*
X69904D01*
X54392D02*
Y-26044D01*
X56223D01*
X68073D02*
X69904D01*
X12450Y21229D02*
X20371D01*
X12450Y14536D02*
X20371D01*
D12*
X49399Y19235D02*
X68099D01*
X49399Y18079D02*
Y19235D01*
Y-20365D02*
X68099D01*
Y-19208D01*
Y18079D02*
Y19235D01*
X49399Y-20365D02*
Y-19208D01*
D13*
X103047Y-14703D02*
X99048D01*
Y-12704D01*
X99715Y-12037D01*
X101048D01*
X101714Y-12704D01*
Y-14703D01*
X103713Y-10705D02*
Y-8039D01*
X103047Y-6706D02*
X99048D01*
X100381Y-5373D01*
X99048Y-4040D01*
X103047D01*
X99048Y-708D02*
Y-2041D01*
X99715Y-2707D01*
X102381D01*
X103047Y-2041D01*
Y-708D01*
X102381Y-41D01*
X99715D01*
X99048Y-708D01*
Y1292D02*
Y3957D01*
Y2624D01*
X103047D01*
X99048Y7290D02*
Y5957D01*
X99715Y5290D01*
X102381D01*
X103047Y5957D01*
Y7290D01*
X102381Y7956D01*
X99715D01*
X99048Y7290D01*
X103047Y9289D02*
X99048D01*
Y11288D01*
X99715Y11955D01*
X101048D01*
X101714Y11288D01*
Y9289D01*
Y10622D02*
X103047Y11955D01*
X75162Y24300D02*
Y20301D01*
X77162D01*
X77828Y20968D01*
Y23634D01*
X77162Y24300D01*
X75162D01*
X79161Y20301D02*
Y24300D01*
X81160D01*
X81827Y23634D01*
Y22301D01*
X81160Y21634D01*
X79161D01*
X80494D02*
X81827Y20301D01*
X83160Y24300D02*
Y21634D01*
X84492Y20301D01*
X85825Y21634D01*
Y24300D01*
X87158Y20301D02*
X88491D01*
X87825D01*
Y24300D01*
X87158Y23634D01*
X-54150Y40666D02*
Y44664D01*
X-52150D01*
X-51484Y43998D01*
Y42665D01*
X-52150Y41998D01*
X-54150D01*
X-52817D02*
X-51484Y40666D01*
X-47485D02*
X-50151D01*
X-47485Y43331D01*
Y43998D01*
X-48151Y44664D01*
X-49484D01*
X-50151Y43998D01*
X-46152D02*
X-45486Y44664D01*
X-44153D01*
X-43486Y43998D01*
Y41332D01*
X-44153Y40666D01*
X-45486D01*
X-46152Y41332D01*
Y43998D01*
X-42593Y40120D02*
X-40879D01*
X-40308Y40311D01*
X-40117Y40501D01*
X-39927Y40882D01*
Y41453D01*
X-40117Y41834D01*
X-40308Y42025D01*
X-40879Y42215D01*
X-42593D01*
Y38216D01*
X-38842Y41263D02*
Y41453D01*
X-38651Y41834D01*
X-38461Y42025D01*
X-38080Y42215D01*
X-37318D01*
X-36937Y42025D01*
X-36747Y41834D01*
X-36556Y41453D01*
Y41073D01*
X-36747Y40692D01*
X-37128Y40120D01*
X-39032Y38216D01*
X-36366D01*
X-34519Y42215D02*
Y39930D01*
X-35471Y41644D02*
X-33566Y40501D01*
Y41644D02*
X-35471Y40501D01*
X-69429Y-25190D02*
X-69667Y-24714D01*
X-70144Y-24238D01*
X-70620Y-24000D01*
X-71572D01*
X-72048Y-24238D01*
X-72524Y-24714D01*
X-72762Y-25190D01*
X-73000Y-25904D01*
Y-27095D01*
X-72762Y-27809D01*
X-72524Y-28285D01*
X-72048Y-28761D01*
X-71572Y-28999D01*
X-70620D01*
X-70144Y-28761D01*
X-69667Y-28285D01*
X-69429Y-27809D01*
X-63000Y-24000D02*
Y-28999D01*
Y-24000D02*
X-61334D01*
X-60620Y-24238D01*
X-60144Y-24714D01*
X-59905Y-25190D01*
X-59667Y-25904D01*
Y-27095D01*
X-59905Y-27809D01*
X-60144Y-28285D01*
X-60620Y-28761D01*
X-61334Y-28999D01*
X-63000D01*
X-49164Y-52281D02*
X-47450D01*
X-46878Y-52090D01*
X-46688Y-51900D01*
X-46498Y-51519D01*
Y-50948D01*
X-46688Y-50567D01*
X-46878Y-50376D01*
X-47450Y-50186D01*
X-49164D01*
Y-54185D01*
X-45222Y-50186D02*
X-43127D01*
X-44269Y-51710D01*
X-43698D01*
X-43317Y-51900D01*
X-43127Y-52090D01*
X-42937Y-52662D01*
Y-53043D01*
X-43127Y-53614D01*
X-43508Y-53995D01*
X-44079Y-54185D01*
X-44650D01*
X-45222Y-53995D01*
X-45412Y-53804D01*
X-45603Y-53423D01*
X-53000Y-24000D02*
Y-28999D01*
Y-24000D02*
X-50858D01*
X-50143Y-24238D01*
X-49905Y-24476D01*
X-49667Y-24952D01*
Y-25428D01*
X-49905Y-25904D01*
X-50143Y-26142D01*
X-50858Y-26380D01*
X-53000D01*
X-51334D02*
X-49667Y-28999D01*
X-116294Y-13594D02*
X-114580D01*
X-114009Y-13403D01*
X-113818Y-13213D01*
X-113628Y-12832D01*
Y-12261D01*
X-113818Y-11880D01*
X-114009Y-11689D01*
X-114580Y-11499D01*
X-116294D01*
Y-15498D01*
X-110448Y-11499D02*
X-112352D01*
X-112542Y-13213D01*
X-112352Y-13022D01*
X-111781Y-12832D01*
X-111209D01*
X-110638Y-13022D01*
X-110257Y-13403D01*
X-110067Y-13975D01*
Y-14355D01*
X-110257Y-14927D01*
X-110638Y-15308D01*
X-111209Y-15498D01*
X-111781D01*
X-112352Y-15308D01*
X-112542Y-15117D01*
X-112733Y-14736D01*
X-94400Y-35095D02*
X-92686D01*
X-92115Y-34904D01*
X-91924Y-34714D01*
X-91734Y-34333D01*
Y-33762D01*
X-91924Y-33381D01*
X-92115Y-33190D01*
X-92686Y-33000D01*
X-94400D01*
Y-36999D01*
X-88934Y-33000D02*
X-90839Y-35666D01*
X-87982D01*
X-88934Y-33000D02*
Y-36999D01*
X-97716Y38336D02*
X-96002D01*
X-95430Y38527D01*
X-95240Y38717D01*
X-95050Y39098D01*
Y39669D01*
X-95240Y40050D01*
X-95430Y40240D01*
X-96002Y40431D01*
X-97716D01*
Y36432D01*
X-94155Y39669D02*
X-93774Y39860D01*
X-93202Y40431D01*
Y36432D01*
X26458Y-20162D02*
X25125D01*
X25791D01*
Y-23494D01*
X25125Y-24161D01*
X24458D01*
X23792Y-23494D01*
X30457Y-24161D02*
X27791D01*
X30457Y-21495D01*
Y-20828D01*
X29790Y-20162D01*
X28457D01*
X27791Y-20828D01*
X102485Y61046D02*
Y65045D01*
X104484D01*
X105151Y64379D01*
Y63046D01*
X104484Y62379D01*
X102485D01*
X103818D02*
X105151Y61046D01*
X109150Y65045D02*
X107817D01*
X108483D01*
Y61713D01*
X107817Y61046D01*
X107150D01*
X106484Y61713D01*
X110483Y61046D02*
X111816D01*
X111149D01*
Y65045D01*
X110483Y64379D01*
X-26551Y-40967D02*
Y-36969D01*
X-24552D01*
X-23885Y-37635D01*
Y-38968D01*
X-24552Y-39634D01*
X-26551D01*
X-25218D02*
X-23885Y-40967D01*
X-19887D02*
X-22552D01*
X-19887Y-38302D01*
Y-37635D01*
X-20553Y-36969D01*
X-21886D01*
X-22552Y-37635D01*
X-16554Y-40967D02*
Y-36969D01*
X-18554Y-38968D01*
X-15888D01*
X-37733Y-36401D02*
Y-32403D01*
X-35734D01*
X-35068Y-33069D01*
Y-34402D01*
X-35734Y-35068D01*
X-37733D01*
X-36400D02*
X-35068Y-36401D01*
X-31069D02*
X-33735D01*
X-31069Y-33735D01*
Y-33069D01*
X-31735Y-32403D01*
X-33068D01*
X-33735Y-33069D01*
X-29736D02*
X-29070Y-32403D01*
X-27737D01*
X-27070Y-33069D01*
Y-33735D01*
X-27737Y-34402D01*
X-28403D01*
X-27737D01*
X-27070Y-35068D01*
Y-35735D01*
X-27737Y-36401D01*
X-29070D01*
X-29736Y-35735D01*
X-18971Y-37019D02*
Y-33021D01*
X-16971D01*
X-16305Y-33687D01*
Y-35020D01*
X-16971Y-35686D01*
X-18971D01*
X-17638D02*
X-16305Y-37019D01*
X-12306D02*
X-14972D01*
X-12306Y-34354D01*
Y-33687D01*
X-12972Y-33021D01*
X-14305D01*
X-14972Y-33687D01*
X-8307Y-37019D02*
X-10973D01*
X-8307Y-34354D01*
Y-33687D01*
X-8974Y-33021D01*
X-10307D01*
X-10973Y-33687D01*
X-81391Y39195D02*
Y43194D01*
X-79392D01*
X-78725Y42527D01*
Y41194D01*
X-79392Y40528D01*
X-81391D01*
X-80058D02*
X-78725Y39195D01*
X-74727D02*
X-77393D01*
X-74727Y41861D01*
Y42527D01*
X-75393Y43194D01*
X-76726D01*
X-77393Y42527D01*
X-73394Y39195D02*
X-72061D01*
X-72727D01*
Y43194D01*
X-73394Y42527D01*
X-31135Y37247D02*
Y41246D01*
X-29136D01*
X-28469Y40579D01*
Y39246D01*
X-29136Y38580D01*
X-31135D01*
X-29802D02*
X-28469Y37247D01*
X-27137D02*
X-25804D01*
X-26470D01*
Y41246D01*
X-27137Y40579D01*
X-23804Y37914D02*
X-23138Y37247D01*
X-21805D01*
X-21138Y37914D01*
Y40579D01*
X-21805Y41246D01*
X-23138D01*
X-23804Y40579D01*
Y39913D01*
X-23138Y39246D01*
X-21138D01*
X-31197Y15744D02*
Y19743D01*
X-29197D01*
X-28531Y19076D01*
Y17743D01*
X-29197Y17077D01*
X-31197D01*
X-29864D02*
X-28531Y15744D01*
X-27198D02*
X-25865D01*
X-26532D01*
Y19743D01*
X-27198Y19076D01*
X-23866D02*
X-23200Y19743D01*
X-21867D01*
X-21200Y19076D01*
Y18410D01*
X-21867Y17743D01*
X-21200Y17077D01*
Y16410D01*
X-21867Y15744D01*
X-23200D01*
X-23866Y16410D01*
Y17077D01*
X-23200Y17743D01*
X-23866Y18410D01*
Y19076D01*
X-23200Y17743D02*
X-21867D01*
X-104396Y-14222D02*
Y-10223D01*
X-102397D01*
X-101730Y-10890D01*
Y-12223D01*
X-102397Y-12889D01*
X-104396D01*
X-103063D02*
X-101730Y-14222D01*
X-100397D02*
X-99064D01*
X-99731D01*
Y-10223D01*
X-100397Y-10890D01*
X-97065Y-10223D02*
X-94399D01*
Y-10890D01*
X-97065Y-13555D01*
Y-14222D01*
X-104547Y7203D02*
Y11202D01*
X-102548D01*
X-101881Y10536D01*
Y9203D01*
X-102548Y8536D01*
X-104547D01*
X-103214D02*
X-101881Y7203D01*
X-100548D02*
X-99215D01*
X-99882D01*
Y11202D01*
X-100548Y10536D01*
X-94550Y11202D02*
X-95883Y10536D01*
X-97216Y9203D01*
Y7870D01*
X-96549Y7203D01*
X-95217D01*
X-94550Y7870D01*
Y8536D01*
X-95217Y9203D01*
X-97216D01*
X28363Y44478D02*
Y48477D01*
X30362D01*
X31029Y47810D01*
Y46477D01*
X30362Y45811D01*
X28363D01*
X29696D02*
X31029Y44478D01*
X32362D02*
X33695D01*
X33028D01*
Y48477D01*
X32362Y47810D01*
X38360Y48477D02*
X35694D01*
Y46477D01*
X37027Y47144D01*
X37693D01*
X38360Y46477D01*
Y45144D01*
X37693Y44478D01*
X36360D01*
X35694Y45144D01*
X12700Y24600D02*
Y28598D01*
X14699D01*
X15366Y27932D01*
Y26599D01*
X14699Y25932D01*
X12700D01*
X14033D02*
X15366Y24600D01*
X16699D02*
X18032D01*
X17365D01*
Y28598D01*
X16699Y27932D01*
X22697Y24600D02*
X20031D01*
X22697Y27265D01*
Y27932D01*
X22030Y28598D01*
X20697D01*
X20031Y27932D01*
X14120Y-2668D02*
Y1331D01*
X16120D01*
X16786Y664D01*
Y-668D01*
X16120Y-1335D01*
X14120D01*
X15453D02*
X16786Y-2668D01*
X18119Y1331D02*
X20785D01*
Y664D01*
X18119Y-2001D01*
Y-2668D01*
X14773Y-10961D02*
Y-6963D01*
X16772D01*
X17439Y-7629D01*
Y-8962D01*
X16772Y-9629D01*
X14773D01*
X16106D02*
X17439Y-10961D01*
X21437Y-6963D02*
X20104Y-7629D01*
X18771Y-8962D01*
Y-10295D01*
X19438Y-10961D01*
X20771D01*
X21437Y-10295D01*
Y-9629D01*
X20771Y-8962D01*
X18771D01*
X13270Y-23175D02*
Y-19176D01*
X15270D01*
X15936Y-19843D01*
Y-21176D01*
X15270Y-21842D01*
X13270D01*
X14603D02*
X15936Y-23175D01*
X19935Y-19176D02*
X17269D01*
Y-21176D01*
X18602Y-20509D01*
X19268D01*
X19935Y-21176D01*
Y-22509D01*
X19268Y-23175D01*
X17936D01*
X17269Y-22509D01*
X19462Y-44078D02*
Y-40079D01*
X21461D01*
X22128Y-40745D01*
Y-42078D01*
X21461Y-42745D01*
X19462D01*
X20795D02*
X22128Y-44078D01*
X25460D02*
Y-40079D01*
X23460Y-42078D01*
X26126D01*
X-19391Y-10326D02*
Y-6327D01*
X-17392D01*
X-16725Y-6994D01*
Y-8327D01*
X-17392Y-8993D01*
X-19391D01*
X-15392Y-10992D02*
X-12727D01*
X-11394Y-10326D02*
Y-6327D01*
X-10061Y-7660D01*
X-8728Y-6327D01*
Y-10326D01*
X-7395D02*
X-6062D01*
X-6728D01*
Y-6327D01*
X-7395Y-6994D01*
X-8219Y21341D02*
X-4220D01*
Y19342D01*
X-4886Y18676D01*
X-6219D01*
X-6886Y19342D01*
Y21341D01*
X-8885Y17343D02*
Y14677D01*
X-8219Y13344D02*
X-4220D01*
X-5553Y12011D01*
X-4220Y10678D01*
X-8219D01*
X-4886Y9345D02*
X-4220Y8679D01*
Y7346D01*
X-4886Y6679D01*
X-7552D01*
X-8219Y7346D01*
Y8679D01*
X-7552Y9345D01*
X-4886D01*
X-72701Y30423D02*
Y34422D01*
X-70701D01*
X-70035Y33756D01*
Y32423D01*
X-70701Y31756D01*
X-72701D01*
X-68702Y29757D02*
X-66036D01*
X-64703Y34422D02*
Y30423D01*
X-62704D01*
X-62037Y31090D01*
Y33756D01*
X-62704Y34422D01*
X-64703D01*
X-58039D02*
X-60704D01*
Y30423D01*
X-58039D01*
X-60704Y32423D02*
X-59372D01*
X-54040Y33756D02*
X-54706Y34422D01*
X-56039D01*
X-56706Y33756D01*
Y31090D01*
X-56039Y30423D01*
X-54706D01*
X-54040Y31090D01*
X-52707Y30423D02*
Y33089D01*
X-51374Y34422D01*
X-50041Y33089D01*
Y30423D01*
Y32423D01*
X-52707D01*
X-48708Y34422D02*
Y33756D01*
X-47375Y32423D01*
X-46042Y33756D01*
Y34422D01*
X-47375Y32423D02*
Y30423D01*
X-44710D02*
X-43377D01*
X-44043D01*
Y34422D01*
X-44710Y33756D01*
X-81033Y8475D02*
X-77035D01*
Y6476D01*
X-77701Y5809D01*
X-79034D01*
X-79700Y6476D01*
Y8475D01*
X-81700Y4476D02*
Y1811D01*
X-77035Y477D02*
X-81033D01*
Y-1522D01*
X-80367Y-2188D01*
X-77701D01*
X-77035Y-1522D01*
Y477D01*
Y-6187D02*
Y-3521D01*
X-81033D01*
Y-6187D01*
X-79034Y-3521D02*
Y-4854D01*
X-77701Y-10186D02*
X-77035Y-9519D01*
Y-8186D01*
X-77701Y-7520D01*
X-80367D01*
X-81033Y-8186D01*
Y-9519D01*
X-80367Y-10186D01*
X-81033Y-11519D02*
X-78368D01*
X-77035Y-12852D01*
X-78368Y-14184D01*
X-81033D01*
X-79034D01*
Y-11519D01*
X-77035Y-15517D02*
X-77701D01*
X-79034Y-16850D01*
X-77701Y-18183D01*
X-77035D01*
X-79034Y-16850D02*
X-81033D01*
X-77701Y-19516D02*
X-77035Y-20182D01*
Y-21515D01*
X-77701Y-22182D01*
X-80367D01*
X-81033Y-21515D01*
Y-20182D01*
X-80367Y-19516D01*
X-77701D01*
X54600Y-11202D02*
Y-15201D01*
X56599D01*
X57266Y-14534D01*
Y-11868D01*
X56599Y-11202D01*
X54600D01*
X61264Y-15201D02*
X58599D01*
X61264Y-12535D01*
Y-11868D01*
X60598Y-11202D01*
X59265D01*
X58599Y-11868D01*
X73987Y-35468D02*
X73320Y-34802D01*
X71987D01*
X71321Y-35468D01*
Y-38134D01*
X71987Y-38800D01*
X73320D01*
X73987Y-38134D01*
X75320Y-38800D02*
X76653D01*
X75986D01*
Y-34802D01*
X75320Y-35468D01*
X78652D02*
X79318Y-34802D01*
X80651D01*
X81318Y-35468D01*
Y-36134D01*
X80651Y-36801D01*
X79985D01*
X80651D01*
X81318Y-37467D01*
Y-38134D01*
X80651Y-38800D01*
X79318D01*
X78652Y-38134D01*
X92382Y-27281D02*
X91716Y-26615D01*
X90383D01*
X89716Y-27281D01*
Y-29947D01*
X90383Y-30614D01*
X91716D01*
X92382Y-29947D01*
X93715Y-30614D02*
X95048D01*
X94382D01*
Y-26615D01*
X93715Y-27281D01*
X99713Y-30614D02*
X97047D01*
X99713Y-27948D01*
Y-27281D01*
X99047Y-26615D01*
X97714D01*
X97047Y-27281D01*
X32198Y25869D02*
X31531Y26535D01*
X30198D01*
X29532Y25869D01*
Y23203D01*
X30198Y22537D01*
X31531D01*
X32198Y23203D01*
X33531Y22537D02*
X34863D01*
X34197D01*
Y26535D01*
X33531Y25869D01*
X36863Y22537D02*
X38196D01*
X37529D01*
Y26535D01*
X36863Y25869D01*
X86993Y45460D02*
X86327Y46126D01*
X84994D01*
X84328Y45460D01*
Y42794D01*
X84994Y42127D01*
X86327D01*
X86993Y42794D01*
X88326Y42127D02*
X89659D01*
X88993D01*
Y46126D01*
X88326Y45460D01*
X91659D02*
X92325Y46126D01*
X93658D01*
X94324Y45460D01*
Y42794D01*
X93658Y42127D01*
X92325D01*
X91659Y42794D01*
Y45460D01*
X91234Y17142D02*
X90567Y17808D01*
X89235D01*
X88568Y17142D01*
Y14476D01*
X89235Y13810D01*
X90567D01*
X91234Y14476D01*
X92567D02*
X93233Y13810D01*
X94566D01*
X95232Y14476D01*
Y17142D01*
X94566Y17808D01*
X93233D01*
X92567Y17142D01*
Y16475D01*
X93233Y15809D01*
X95232D01*
X84032Y-27571D02*
X83366Y-26904D01*
X82033D01*
X81366Y-27571D01*
Y-30236D01*
X82033Y-30903D01*
X83366D01*
X84032Y-30236D01*
X85365Y-27571D02*
X86031Y-26904D01*
X87364D01*
X88031Y-27571D01*
Y-28237D01*
X87364Y-28903D01*
X88031Y-29570D01*
Y-30236D01*
X87364Y-30903D01*
X86031D01*
X85365Y-30236D01*
Y-29570D01*
X86031Y-28903D01*
X85365Y-28237D01*
Y-27571D01*
X86031Y-28903D02*
X87364D01*
X33558Y-15361D02*
X32891Y-14695D01*
X31558D01*
X30892Y-15361D01*
Y-18027D01*
X31558Y-18694D01*
X32891D01*
X33558Y-18027D01*
X34891Y-14695D02*
X37556D01*
Y-15361D01*
X34891Y-18027D01*
Y-18694D01*
D14*
X72624Y-22264D02*
X69292Y-18931D01*
X72624D02*
X69292Y-22264D01*
X72624Y-20598D02*
X69292D01*
X70958Y-18931D02*
Y-22264D01*
X66249Y1935D02*
Y-3063D01*
X63750D01*
X62917Y-2230D01*
Y-564D01*
X63750Y269D01*
X66249D01*
X64583D02*
X62917Y1935D01*
X58751D02*
X60417D01*
X61251Y1102D01*
Y-564D01*
X60417Y-1397D01*
X58751D01*
X57918Y-564D01*
Y269D01*
X61251D01*
X55419Y1935D02*
Y-2230D01*
Y-564D01*
X56252D01*
X54586D01*
X55419D01*
Y-2230D01*
X54586Y-3063D01*
X52087D02*
Y1935D01*
X49588D01*
X48755Y1102D01*
Y-2230D01*
X49588Y-3063D01*
X52087D01*
X44589Y1935D02*
X46255D01*
X47089Y1102D01*
Y-564D01*
X46255Y-1397D01*
X44589D01*
X43756Y-564D01*
Y269D01*
X47089D01*
X42090Y1935D02*
X39591D01*
X38758Y1102D01*
X39591Y269D01*
X41257D01*
X42090Y-564D01*
X41257Y-1397D01*
X38758D01*
X67499Y1935D02*
Y-3063D01*
X65000D01*
X64167Y-2230D01*
Y-564D01*
X65000Y269D01*
X67499D01*
X65833D02*
X64167Y1935D01*
X59168Y-3063D02*
X62501D01*
Y1935D01*
X59168D01*
X62501Y-564D02*
X60834D01*
X54170Y-3063D02*
X57502D01*
Y-564D01*
X55836D01*
X57502D01*
Y1935D01*
X52504Y-3063D02*
Y1935D01*
X50005D01*
X49172Y1102D01*
Y-2230D01*
X50005Y-3063D01*
X52504D01*
X44173D02*
X47505D01*
Y1935D01*
X44173D01*
X47505Y-564D02*
X45839D01*
X39175Y-2230D02*
X40008Y-3063D01*
X41674D01*
X42507Y-2230D01*
Y-1397D01*
X41674Y-564D01*
X40008D01*
X39175Y269D01*
Y1102D01*
X40008Y1935D01*
X41674D01*
X42507Y1102D01*
X101052Y-32909D02*
X101205Y-33062D01*
X101052Y-33214D01*
X100900Y-33062D01*
Y-32909D01*
X101052Y-32605D01*
X101205Y-32452D01*
X101662Y-32300D01*
X102271D01*
X102728Y-32452D01*
X102881Y-32757D01*
Y-33214D01*
X102728Y-33519D01*
X102271Y-33671D01*
X101814D01*
X102271Y-32300D02*
X102576Y-32452D01*
X102728Y-32757D01*
Y-33214D01*
X102576Y-33519D01*
X102271Y-33671D01*
X102576Y-33823D01*
X102881Y-34128D01*
X103033Y-34433D01*
Y-34890D01*
X102881Y-35195D01*
X102728Y-35347D01*
X102271Y-35499D01*
X101662D01*
X101205Y-35347D01*
X101052Y-35195D01*
X100900Y-34890D01*
Y-34738D01*
X101052Y-34585D01*
X101205Y-34738D01*
X101052Y-34890D01*
X102728Y-33976D02*
X102881Y-34433D01*
Y-34890D01*
X102728Y-35195D01*
X102576Y-35347D01*
X102271Y-35499D01*
X103810Y-32300D02*
X104876Y-35499D01*
X103962Y-32300D02*
X104876Y-35042D01*
X105943Y-32300D02*
X104876Y-35499D01*
X103505Y-32300D02*
X104419D01*
X105333D02*
X106247D01*
X106811Y-32909D02*
X106964Y-33062D01*
X106811Y-33214D01*
X106659Y-33062D01*
Y-32909D01*
X106811Y-32605D01*
X106964Y-32452D01*
X107421Y-32300D01*
X108030D01*
X108487Y-32452D01*
X108639Y-32757D01*
Y-33214D01*
X108487Y-33519D01*
X108030Y-33671D01*
X107573D01*
X108030Y-32300D02*
X108335Y-32452D01*
X108487Y-32757D01*
Y-33214D01*
X108335Y-33519D01*
X108030Y-33671D01*
X108335Y-33823D01*
X108639Y-34128D01*
X108792Y-34433D01*
Y-34890D01*
X108639Y-35195D01*
X108487Y-35347D01*
X108030Y-35499D01*
X107421D01*
X106964Y-35347D01*
X106811Y-35195D01*
X106659Y-34890D01*
Y-34738D01*
X106811Y-34585D01*
X106964Y-34738D01*
X106811Y-34890D01*
X108487Y-33976D02*
X108639Y-34433D01*
Y-34890D01*
X108487Y-35195D01*
X108335Y-35347D01*
X108030Y-35499D01*
X101052Y35091D02*
X101205Y34938D01*
X101052Y34786D01*
X100900Y34938D01*
Y35091D01*
X101052Y35395D01*
X101205Y35548D01*
X101662Y35700D01*
X102271D01*
X102728Y35548D01*
X102881Y35243D01*
Y34786D01*
X102728Y34481D01*
X102271Y34329D01*
X101814D01*
X102271Y35700D02*
X102576Y35548D01*
X102728Y35243D01*
Y34786D01*
X102576Y34481D01*
X102271Y34329D01*
X102576Y34176D01*
X102881Y33872D01*
X103033Y33567D01*
Y33110D01*
X102881Y32805D01*
X102728Y32653D01*
X102271Y32501D01*
X101662D01*
X101205Y32653D01*
X101052Y32805D01*
X100900Y33110D01*
Y33262D01*
X101052Y33415D01*
X101205Y33262D01*
X101052Y33110D01*
X102728Y34024D02*
X102881Y33567D01*
Y33110D01*
X102728Y32805D01*
X102576Y32653D01*
X102271Y32501D01*
X103810Y35700D02*
X104876Y32501D01*
X103962Y35700D02*
X104876Y32958D01*
X105943Y35700D02*
X104876Y32501D01*
X103505Y35700D02*
X104419D01*
X105333D02*
X106247D01*
X106811Y35091D02*
X106964Y34938D01*
X106811Y34786D01*
X106659Y34938D01*
Y35091D01*
X106811Y35395D01*
X106964Y35548D01*
X107421Y35700D01*
X108030D01*
X108487Y35548D01*
X108639Y35243D01*
Y34786D01*
X108487Y34481D01*
X108030Y34329D01*
X107573D01*
X108030Y35700D02*
X108335Y35548D01*
X108487Y35243D01*
Y34786D01*
X108335Y34481D01*
X108030Y34329D01*
X108335Y34176D01*
X108639Y33872D01*
X108792Y33567D01*
Y33110D01*
X108639Y32805D01*
X108487Y32653D01*
X108030Y32501D01*
X107421D01*
X106964Y32653D01*
X106811Y32805D01*
X106659Y33110D01*
Y33262D01*
X106811Y33415D01*
X106964Y33262D01*
X106811Y33110D01*
X108487Y34024D02*
X108639Y33567D01*
Y33110D01*
X108487Y32805D01*
X108335Y32653D01*
X108030Y32501D01*
X55052Y-56909D02*
X55205Y-57062D01*
X55052Y-57214D01*
X54900Y-57062D01*
Y-56909D01*
X55052Y-56605D01*
X55205Y-56452D01*
X55662Y-56300D01*
X56271D01*
X56728Y-56452D01*
X56880Y-56757D01*
Y-57214D01*
X56728Y-57519D01*
X56271Y-57671D01*
X55814D01*
X56271Y-56300D02*
X56576Y-56452D01*
X56728Y-56757D01*
Y-57214D01*
X56576Y-57519D01*
X56271Y-57671D01*
X56576Y-57823D01*
X56880Y-58128D01*
X57033Y-58433D01*
Y-58890D01*
X56880Y-59195D01*
X56728Y-59347D01*
X56271Y-59499D01*
X55662D01*
X55205Y-59347D01*
X55052Y-59195D01*
X54900Y-58890D01*
Y-58738D01*
X55052Y-58585D01*
X55205Y-58738D01*
X55052Y-58890D01*
X56728Y-57976D02*
X56880Y-58433D01*
Y-58890D01*
X56728Y-59195D01*
X56576Y-59347D01*
X56271Y-59499D01*
X57810Y-56300D02*
X58876Y-59499D01*
X57962Y-56300D02*
X58876Y-59042D01*
X59943Y-56300D02*
X58876Y-59499D01*
X57505Y-56300D02*
X58419D01*
X59333D02*
X60247D01*
X60811Y-56909D02*
X60963Y-57062D01*
X60811Y-57214D01*
X60659Y-57062D01*
Y-56909D01*
X60811Y-56605D01*
X60963Y-56452D01*
X61421Y-56300D01*
X62030D01*
X62487Y-56452D01*
X62639Y-56757D01*
Y-57214D01*
X62487Y-57519D01*
X62030Y-57671D01*
X61573D01*
X62030Y-56300D02*
X62335Y-56452D01*
X62487Y-56757D01*
Y-57214D01*
X62335Y-57519D01*
X62030Y-57671D01*
X62335Y-57823D01*
X62639Y-58128D01*
X62792Y-58433D01*
Y-58890D01*
X62639Y-59195D01*
X62487Y-59347D01*
X62030Y-59499D01*
X61421D01*
X60963Y-59347D01*
X60811Y-59195D01*
X60659Y-58890D01*
Y-58738D01*
X60811Y-58585D01*
X60963Y-58738D01*
X60811Y-58890D01*
X62487Y-57976D02*
X62639Y-58433D01*
Y-58890D01*
X62487Y-59195D01*
X62335Y-59347D01*
X62030Y-59499D01*
X55052Y59091D02*
X55205Y58938D01*
X55052Y58786D01*
X54900Y58938D01*
Y59091D01*
X55052Y59395D01*
X55205Y59548D01*
X55662Y59700D01*
X56271D01*
X56728Y59548D01*
X56880Y59243D01*
Y58786D01*
X56728Y58481D01*
X56271Y58329D01*
X55814D01*
X56271Y59700D02*
X56576Y59548D01*
X56728Y59243D01*
Y58786D01*
X56576Y58481D01*
X56271Y58329D01*
X56576Y58176D01*
X56880Y57872D01*
X57033Y57567D01*
Y57110D01*
X56880Y56805D01*
X56728Y56653D01*
X56271Y56501D01*
X55662D01*
X55205Y56653D01*
X55052Y56805D01*
X54900Y57110D01*
Y57262D01*
X55052Y57415D01*
X55205Y57262D01*
X55052Y57110D01*
X56728Y58024D02*
X56880Y57567D01*
Y57110D01*
X56728Y56805D01*
X56576Y56653D01*
X56271Y56501D01*
X57810Y59700D02*
X58876Y56501D01*
X57962Y59700D02*
X58876Y56958D01*
X59943Y59700D02*
X58876Y56501D01*
X57505Y59700D02*
X58419D01*
X59333D02*
X60247D01*
X60811Y59091D02*
X60963Y58938D01*
X60811Y58786D01*
X60659Y58938D01*
Y59091D01*
X60811Y59395D01*
X60963Y59548D01*
X61421Y59700D01*
X62030D01*
X62487Y59548D01*
X62639Y59243D01*
Y58786D01*
X62487Y58481D01*
X62030Y58329D01*
X61573D01*
X62030Y59700D02*
X62335Y59548D01*
X62487Y59243D01*
Y58786D01*
X62335Y58481D01*
X62030Y58329D01*
X62335Y58176D01*
X62639Y57872D01*
X62792Y57567D01*
Y57110D01*
X62639Y56805D01*
X62487Y56653D01*
X62030Y56501D01*
X61421D01*
X60963Y56653D01*
X60811Y56805D01*
X60659Y57110D01*
Y57262D01*
X60811Y57415D01*
X60963Y57262D01*
X60811Y57110D01*
X62487Y58024D02*
X62639Y57567D01*
Y57110D01*
X62487Y56805D01*
X62335Y56653D01*
X62030Y56501D01*
X-4948Y-22909D02*
X-4795Y-23062D01*
X-4948Y-23214D01*
X-5100Y-23062D01*
Y-22909D01*
X-4948Y-22605D01*
X-4795Y-22452D01*
X-4338Y-22300D01*
X-3729D01*
X-3272Y-22452D01*
X-3119Y-22757D01*
Y-23214D01*
X-3272Y-23519D01*
X-3729Y-23671D01*
X-4186D01*
X-3729Y-22300D02*
X-3424Y-22452D01*
X-3272Y-22757D01*
Y-23214D01*
X-3424Y-23519D01*
X-3729Y-23671D01*
X-3424Y-23823D01*
X-3119Y-24128D01*
X-2967Y-24433D01*
Y-24890D01*
X-3119Y-25195D01*
X-3272Y-25347D01*
X-3729Y-25499D01*
X-4338D01*
X-4795Y-25347D01*
X-4948Y-25195D01*
X-5100Y-24890D01*
Y-24738D01*
X-4948Y-24585D01*
X-4795Y-24738D01*
X-4948Y-24890D01*
X-3272Y-23976D02*
X-3119Y-24433D01*
Y-24890D01*
X-3272Y-25195D01*
X-3424Y-25347D01*
X-3729Y-25499D01*
X-2190Y-22300D02*
X-1124Y-25499D01*
X-2038Y-22300D02*
X-1124Y-25042D01*
X-57Y-22300D02*
X-1124Y-25499D01*
X-2495Y-22300D02*
X-1581D01*
X-667D02*
X247D01*
X811Y-22909D02*
X963Y-23062D01*
X811Y-23214D01*
X659Y-23062D01*
Y-22909D01*
X811Y-22605D01*
X963Y-22452D01*
X1421Y-22300D01*
X2030D01*
X2487Y-22452D01*
X2639Y-22757D01*
Y-23214D01*
X2487Y-23519D01*
X2030Y-23671D01*
X1573D01*
X2030Y-22300D02*
X2335Y-22452D01*
X2487Y-22757D01*
Y-23214D01*
X2335Y-23519D01*
X2030Y-23671D01*
X2335Y-23823D01*
X2639Y-24128D01*
X2792Y-24433D01*
Y-24890D01*
X2639Y-25195D01*
X2487Y-25347D01*
X2030Y-25499D01*
X1421D01*
X963Y-25347D01*
X811Y-25195D01*
X659Y-24890D01*
Y-24738D01*
X811Y-24585D01*
X963Y-24738D01*
X811Y-24890D01*
X2487Y-23976D02*
X2639Y-24433D01*
Y-24890D01*
X2487Y-25195D01*
X2335Y-25347D01*
X2030Y-25499D01*
X-2948Y25091D02*
X-2795Y24938D01*
X-2948Y24786D01*
X-3100Y24938D01*
Y25091D01*
X-2948Y25395D01*
X-2795Y25548D01*
X-2338Y25700D01*
X-1729D01*
X-1272Y25548D01*
X-1120Y25243D01*
Y24786D01*
X-1272Y24481D01*
X-1729Y24329D01*
X-2186D01*
X-1729Y25700D02*
X-1424Y25548D01*
X-1272Y25243D01*
Y24786D01*
X-1424Y24481D01*
X-1729Y24329D01*
X-1424Y24177D01*
X-1120Y23872D01*
X-967Y23567D01*
Y23110D01*
X-1120Y22805D01*
X-1272Y22653D01*
X-1729Y22501D01*
X-2338D01*
X-2795Y22653D01*
X-2948Y22805D01*
X-3100Y23110D01*
Y23262D01*
X-2948Y23415D01*
X-2795Y23262D01*
X-2948Y23110D01*
X-1272Y24024D02*
X-1120Y23567D01*
Y23110D01*
X-1272Y22805D01*
X-1424Y22653D01*
X-1729Y22501D01*
X-190Y25700D02*
X876Y22501D01*
X-38Y25700D02*
X876Y22958D01*
X1943Y25700D02*
X876Y22501D01*
X-495Y25700D02*
X419D01*
X1333D02*
X2247D01*
X2811Y25091D02*
X2963Y24938D01*
X2811Y24786D01*
X2659Y24938D01*
Y25091D01*
X2811Y25395D01*
X2963Y25548D01*
X3421Y25700D01*
X4030D01*
X4487Y25548D01*
X4639Y25243D01*
Y24786D01*
X4487Y24481D01*
X4030Y24329D01*
X3573D01*
X4030Y25700D02*
X4335Y25548D01*
X4487Y25243D01*
Y24786D01*
X4335Y24481D01*
X4030Y24329D01*
X4335Y24177D01*
X4639Y23872D01*
X4792Y23567D01*
Y23110D01*
X4639Y22805D01*
X4487Y22653D01*
X4030Y22501D01*
X3421D01*
X2963Y22653D01*
X2811Y22805D01*
X2659Y23110D01*
Y23262D01*
X2811Y23415D01*
X2963Y23262D01*
X2811Y23110D01*
X4487Y24024D02*
X4639Y23567D01*
Y23110D01*
X4487Y22805D01*
X4335Y22653D01*
X4030Y22501D01*
X-62948Y59091D02*
X-62795Y58938D01*
X-62948Y58786D01*
X-63100Y58938D01*
Y59091D01*
X-62948Y59395D01*
X-62795Y59548D01*
X-62338Y59700D01*
X-61729D01*
X-61272Y59548D01*
X-61120Y59243D01*
Y58786D01*
X-61272Y58481D01*
X-61729Y58329D01*
X-62186D01*
X-61729Y59700D02*
X-61424Y59548D01*
X-61272Y59243D01*
Y58786D01*
X-61424Y58481D01*
X-61729Y58329D01*
X-61424Y58176D01*
X-61120Y57872D01*
X-60967Y57567D01*
Y57110D01*
X-61120Y56805D01*
X-61272Y56653D01*
X-61729Y56501D01*
X-62338D01*
X-62795Y56653D01*
X-62948Y56805D01*
X-63100Y57110D01*
Y57262D01*
X-62948Y57415D01*
X-62795Y57262D01*
X-62948Y57110D01*
X-61272Y58024D02*
X-61120Y57567D01*
Y57110D01*
X-61272Y56805D01*
X-61424Y56653D01*
X-61729Y56501D01*
X-60190Y59700D02*
X-59124Y56501D01*
X-60038Y59700D02*
X-59124Y56958D01*
X-58057Y59700D02*
X-59124Y56501D01*
X-60495Y59700D02*
X-59581D01*
X-58667D02*
X-57753D01*
X-57189Y59091D02*
X-57037Y58938D01*
X-57189Y58786D01*
X-57341Y58938D01*
Y59091D01*
X-57189Y59395D01*
X-57037Y59548D01*
X-56580Y59700D01*
X-55970D01*
X-55513Y59548D01*
X-55361Y59243D01*
Y58786D01*
X-55513Y58481D01*
X-55970Y58329D01*
X-56427D01*
X-55970Y59700D02*
X-55665Y59548D01*
X-55513Y59243D01*
Y58786D01*
X-55665Y58481D01*
X-55970Y58329D01*
X-55665Y58176D01*
X-55361Y57872D01*
X-55208Y57567D01*
Y57110D01*
X-55361Y56805D01*
X-55513Y56653D01*
X-55970Y56501D01*
X-56580D01*
X-57037Y56653D01*
X-57189Y56805D01*
X-57341Y57110D01*
Y57262D01*
X-57189Y57415D01*
X-57037Y57262D01*
X-57189Y57110D01*
X-55513Y58024D02*
X-55361Y57567D01*
Y57110D01*
X-55513Y56805D01*
X-55665Y56653D01*
X-55970Y56501D01*
X-55852Y-59091D02*
X-56005Y-58938D01*
X-55852Y-58786D01*
X-55700Y-58938D01*
Y-59091D01*
X-55852Y-59395D01*
X-56005Y-59548D01*
X-56462Y-59700D01*
X-57071D01*
X-57528Y-59548D01*
X-57680Y-59243D01*
Y-58786D01*
X-57528Y-58481D01*
X-57071Y-58329D01*
X-56614D01*
X-57071Y-59700D02*
X-57376Y-59548D01*
X-57528Y-59243D01*
Y-58786D01*
X-57376Y-58481D01*
X-57071Y-58329D01*
X-57376Y-58176D01*
X-57680Y-57872D01*
X-57833Y-57567D01*
Y-57110D01*
X-57680Y-56805D01*
X-57528Y-56653D01*
X-57071Y-56501D01*
X-56462D01*
X-56005Y-56653D01*
X-55852Y-56805D01*
X-55700Y-57110D01*
Y-57262D01*
X-55852Y-57415D01*
X-56005Y-57262D01*
X-55852Y-57110D01*
X-57528Y-58024D02*
X-57680Y-57567D01*
Y-57110D01*
X-57528Y-56805D01*
X-57376Y-56653D01*
X-57071Y-56501D01*
X-58610Y-59700D02*
X-59676Y-56501D01*
X-58762Y-59700D02*
X-59676Y-56958D01*
X-60743Y-59700D02*
X-59676Y-56501D01*
X-58305Y-59700D02*
X-59219D01*
X-60133D02*
X-61047D01*
X-61611Y-59091D02*
X-61764Y-58938D01*
X-61611Y-58786D01*
X-61459Y-58938D01*
Y-59091D01*
X-61611Y-59395D01*
X-61764Y-59548D01*
X-62221Y-59700D01*
X-62830D01*
X-63287Y-59548D01*
X-63439Y-59243D01*
Y-58786D01*
X-63287Y-58481D01*
X-62830Y-58329D01*
X-62373D01*
X-62830Y-59700D02*
X-63135Y-59548D01*
X-63287Y-59243D01*
Y-58786D01*
X-63135Y-58481D01*
X-62830Y-58329D01*
X-63135Y-58176D01*
X-63439Y-57872D01*
X-63592Y-57567D01*
Y-57110D01*
X-63439Y-56805D01*
X-63287Y-56653D01*
X-62830Y-56501D01*
X-62221D01*
X-61764Y-56653D01*
X-61611Y-56805D01*
X-61459Y-57110D01*
Y-57262D01*
X-61611Y-57415D01*
X-61764Y-57262D01*
X-61611Y-57110D01*
X-63287Y-58024D02*
X-63439Y-57567D01*
Y-57110D01*
X-63287Y-56805D01*
X-63135Y-56653D01*
X-62830Y-56501D01*
X-108948Y-30909D02*
X-108795Y-31062D01*
X-108948Y-31214D01*
X-109100Y-31062D01*
Y-30909D01*
X-108948Y-30605D01*
X-108795Y-30452D01*
X-108338Y-30300D01*
X-107729D01*
X-107272Y-30452D01*
X-107120Y-30757D01*
Y-31214D01*
X-107272Y-31519D01*
X-107729Y-31671D01*
X-108186D01*
X-107729Y-30300D02*
X-107424Y-30452D01*
X-107272Y-30757D01*
Y-31214D01*
X-107424Y-31519D01*
X-107729Y-31671D01*
X-107424Y-31824D01*
X-107120Y-32128D01*
X-106967Y-32433D01*
Y-32890D01*
X-107120Y-33195D01*
X-107272Y-33347D01*
X-107729Y-33499D01*
X-108338D01*
X-108795Y-33347D01*
X-108948Y-33195D01*
X-109100Y-32890D01*
Y-32738D01*
X-108948Y-32585D01*
X-108795Y-32738D01*
X-108948Y-32890D01*
X-107272Y-31976D02*
X-107120Y-32433D01*
Y-32890D01*
X-107272Y-33195D01*
X-107424Y-33347D01*
X-107729Y-33499D01*
X-106190Y-30300D02*
X-105124Y-33499D01*
X-106038Y-30300D02*
X-105124Y-33042D01*
X-104057Y-30300D02*
X-105124Y-33499D01*
X-106495Y-30300D02*
X-105581D01*
X-104667D02*
X-103753D01*
X-103189Y-30909D02*
X-103036Y-31062D01*
X-103189Y-31214D01*
X-103341Y-31062D01*
Y-30909D01*
X-103189Y-30605D01*
X-103036Y-30452D01*
X-102579Y-30300D01*
X-101970D01*
X-101513Y-30452D01*
X-101361Y-30757D01*
Y-31214D01*
X-101513Y-31519D01*
X-101970Y-31671D01*
X-102427D01*
X-101970Y-30300D02*
X-101665Y-30452D01*
X-101513Y-30757D01*
Y-31214D01*
X-101665Y-31519D01*
X-101970Y-31671D01*
X-101665Y-31824D01*
X-101361Y-32128D01*
X-101208Y-32433D01*
Y-32890D01*
X-101361Y-33195D01*
X-101513Y-33347D01*
X-101970Y-33499D01*
X-102579D01*
X-103036Y-33347D01*
X-103189Y-33195D01*
X-103341Y-32890D01*
Y-32738D01*
X-103189Y-32585D01*
X-103036Y-32738D01*
X-103189Y-32890D01*
X-101513Y-31976D02*
X-101361Y-32433D01*
Y-32890D01*
X-101513Y-33195D01*
X-101665Y-33347D01*
X-101970Y-33499D01*
X-108491Y26452D02*
X-108338Y26605D01*
X-108186Y26452D01*
X-108338Y26300D01*
X-108491D01*
X-108795Y26452D01*
X-108948Y26605D01*
X-109100Y27062D01*
Y27671D01*
X-108948Y28128D01*
X-108643Y28280D01*
X-108186D01*
X-107881Y28128D01*
X-107729Y27671D01*
Y27214D01*
X-109100Y27671D02*
X-108948Y27976D01*
X-108643Y28128D01*
X-108186D01*
X-107881Y27976D01*
X-107729Y27671D01*
X-107577Y27976D01*
X-107272Y28280D01*
X-106967Y28433D01*
X-106510D01*
X-106205Y28280D01*
X-106053Y28128D01*
X-105901Y27671D01*
Y27062D01*
X-106053Y26605D01*
X-106205Y26452D01*
X-106510Y26300D01*
X-106662D01*
X-106815Y26452D01*
X-106662Y26605D01*
X-106510Y26452D01*
X-107424Y28128D02*
X-106967Y28280D01*
X-106510D01*
X-106205Y28128D01*
X-106053Y27976D01*
X-105901Y27671D01*
X-109100Y29210D02*
X-105901Y30276D01*
X-109100Y29362D02*
X-106358Y30276D01*
X-109100Y31343D02*
X-105901Y30276D01*
X-109100Y28905D02*
Y29819D01*
Y30733D02*
Y31647D01*
X-108491Y32211D02*
X-108338Y32364D01*
X-108186Y32211D01*
X-108338Y32059D01*
X-108491D01*
X-108795Y32211D01*
X-108948Y32364D01*
X-109100Y32820D01*
Y33430D01*
X-108948Y33887D01*
X-108643Y34039D01*
X-108186D01*
X-107881Y33887D01*
X-107729Y33430D01*
Y32973D01*
X-109100Y33430D02*
X-108948Y33735D01*
X-108643Y33887D01*
X-108186D01*
X-107881Y33735D01*
X-107729Y33430D01*
X-107577Y33735D01*
X-107272Y34039D01*
X-106967Y34192D01*
X-106510D01*
X-106205Y34039D01*
X-106053Y33887D01*
X-105901Y33430D01*
Y32820D01*
X-106053Y32364D01*
X-106205Y32211D01*
X-106510Y32059D01*
X-106662D01*
X-106815Y32211D01*
X-106662Y32364D01*
X-106510Y32211D01*
X-107424Y33887D02*
X-106967Y34039D01*
X-106510D01*
X-106205Y33887D01*
X-106053Y33735D01*
X-105901Y33430D01*
D15*
X37489Y40396D02*
X41425D01*
X39457Y42364D02*
Y38428D01*
M02*
