G04*
G04 #@! TF.GenerationSoftware,Altium Limited,Altium Designer,25.8.1 (18)*
G04*
G04 Layer_Color=8421504*
%FSLAX25Y25*%
%MOIN*%
G70*
G04*
G04 #@! TF.SameCoordinates,CA0B9550-AE98-4C71-85A6-844D78770B91*
G04*
G04*
G04 #@! TF.FilePolarity,Positive*
G04*
G01*
G75*
%ADD16R,0.05550X0.01400*%
%ADD17R,0.03197X0.02985*%
%ADD18R,0.03543X0.03150*%
%ADD19R,0.02985X0.03197*%
%ADD20R,0.03740X0.03150*%
%ADD21R,0.03150X0.03150*%
%ADD22R,0.04355X0.02977*%
%ADD23R,0.02977X0.04355*%
%ADD24R,0.02756X0.02756*%
%ADD25R,0.08898X0.08504*%
%ADD26R,0.04749X0.03765*%
%ADD27R,0.03543X0.02953*%
%ADD28R,0.04748X0.04166*%
G04:AMPARAMS|DCode=29|XSize=39.37mil|YSize=39.37mil|CornerRadius=19.68mil|HoleSize=0mil|Usage=FLASHONLY|Rotation=150.000|XOffset=0mil|YOffset=0mil|HoleType=Round|Shape=RoundedRectangle|*
%AMROUNDEDRECTD29*
21,1,0.03937,0.00000,0,0,150.0*
21,1,0.00000,0.03937,0,0,150.0*
1,1,0.03937,0.00000,0.00000*
1,1,0.03937,0.00000,0.00000*
1,1,0.03937,0.00000,0.00000*
1,1,0.03937,0.00000,0.00000*
%
%ADD29ROUNDEDRECTD29*%
G04:AMPARAMS|DCode=30|XSize=39.37mil|YSize=39.37mil|CornerRadius=19.68mil|HoleSize=0mil|Usage=FLASHONLY|Rotation=90.000|XOffset=0mil|YOffset=0mil|HoleType=Round|Shape=RoundedRectangle|*
%AMROUNDEDRECTD30*
21,1,0.03937,0.00000,0,0,90.0*
21,1,0.00000,0.03937,0,0,90.0*
1,1,0.03937,0.00000,0.00000*
1,1,0.03937,0.00000,0.00000*
1,1,0.03937,0.00000,0.00000*
1,1,0.03937,0.00000,0.00000*
%
%ADD30ROUNDEDRECTD30*%
G04:AMPARAMS|DCode=31|XSize=39.37mil|YSize=39.37mil|CornerRadius=19.68mil|HoleSize=0mil|Usage=FLASHONLY|Rotation=210.000|XOffset=0mil|YOffset=0mil|HoleType=Round|Shape=RoundedRectangle|*
%AMROUNDEDRECTD31*
21,1,0.03937,0.00000,0,0,210.0*
21,1,0.00000,0.03937,0,0,210.0*
1,1,0.03937,0.00000,0.00000*
1,1,0.03937,0.00000,0.00000*
1,1,0.03937,0.00000,0.00000*
1,1,0.03937,0.00000,0.00000*
%
%ADD31ROUNDEDRECTD31*%
G36*
X64455Y2479D02*
X59143D01*
Y6991D01*
X64455D01*
Y2479D01*
D02*
G37*
G36*
X58355D02*
X53043D01*
Y6991D01*
X58355D01*
Y2479D01*
D02*
G37*
G36*
X64455Y-2821D02*
X59143D01*
Y1691D01*
X64455D01*
Y-2821D01*
D02*
G37*
G36*
X58355D02*
X53043D01*
Y1691D01*
X58355D01*
Y-2821D01*
D02*
G37*
G36*
X64455Y-8121D02*
X59143D01*
Y-3609D01*
X64455D01*
Y-8121D01*
D02*
G37*
G36*
X58355D02*
X53043D01*
Y-3609D01*
X58355D01*
Y-8121D01*
D02*
G37*
D16*
X70374Y-1844D02*
D03*
Y-4403D02*
D03*
Y3274D02*
D03*
Y715D02*
D03*
Y8392D02*
D03*
Y5833D02*
D03*
Y-6962D02*
D03*
Y-9521D02*
D03*
X47124Y3274D02*
D03*
Y715D02*
D03*
Y16069D02*
D03*
X70374Y-14639D02*
D03*
X47124Y-6962D02*
D03*
Y-12080D02*
D03*
Y10951D02*
D03*
X70374Y-17198D02*
D03*
X47124Y13510D02*
D03*
Y8392D02*
D03*
Y5833D02*
D03*
Y-1844D02*
D03*
Y-4403D02*
D03*
Y-9521D02*
D03*
Y-14639D02*
D03*
Y-17198D02*
D03*
X70374Y13510D02*
D03*
Y-12080D02*
D03*
Y10951D02*
D03*
Y16069D02*
D03*
D17*
X-58388Y42214D02*
D03*
Y37277D02*
D03*
X-11824Y-29689D02*
D03*
X-20175Y-29599D02*
D03*
X-29941Y-29801D02*
D03*
Y-24864D02*
D03*
X-20175Y-24661D02*
D03*
X-11824Y-24752D02*
D03*
X-68306Y37105D02*
D03*
Y42042D02*
D03*
D18*
X41847Y23933D02*
D03*
Y19012D02*
D03*
D19*
X-28854Y24642D02*
D03*
X13942Y17883D02*
D03*
X-103092Y2822D02*
D03*
X35937Y40223D02*
D03*
X31000D02*
D03*
X19737Y-27559D02*
D03*
X14800D02*
D03*
X19737Y-35764D02*
D03*
X14800D02*
D03*
X-98155Y2822D02*
D03*
X-102691Y-5658D02*
D03*
X-97754D02*
D03*
X-28960Y32950D02*
D03*
X-24023D02*
D03*
X-23917Y24642D02*
D03*
X18879Y17883D02*
D03*
D20*
X-32329Y2578D02*
D03*
Y-2343D02*
D03*
D21*
X-38543Y-3097D02*
D03*
Y2809D02*
D03*
D22*
X84631Y-15772D02*
D03*
Y-23055D02*
D03*
D23*
X84746Y14900D02*
D03*
X77463D02*
D03*
D24*
X91260Y-17537D02*
D03*
Y-23048D02*
D03*
D25*
X62148Y-45040D02*
D03*
Y-25749D02*
D03*
D26*
X75480Y-21248D02*
D03*
Y-29319D02*
D03*
D27*
X41352Y-22449D02*
D03*
Y-17724D02*
D03*
D28*
X24397Y-65D02*
D03*
X30704D02*
D03*
X32739Y-8134D02*
D03*
X26432D02*
D03*
D29*
X-116326Y32520D02*
D03*
X114449Y-32520D02*
D03*
X-116339Y0D02*
D03*
D30*
X-60000Y65039D02*
D03*
X58110Y-65039D02*
D03*
X-661Y30520D02*
D03*
X58110Y65039D02*
D03*
X-661Y-30520D02*
D03*
X-60000Y-65039D02*
D03*
X-31850Y-48780D02*
D03*
X-88150Y48780D02*
D03*
D31*
X-116326Y-32520D02*
D03*
X114449Y32520D02*
D03*
X-88150Y-48780D02*
D03*
X-31850Y48780D02*
D03*
M02*
