G04*
G04 #@! TF.GenerationSoftware,Altium Limited,Altium Designer,25.8.1 (18)*
G04*
G04 Layer_Physical_Order=2*
G04 Layer_Color=16711680*
%FSLAX25Y25*%
%MOIN*%
G70*
G04*
G04 #@! TF.SameCoordinates,CA0B9550-AE98-4C71-85A6-844D78770B91*
G04*
G04*
G04 #@! TF.FilePolarity,Positive*
G04*
G01*
G75*
%ADD13C,0.01000*%
G04:AMPARAMS|DCode=29|XSize=39.37mil|YSize=39.37mil|CornerRadius=19.68mil|HoleSize=0mil|Usage=FLASHONLY|Rotation=150.000|XOffset=0mil|YOffset=0mil|HoleType=Round|Shape=RoundedRectangle|*
%AMROUNDEDRECTD29*
21,1,0.03937,0.00000,0,0,150.0*
21,1,0.00000,0.03937,0,0,150.0*
1,1,0.03937,0.00000,0.00000*
1,1,0.03937,0.00000,0.00000*
1,1,0.03937,0.00000,0.00000*
1,1,0.03937,0.00000,0.00000*
%
%ADD29ROUNDEDRECTD29*%
G04:AMPARAMS|DCode=30|XSize=39.37mil|YSize=39.37mil|CornerRadius=19.68mil|HoleSize=0mil|Usage=FLASHONLY|Rotation=90.000|XOffset=0mil|YOffset=0mil|HoleType=Round|Shape=RoundedRectangle|*
%AMROUNDEDRECTD30*
21,1,0.03937,0.00000,0,0,90.0*
21,1,0.00000,0.03937,0,0,90.0*
1,1,0.03937,0.00000,0.00000*
1,1,0.03937,0.00000,0.00000*
1,1,0.03937,0.00000,0.00000*
1,1,0.03937,0.00000,0.00000*
%
%ADD30ROUNDEDRECTD30*%
G04:AMPARAMS|DCode=31|XSize=39.37mil|YSize=39.37mil|CornerRadius=19.68mil|HoleSize=0mil|Usage=FLASHONLY|Rotation=210.000|XOffset=0mil|YOffset=0mil|HoleType=Round|Shape=RoundedRectangle|*
%AMROUNDEDRECTD31*
21,1,0.03937,0.00000,0,0,210.0*
21,1,0.00000,0.03937,0,0,210.0*
1,1,0.03937,0.00000,0.00000*
1,1,0.03937,0.00000,0.00000*
1,1,0.03937,0.00000,0.00000*
1,1,0.03937,0.00000,0.00000*
%
%ADD31ROUNDEDRECTD31*%
%ADD41R,0.05984X0.05984*%
%ADD42C,0.05984*%
%ADD48R,0.05984X0.05984*%
%ADD49C,0.06181*%
%ADD50R,0.06181X0.06181*%
%ADD54C,0.06102*%
%ADD55R,0.06102X0.06102*%
%ADD56R,0.06102X0.06102*%
%ADD57C,0.05512*%
%ADD58R,0.05512X0.05512*%
%ADD59C,0.06299*%
%ADD60R,0.06299X0.06299*%
%ADD61C,0.01968*%
%ADD62R,0.01575X0.07480*%
%ADD63R,0.03504X0.02520*%
%ADD64R,0.03150X0.03740*%
%ADD65R,0.01968X0.03543*%
%ADD66R,0.22441X0.22441*%
%ADD67R,0.01181X0.03347*%
%ADD68R,0.03347X0.01181*%
%ADD69R,0.02362X0.03150*%
%ADD70R,0.05500X0.04300*%
G36*
X-119236Y-26394D02*
X-118547Y-26377D01*
X-117186Y-26589D01*
X-115885Y-27040D01*
X-114684Y-27714D01*
X-113622Y-28592D01*
X-112733Y-29644D01*
X-112046Y-30838D01*
X-111582Y-32135D01*
X-111356Y-33493D01*
X-111375Y-34871D01*
X-111639Y-36222D01*
X-112139Y-37506D01*
X-112499Y-38093D01*
Y-38093D01*
X-119244Y-34199D01*
X-119236Y-26394D01*
D02*
G37*
G36*
X-98984Y-45906D02*
X-98566Y-45152D01*
X-97502Y-43794D01*
X-96236Y-42621D01*
X-94802Y-41664D01*
X-93233Y-40946D01*
X-91571Y-40485D01*
X-89857Y-40293D01*
X-88134Y-40374D01*
X-86446Y-40727D01*
X-84834Y-41343D01*
X-83341Y-42206D01*
X-82003Y-43294D01*
X-80853Y-44581D01*
X-79922Y-46033D01*
X-79233Y-47614D01*
X-78802Y-49284D01*
X-78641Y-51001D01*
X-78754Y-52723D01*
X-79137Y-54404D01*
X-79782Y-56004D01*
X-80227Y-56743D01*
Y-56743D01*
X-98984Y-45906D01*
D02*
G37*
G36*
X-66760Y-64496D02*
X-66430Y-63891D01*
X-65566Y-62818D01*
X-64526Y-61917D01*
X-63341Y-61214D01*
X-62050Y-60733D01*
X-60694Y-60490D01*
X-59317Y-60492D01*
X-57962Y-60738D01*
X-56672Y-61222D01*
X-55489Y-61927D01*
X-54450Y-62831D01*
X-53589Y-63906D01*
X-53260Y-64512D01*
X-53260D01*
X-60005Y-68406D01*
X-66760Y-64496D01*
D02*
G37*
G36*
X-39756Y-56725D02*
X-40200Y-55986D01*
X-40844Y-54386D01*
X-41227Y-52704D01*
X-41338Y-50983D01*
X-41176Y-49265D01*
X-40745Y-47595D01*
X-40054Y-46015D01*
X-39122Y-44563D01*
X-37972Y-43277D01*
X-36633Y-42190D01*
X-35139Y-41328D01*
X-33527Y-40713D01*
X-31839Y-40361D01*
X-30116Y-40281D01*
X-28401Y-40474D01*
X-26739Y-40936D01*
X-25172Y-41655D01*
X-23737Y-42614D01*
X-22473Y-43787D01*
X-21410Y-45145D01*
X-20992Y-45900D01*
D01*
X-39756Y-56725D01*
D02*
G37*
G36*
X-119267Y10819D02*
X-118405Y10835D01*
X-116697Y10592D01*
X-115049Y10082D01*
X-113502Y9318D01*
X-112096Y8319D01*
X-110866Y7111D01*
X-109842Y5722D01*
X-109051Y4189D01*
X-108513Y2550D01*
X-108240Y847D01*
X-108241Y-878D01*
X-108514Y-2581D01*
X-109054Y-4219D01*
X-109846Y-5752D01*
X-110870Y-7140D01*
X-112101Y-8348D01*
X-113508Y-9346D01*
X-115055Y-10109D01*
X-116703Y-10617D01*
X-118411Y-10859D01*
X-119274Y-10843D01*
Y-10843D01*
X-119267Y10819D01*
D02*
G37*
G36*
X-112476Y38103D02*
X-112117Y37515D01*
X-111620Y36230D01*
X-111359Y34878D01*
X-111343Y33501D01*
X-111572Y32142D01*
X-112039Y30847D01*
X-112729Y29655D01*
X-113620Y28604D01*
X-114684Y27729D01*
X-115886Y27057D01*
X-117189Y26610D01*
X-118551Y26401D01*
X-119239Y26420D01*
X-119239Y26420D01*
Y34208D01*
X-112476Y38103D01*
D02*
G37*
G36*
X-80244Y56725D02*
X-79800Y55986D01*
X-79156Y54386D01*
X-78773Y52704D01*
X-78662Y50983D01*
X-78824Y49265D01*
X-79256Y47595D01*
X-79946Y46015D01*
X-80878Y44563D01*
X-82028Y43277D01*
X-83367Y42190D01*
X-84861Y41328D01*
X-86473Y40713D01*
X-88161Y40361D01*
X-89885Y40281D01*
X-91599Y40474D01*
X-93261Y40936D01*
X-94828Y41655D01*
X-96263Y42614D01*
X-97527Y43787D01*
X-98590Y45145D01*
X-99007Y45900D01*
X-99007Y45900D01*
X-80244Y56725D01*
D02*
G37*
G36*
X-53240Y64496D02*
X-53570Y63891D01*
X-54434Y62818D01*
X-55475Y61916D01*
X-56659Y61214D01*
X-57950Y60733D01*
X-59306Y60490D01*
X-60683Y60491D01*
X-62038Y60738D01*
X-63328Y61222D01*
X-64511Y61927D01*
X-65550Y62831D01*
X-66411Y63906D01*
X-66739Y64512D01*
X-66739Y64512D01*
X-59995Y68406D01*
X-53240Y64496D01*
D02*
G37*
G36*
X-21016Y45906D02*
X-21434Y45152D01*
X-22498Y43794D01*
X-23764Y42621D01*
X-25198Y41664D01*
X-26767Y40946D01*
X-28429Y40485D01*
X-30143Y40293D01*
X-31866Y40374D01*
X-33554Y40727D01*
X-35166Y41343D01*
X-36659Y42206D01*
X-37997Y43294D01*
X-39147Y44581D01*
X-40078Y46033D01*
X-40767Y47614D01*
X-41198Y49284D01*
X-41359Y51001D01*
X-41246Y52723D01*
X-40863Y54404D01*
X-40218Y56004D01*
X-39773Y56743D01*
X-39773D01*
X-21016Y45906D01*
D02*
G37*
G36*
X64870Y64496D02*
X64540Y63891D01*
X63676Y62818D01*
X62635Y61916D01*
X61451Y61214D01*
X60160Y60733D01*
X58804Y60490D01*
X57427Y60491D01*
X56072Y60738D01*
X54782Y61222D01*
X53599Y61927D01*
X52560Y62831D01*
X51699Y63906D01*
X51371Y64512D01*
X51371Y64512D01*
X58115Y68406D01*
X64870Y64496D01*
D02*
G37*
G36*
X99054Y40239D02*
Y-43095D01*
X45059D01*
X44292Y-42095D01*
X44374Y-41786D01*
Y-40694D01*
X44092Y-39638D01*
X43545Y-38692D01*
X42773Y-37919D01*
X41827Y-37373D01*
X40771Y-37090D01*
X39679D01*
X38623Y-37373D01*
X37677Y-37919D01*
X36904Y-38692D01*
X36358Y-39638D01*
X36075Y-40694D01*
Y-41786D01*
X36158Y-42095D01*
X35391Y-43095D01*
X33853D01*
X33273Y-42095D01*
X33390Y-41657D01*
Y-40823D01*
X33174Y-40018D01*
X32758Y-39296D01*
X32168Y-38707D01*
X31447Y-38290D01*
X30642Y-38074D01*
X29808D01*
X29003Y-38290D01*
X28281Y-38707D01*
X27692Y-39296D01*
X27275Y-40018D01*
X27060Y-40823D01*
Y-41657D01*
X27177Y-42095D01*
X26597Y-43095D01*
X17805D01*
X17079Y-42432D01*
Y-31758D01*
X18003Y-31375D01*
X22746Y-36118D01*
Y-36334D01*
X23048Y-37063D01*
X23607Y-37622D01*
X24336Y-37924D01*
X25125D01*
X25855Y-37622D01*
X26413Y-37063D01*
X26715Y-36334D01*
Y-35545D01*
X26413Y-34815D01*
X25855Y-34257D01*
X25125Y-33955D01*
X24909D01*
X17079Y-26125D01*
Y-5750D01*
X22872Y43D01*
X23204Y539D01*
X23320Y1124D01*
Y7844D01*
X33635Y18159D01*
X33851D01*
X34581Y18461D01*
X35139Y19019D01*
X35441Y19748D01*
Y20538D01*
X35139Y21267D01*
X34581Y21825D01*
X33851Y22127D01*
X33062D01*
X32333Y21825D01*
X31775Y21267D01*
X31472Y20538D01*
Y20322D01*
X20709Y9559D01*
X20378Y9063D01*
X20261Y8477D01*
Y1758D01*
X18003Y-501D01*
X17079Y-118D01*
Y33786D01*
X17415Y33925D01*
X17568Y34078D01*
X27160D01*
X32014Y29224D01*
Y29008D01*
X32316Y28278D01*
X32875Y27720D01*
X33604Y27418D01*
X34393D01*
X35122Y27720D01*
X35681Y28278D01*
X35983Y29008D01*
Y29797D01*
X35681Y30526D01*
X35122Y31084D01*
X34393Y31387D01*
X34177D01*
X28875Y36689D01*
X28379Y37020D01*
X27793Y37137D01*
X17568D01*
X17415Y37290D01*
X17079Y37429D01*
Y40701D01*
X38958Y40790D01*
X39342Y39867D01*
X38683Y39208D01*
X38351Y38711D01*
X38235Y38126D01*
Y31931D01*
X38082Y31778D01*
X37824Y31154D01*
X41705D01*
X41446Y31778D01*
X41293Y31931D01*
Y37493D01*
X44614Y40813D01*
X48968Y40831D01*
X49677Y40125D01*
Y36641D01*
X57189D01*
Y40864D01*
X68369Y40910D01*
X69362Y39914D01*
Y39903D01*
X69618Y38948D01*
X70112Y38091D01*
X70812Y37392D01*
X71668Y36897D01*
X72623Y36641D01*
X73612D01*
X74568Y36897D01*
X75424Y37392D01*
X76123Y38091D01*
X76618Y38948D01*
X76874Y39903D01*
Y40892D01*
X76914Y40945D01*
X98259Y41031D01*
X99054Y40239D01*
D02*
G37*
G36*
X-945Y34321D02*
X5621Y38103D01*
X5980Y37515D01*
X6477Y36230D01*
X6738Y34878D01*
X6754Y33501D01*
X6525Y32142D01*
X6058Y30847D01*
X5368Y29655D01*
X4477Y28604D01*
X3413Y27729D01*
X2211Y27057D01*
X908Y26610D01*
X-454Y26401D01*
X-945Y26414D01*
X-1436Y26401D01*
X-2798Y26610D01*
X-4101Y27057D01*
X-5303Y27729D01*
X-6367Y28604D01*
X-7258Y29655D01*
X-7948Y30847D01*
X-8415Y32142D01*
X-8644Y33501D01*
X-8628Y34878D01*
X-8367Y36230D01*
X-7870Y37515D01*
X-7511Y38103D01*
Y38103D01*
X-945Y34321D01*
D02*
G37*
G36*
X117367Y34199D02*
X117359Y26394D01*
X116670Y26377D01*
X115309Y26589D01*
X114008Y27040D01*
X112807Y27714D01*
X111745Y28592D01*
X110856Y29644D01*
X110169Y30838D01*
X109705Y32135D01*
X109479Y33493D01*
X109498Y34871D01*
X109762Y36222D01*
X110262Y37506D01*
X110623Y38093D01*
X110623D01*
X117367Y34199D01*
D02*
G37*
G36*
X908Y-26610D02*
X2211Y-27057D01*
X3413Y-27729D01*
X4477Y-28604D01*
X5368Y-29655D01*
X6058Y-30847D01*
X6525Y-32142D01*
X6754Y-33501D01*
X6738Y-34878D01*
X6477Y-36230D01*
X5980Y-37515D01*
X5621Y-38103D01*
X-945Y-34321D01*
X-7511Y-38103D01*
X-7870Y-37515D01*
X-8367Y-36230D01*
X-8628Y-34878D01*
X-8644Y-33501D01*
X-8415Y-32142D01*
X-7948Y-30847D01*
X-7258Y-29655D01*
X-6367Y-28604D01*
X-5303Y-27729D01*
X-4101Y-27057D01*
X-2798Y-26610D01*
X-1436Y-26401D01*
X-945Y-26414D01*
X-454Y-26401D01*
X908Y-26610D01*
D02*
G37*
G36*
X117362Y-26420D02*
X117362D01*
Y-34208D01*
X110599Y-38103D01*
X110240Y-37515D01*
X109743Y-36230D01*
X109482Y-34878D01*
X109466Y-33501D01*
X109695Y-32142D01*
X110162Y-30847D01*
X110852Y-29655D01*
X111743Y-28604D01*
X112807Y-27729D01*
X114009Y-27057D01*
X115312Y-26610D01*
X116674Y-26401D01*
X117362Y-26420D01*
D02*
G37*
G36*
X5621Y-38103D02*
X5621D01*
D01*
X5621D01*
D02*
G37*
G36*
X58793Y-60492D02*
X60148Y-60738D01*
X61438Y-61222D01*
X62621Y-61927D01*
X63660Y-62831D01*
X64521Y-63906D01*
X64850Y-64512D01*
X64850D01*
X58105Y-68406D01*
X51350Y-64496D01*
X51680Y-63891D01*
X52544Y-62818D01*
X53584Y-61917D01*
X54769Y-61214D01*
X56060Y-60733D01*
X57416Y-60490D01*
X58793Y-60492D01*
D02*
G37*
%LPC*%
G36*
X41705Y30154D02*
X40264D01*
Y28713D01*
X40888Y28972D01*
X41446Y29530D01*
X41705Y30154D01*
D02*
G37*
G36*
X39264D02*
X37824D01*
X38082Y29530D01*
X38640Y28972D01*
X39264Y28713D01*
Y30154D01*
D02*
G37*
G36*
X54140Y6742D02*
X53516Y6484D01*
X52958Y5926D01*
X52699Y5302D01*
X54140D01*
Y6742D01*
D02*
G37*
G36*
X62289Y6623D02*
Y5183D01*
X63729D01*
X63471Y5807D01*
X62913Y6365D01*
X62289Y6623D01*
D02*
G37*
G36*
X59012Y6742D02*
Y4802D01*
X58012D01*
Y6742D01*
X57388Y6484D01*
X57229Y6325D01*
X56576Y6038D01*
X55923Y6325D01*
X55764Y6484D01*
X55140Y6742D01*
Y4802D01*
X54640D01*
Y4302D01*
X52699D01*
X52958Y3678D01*
X53331Y3305D01*
X53492Y2893D01*
X53405Y2083D01*
X53137Y1815D01*
X52878Y1192D01*
X54819D01*
Y192D01*
X52878D01*
X53137Y-433D01*
X53175Y-471D01*
X53403Y-1380D01*
X53135Y-1737D01*
X52862Y-2009D01*
X52604Y-2633D01*
X54544D01*
Y-3633D01*
X52604D01*
X52862Y-4257D01*
X53329Y-4910D01*
X52781Y-5482D01*
X52522Y-6106D01*
X54463D01*
Y-6605D01*
X54963D01*
Y-8546D01*
X55587Y-8288D01*
X55832Y-8043D01*
X56221Y-7752D01*
X57109Y-8014D01*
X57138Y-8043D01*
X57762Y-8301D01*
Y-6360D01*
X58762D01*
Y-8301D01*
X59386Y-8043D01*
X60039Y-7576D01*
X60610Y-8124D01*
X61234Y-8383D01*
Y-6442D01*
X61734D01*
Y-5942D01*
X63675D01*
X63524Y-5577D01*
X63417Y-5316D01*
X63654Y-4142D01*
X63702Y-4094D01*
X63961Y-3470D01*
X62020D01*
Y-2470D01*
X63961D01*
X63702Y-1846D01*
X63533Y-1677D01*
X63179Y-1206D01*
X63530Y-373D01*
X63789Y251D01*
X61848D01*
Y1251D01*
X63789D01*
X63530Y1875D01*
X63312Y2093D01*
X63055Y2677D01*
X63294Y3382D01*
X63471Y3559D01*
X63729Y4183D01*
X61789D01*
Y4683D01*
X61289D01*
Y6623D01*
X60665Y6365D01*
X59636Y6484D01*
X59012Y6742D01*
D02*
G37*
G36*
X63675Y-6942D02*
X62234D01*
Y-8383D01*
X62858Y-8124D01*
X63416Y-7566D01*
X63675Y-6942D01*
D02*
G37*
G36*
X53963Y-7106D02*
X52522D01*
X52781Y-7729D01*
X53339Y-8288D01*
X53963Y-8546D01*
Y-7106D01*
D02*
G37*
G36*
X30642Y-28074D02*
X29808D01*
X29003Y-28290D01*
X28281Y-28707D01*
X27692Y-29296D01*
X27275Y-30018D01*
X27060Y-30823D01*
Y-31657D01*
X27275Y-32462D01*
X27692Y-33184D01*
X28281Y-33773D01*
X29003Y-34190D01*
X29808Y-34405D01*
X30642D01*
X31447Y-34190D01*
X32168Y-33773D01*
X32758Y-33184D01*
X33174Y-32462D01*
X33390Y-31657D01*
Y-30823D01*
X33174Y-30018D01*
X32758Y-29296D01*
X32168Y-28707D01*
X31447Y-28290D01*
X30642Y-28074D01*
D02*
G37*
G36*
X44374Y-27090D02*
X36075D01*
Y-35390D01*
X44374D01*
Y-27090D01*
D02*
G37*
%LPD*%
D13*
X-13004Y28520D02*
G03*
X-11802Y29378I-1973J4036D01*
G01*
X-16949Y26592D02*
G03*
X-17582Y26215I1973J-4036D01*
G01*
X-83961Y31300D02*
X-72181D01*
X-70097Y29216D01*
X-88150Y35489D02*
X-83961Y31300D01*
X-88150Y35489D02*
Y48780D01*
X-72150Y37914D02*
X-65524Y31288D01*
X-84188Y37914D02*
X-72150D01*
X-48479Y16756D02*
X-47222Y18013D01*
X-42126D01*
X-43954Y21944D02*
X-43832Y21822D01*
X-47855Y21944D02*
X-43954D01*
X-50479Y19320D02*
X-47855Y21944D01*
X-50479Y15202D02*
Y19320D01*
X-50664Y15017D02*
X-50479Y15202D01*
X-50664Y13705D02*
Y15017D01*
Y13705D02*
X-50542Y13583D01*
X-62985Y62055D02*
X-60000Y65039D01*
X-62985Y40515D02*
Y62055D01*
Y40515D02*
X-55388Y32918D01*
Y29965D02*
Y32918D01*
X-54000Y40076D02*
Y52749D01*
Y40076D02*
X-46138Y32214D01*
X-45646D01*
X-52510Y15999D02*
X-52479Y16031D01*
Y18559D01*
X-52596Y18676D02*
X-52479Y18559D01*
X-52596Y18676D02*
Y20244D01*
X-46138Y26702D01*
X-45646D01*
X-54510Y15999D02*
Y16828D01*
X-54479Y16859D02*
Y17730D01*
X-54510Y16828D02*
X-54479Y16859D01*
X-55203Y18455D02*
X-54479Y17730D01*
X-56510Y15999D02*
Y16934D01*
X-60124Y20547D02*
X-56510Y16934D01*
X-55203Y18455D02*
Y22473D01*
X-50664Y27013D01*
Y29965D01*
X-60124Y29953D02*
X-60112Y29965D01*
X-60124Y20547D02*
Y29953D01*
X58110Y56472D02*
Y65039D01*
X39764Y38126D02*
X58110Y56472D01*
X39764Y30654D02*
Y38126D01*
X-661Y20991D02*
Y30520D01*
X-10660D02*
X-661D01*
X-11802Y29378D02*
X-10660Y30520D01*
X-16949Y26592D02*
X-13004Y28520D01*
X-28156Y18686D02*
X-17582Y26215D01*
X-28984Y18686D02*
X-28156Y18686D01*
X-28984Y17858D02*
Y18686D01*
X-661Y20991D02*
X5292Y15038D01*
X-9803Y-30520D02*
X-661D01*
X-14585Y-35303D02*
X-9803Y-30520D01*
X-60000Y58749D02*
X-54000Y52749D01*
X-60000Y58749D02*
Y65039D01*
X-116326Y32520D02*
X-111032D01*
X-116888Y31958D02*
X-116326Y32520D01*
X-111032D02*
X-106985Y28473D01*
X-116888Y30607D02*
Y31958D01*
X-117029Y30466D02*
X-116888Y30607D01*
X-117029Y18170D02*
Y30466D01*
X-105229Y28000D02*
X-97361D01*
X-105713Y27516D02*
X-105229Y28000D01*
X-105713Y27201D02*
Y27989D01*
X-106198Y28473D02*
X-105713Y27989D01*
X-106985Y28473D02*
X-106198D01*
X-31820Y8519D02*
X-28984Y17858D01*
X-78935Y-21370D02*
X-77861Y-20295D01*
X-109307Y10448D02*
X-105629D01*
X-117029Y18170D02*
X-109307Y10448D01*
X-105629D02*
X-105501Y10576D01*
X-77861Y-20295D02*
Y-20000D01*
X-79231Y-21370D02*
X-78935D01*
X-90381Y-32520D02*
X-79231Y-21370D01*
X-116326Y-32520D02*
X-90381D01*
X-44138Y10949D02*
X-35816Y19270D01*
Y36776D01*
X-31850Y17963D02*
Y48780D01*
X-40955Y8858D02*
X-31850Y17963D01*
X-34304Y-5706D02*
Y11816D01*
X-45817Y8858D02*
X-40955D01*
X-37365Y6964D02*
X-37035Y7294D01*
X-37365Y1990D02*
Y6964D01*
X-40339Y-984D02*
X-37365Y1990D01*
X-45817Y-984D02*
X-40339D01*
X-41154Y-12556D02*
X-34304Y-5706D01*
X-76167Y8827D02*
X-75399D01*
X-87228Y-2234D02*
X-76167Y8827D01*
X-89933Y-2234D02*
X-87228D01*
X-96197Y-8498D02*
X-89933Y-2234D01*
X-108186Y-8498D02*
X-96197D01*
X-80609Y7905D02*
X-77687Y10827D01*
X-72983D01*
X-108434Y7905D02*
X-80609D01*
X-116339Y0D02*
X-108434Y7905D01*
X-112820Y21184D02*
X-109781Y18146D01*
X-105713D01*
X-50542Y-15999D02*
X-50447Y-16094D01*
Y-17198D02*
Y-16094D01*
X-54572Y-17626D02*
Y-16031D01*
X-52447Y-18027D02*
Y-16922D01*
X-52542Y-16828D02*
X-52447Y-16922D01*
X-52542Y-16828D02*
Y-15999D01*
X-54447Y-19047D02*
Y-17751D01*
X-54572Y-17626D02*
X-54447Y-17751D01*
X-52447Y-18027D02*
X-48566Y-21908D01*
X-54447Y-19047D02*
X-49587Y-23908D01*
X-50447Y-17198D02*
X-48226Y-19420D01*
X-39605D01*
X-48566Y-21908D02*
X-28862D01*
X-56572Y-16124D02*
Y-16081D01*
X-56637Y-16189D02*
X-56572Y-16124D01*
X-56637Y-20652D02*
Y-16189D01*
Y-20652D02*
X-51381Y-25908D01*
X-49587Y-23908D02*
X12699D01*
X-37919Y-25908D02*
X-35690Y-28137D01*
X-51381Y-25908D02*
X-37919D01*
X-50858Y-36026D02*
X-43881Y-29048D01*
X-41225D01*
X12699Y-23908D02*
X24731Y-35939D01*
X-39605Y-19420D02*
X-28058Y-7872D01*
X-35690Y-37254D02*
Y-28137D01*
X-60353Y-23405D02*
Y-15999D01*
Y-23405D02*
X-57582Y-26175D01*
X21791Y8477D02*
X33457Y20143D01*
X21791Y1124D02*
Y8477D01*
X10310Y-10356D02*
X21791Y1124D01*
X-20184Y-10356D02*
X10310D01*
X-24589Y-14762D02*
X-20184Y-10356D01*
X-24589Y-17635D02*
Y-14762D01*
X-28862Y-21908D02*
X-24589Y-17635D01*
X-45087Y-17069D02*
X-40083D01*
X-48573Y-13583D02*
X-45087Y-17069D01*
X-40083D02*
X-22385Y630D01*
X-28058Y-7872D02*
X9281D01*
X-22385Y630D02*
X9281D01*
X-76655Y-953D02*
X-75399D01*
X-81906Y-6205D02*
X-76655Y-953D01*
X-81906Y-6913D02*
Y-6205D01*
X-87158Y-12165D02*
X-81906Y-6913D01*
X-68258Y-29215D02*
Y-15999D01*
Y-29215D02*
X-60858Y-36615D01*
X-91616Y-12165D02*
X-87158D01*
X-95380Y-15928D02*
X-91616Y-12165D01*
X-95380Y-28024D02*
Y-15928D01*
X-78618Y-5744D02*
X-75826Y-2953D01*
X-72983D01*
X-78618Y-13002D02*
Y-5744D01*
X-88150Y-37093D02*
X-77988Y-26930D01*
X-88150Y-48780D02*
Y-37093D01*
X-71865Y-15582D02*
X-70900Y-14617D01*
X-71865Y-18925D02*
Y-15582D01*
X-72939Y-20000D02*
X-71865Y-18925D01*
X-50858Y-36615D02*
Y-36026D01*
X-45185Y-48780D02*
X-31850D01*
X-56267Y-37698D02*
X-45185Y-48780D01*
X-56267Y-37698D02*
Y-34714D01*
X-62353Y-28628D02*
X-56267Y-34714D01*
X-62353Y-28628D02*
Y-13583D01*
X-52388Y14122D02*
Y15139D01*
X-52510Y14000D02*
X-52388Y14122D01*
X-52510Y13583D02*
Y14000D01*
X27793Y35607D02*
X33999Y29402D01*
X16291Y35607D02*
X27793D01*
X-59985Y17569D02*
X-58510Y16094D01*
Y16032D02*
Y16094D01*
X-72939Y-20295D02*
X-70858Y-22377D01*
Y-36615D02*
Y-22377D01*
X-105713Y18146D02*
X-100010D01*
X-98731Y19425D01*
X-98337D01*
X-97656Y20106D01*
Y20500D01*
X-92144D02*
X-91994Y20350D01*
X-85900D01*
X-86250Y28000D02*
X-85900Y27650D01*
X-92439Y28000D02*
X-86250D01*
X-85900Y20350D02*
X-77400D01*
X-85900Y27650D02*
X-77400D01*
X-73391D01*
X-72805Y27064D01*
Y26572D02*
Y27064D01*
Y26572D02*
X-71451Y25219D01*
X-70959D01*
X-60842Y17569D02*
X-59985D01*
X-62411Y19139D02*
X-60842Y17569D01*
X-62411Y19139D02*
Y22163D01*
X-65467Y25219D02*
X-62411Y22163D01*
X-65959Y25219D02*
X-65467D01*
X-65078Y16756D02*
X-64199Y15877D01*
Y14570D02*
Y15877D01*
X-65374Y16756D02*
X-65078D01*
X-70959Y25219D02*
X-65959D01*
X-70959Y19707D02*
X-65959D01*
X-76757D02*
X-70959D01*
X-77400Y20350D02*
X-76757Y19707D01*
X-65959Y17342D02*
X-65374Y16756D01*
X-65959Y17342D02*
Y19707D01*
D29*
X114449Y32520D02*
D03*
X-116326Y-32520D02*
D03*
X-116339Y0D02*
D03*
D30*
X-661Y30520D02*
D03*
X114449Y-32520D02*
D03*
X-661Y-30520D02*
D03*
X-116326Y32520D02*
D03*
X-31850Y-48780D02*
D03*
X-88150Y48780D02*
D03*
D31*
X58110Y65039D02*
D03*
Y-65039D02*
D03*
X-60000Y65039D02*
D03*
Y-65039D02*
D03*
X-88150Y-48780D02*
D03*
X-31850Y48780D02*
D03*
D41*
X-88073Y-16726D02*
D03*
X-14976Y12556D02*
D03*
D42*
X-88073Y-6726D02*
D03*
Y3274D02*
D03*
X-58492Y50888D02*
D03*
X-68492D02*
D03*
X-14976Y32556D02*
D03*
Y22556D02*
D03*
D48*
X-48492Y50888D02*
D03*
D49*
X-50858Y-36615D02*
D03*
X-60858D02*
D03*
D50*
X-70858D02*
D03*
D54*
X110273Y-4970D02*
D03*
Y5030D02*
D03*
X110273Y15030D02*
D03*
X-30038Y-16647D02*
D03*
X-10038D02*
D03*
X-20038D02*
D03*
D55*
X110273Y-14970D02*
D03*
D56*
X-38Y-16647D02*
D03*
D57*
X73118Y40397D02*
D03*
D58*
X53433D02*
D03*
D59*
X40225Y-41240D02*
D03*
D60*
Y-31240D02*
D03*
D61*
X54463Y-6605D02*
D03*
X58262Y-6360D02*
D03*
X61734Y-6442D02*
D03*
X62020Y-2970D02*
D03*
X58303Y-3256D02*
D03*
X54544Y-3133D02*
D03*
X54819Y691D02*
D03*
X58393Y632D02*
D03*
X61848Y751D02*
D03*
X61789Y4683D02*
D03*
X58512Y4802D02*
D03*
X54640D02*
D03*
X-70211Y29297D02*
D03*
X-65695Y31237D02*
D03*
X-43996Y21931D02*
D03*
X-42263Y18076D02*
D03*
X-84108Y37908D02*
D03*
X39764Y30654D02*
D03*
X5477Y15038D02*
D03*
X-28984Y18686D02*
D03*
X-14585Y-35505D02*
D03*
X-31820Y8519D02*
D03*
X-105501Y10576D02*
D03*
X-35816Y36776D02*
D03*
X-37065Y7324D02*
D03*
X-40951Y-13028D02*
D03*
X-108186Y-8498D02*
D03*
X-112882Y21246D02*
D03*
X-41225Y-29048D02*
D03*
X24731Y-35939D02*
D03*
X-57582Y-26175D02*
D03*
X33457Y20143D02*
D03*
X9281Y630D02*
D03*
Y-7872D02*
D03*
X-95380Y-28024D02*
D03*
X-78106Y-27167D02*
D03*
X-78742Y-13250D02*
D03*
X-35690Y-37254D02*
D03*
X16291Y35607D02*
D03*
X33999Y29402D02*
D03*
D62*
X-60112Y29965D02*
D03*
X-50664D02*
D03*
X-55388D02*
D03*
D63*
X-45646Y32214D02*
D03*
Y26702D02*
D03*
X-70959Y19707D02*
D03*
X-65959D02*
D03*
Y25219D02*
D03*
X-70959D02*
D03*
D64*
X-97361Y28000D02*
D03*
X-77861Y-20000D02*
D03*
X-72939D02*
D03*
X-92439Y28000D02*
D03*
D65*
X-105713Y27201D02*
D03*
Y18146D02*
D03*
D66*
X-59400Y0D02*
D03*
D67*
X-56447Y13583D02*
D03*
X-54479D02*
D03*
X-70227Y-13583D02*
D03*
X-52510Y13583D02*
D03*
X-68258Y-13583D02*
D03*
X-50542D02*
D03*
X-54479D02*
D03*
X-52510D02*
D03*
X-60384Y13583D02*
D03*
X-62353D02*
D03*
X-64321D02*
D03*
X-58416D02*
D03*
X-70227D02*
D03*
X-68258D02*
D03*
X-66290D02*
D03*
X-50542D02*
D03*
X-48573D02*
D03*
Y-13583D02*
D03*
X-56447D02*
D03*
X-58416D02*
D03*
X-60384D02*
D03*
X-62353D02*
D03*
X-64321D02*
D03*
X-66290D02*
D03*
D68*
X-45817Y-984D02*
D03*
X-72983Y-10827D02*
D03*
X-45817Y10827D02*
D03*
Y8858D02*
D03*
Y6890D02*
D03*
Y4921D02*
D03*
Y2953D02*
D03*
Y984D02*
D03*
Y-2953D02*
D03*
Y-4921D02*
D03*
Y-6890D02*
D03*
Y-8858D02*
D03*
Y-10827D02*
D03*
X-72983Y-8858D02*
D03*
Y-6890D02*
D03*
Y-4921D02*
D03*
Y-2953D02*
D03*
Y-984D02*
D03*
Y984D02*
D03*
Y2953D02*
D03*
Y4921D02*
D03*
Y6890D02*
D03*
Y8858D02*
D03*
Y10827D02*
D03*
D69*
X-92144Y20500D02*
D03*
X-97656D02*
D03*
D70*
X-77400Y27650D02*
D03*
Y20350D02*
D03*
X-85900D02*
D03*
Y27650D02*
D03*
M02*
