G04*
G04 #@! TF.GenerationSoftware,Altium Limited,Altium Designer,25.8.1 (18)*
G04*
G04 Layer_Color=12632256*
%FSLAX25Y25*%
%MOIN*%
G70*
G04*
G04 #@! TF.SameCoordinates,4BE62294-00A5-47EF-9B78-CB70749D35C4*
G04*
G04*
G04 #@! TF.FilePolarity,Positive*
G04*
G01*
G75*
%ADD40R,0.05984X0.05984*%
%ADD41C,0.05984*%
%ADD47R,0.05984X0.05984*%
%ADD48C,0.06181*%
%ADD49R,0.06181X0.06181*%
%ADD55C,0.06102*%
%ADD56R,0.06102X0.06102*%
%ADD57R,0.06102X0.06102*%
%ADD58C,0.05512*%
%ADD59R,0.05512X0.05512*%
%ADD60C,0.06299*%
%ADD61R,0.06299X0.06299*%
D40*
X-88073Y-16726D02*
D03*
X-14976Y12556D02*
D03*
D41*
X-88073Y-6726D02*
D03*
Y3274D02*
D03*
X-58492Y50888D02*
D03*
X-68492D02*
D03*
X-14976Y32556D02*
D03*
Y22556D02*
D03*
D47*
X-48492Y50888D02*
D03*
D48*
X-50858Y-36615D02*
D03*
X-60858D02*
D03*
D49*
X-70858D02*
D03*
D55*
X110273Y-4970D02*
D03*
Y5030D02*
D03*
X110273Y15030D02*
D03*
X-30038Y-16647D02*
D03*
X-10038D02*
D03*
X-20038D02*
D03*
D56*
X110273Y-14970D02*
D03*
D57*
X-38Y-16647D02*
D03*
D58*
X73118Y40397D02*
D03*
D59*
X53433D02*
D03*
D60*
X40225Y-41240D02*
D03*
D61*
Y-31240D02*
D03*
M02*
