M48
;Layer_Color=9474304
;FILE_FORMAT=2:3
INCH,LZ
;TYPE=PLATED
T01F00S00C0.012
T02F00S00C0.035
T03F00S00C0.040
T04F00S00C0.043
;TYPE=NON_PLATED
T05F00S00C0.043
%
T01
X-00781Y-00272
X-00787Y-00132
X-00576Y-00262
X-00412Y-0029
X-00357Y-00373
X-00146Y-00355
X00247Y-00359
X00093Y-00079
Y00006
X00055Y0015
X00335Y00201
X00546Y00048
X00585
X00618Y00047
X00618Y00008
X00584Y00006
X00548Y00007
X00545Y-00031
X00545Y-00066
X00583Y-00064
X00583Y-00033
X0062Y-0003
X00617Y-00064
X-00318Y00085
X-00371Y00073
X-00423Y00181
X-0044Y00219
X-0029Y00187
X-0041Y-0013
X-00954Y-0028
X-01082Y-00085
X-01055Y00106
X-01129Y00212
X-00841Y00379
X-00702Y00293
X-00657Y00312
X-00358Y00368
X00163Y00356
X0034Y00294
X00398Y00307
T02
X00534Y00404
X00731
T03
X01103Y-0015
X01103Y-0005
Y0005
X01103Y0015
X-0015Y00126
Y00226
X-001Y-00166
X-0
X-002
X-003
X-00509Y-00366
X-00609
X-00709
X-00881Y-00167
Y-00067
Y00033
X-00685Y00509
X-00585
X-00485
X-0015Y00326
T04
X00402Y-00412
Y-00312
T05
X00302Y-00412
Y-00312
M30
