G04*
G04 #@! TF.GenerationSoftware,Altium Limited,Altium Designer,25.8.1 (18)*
G04*
G04 Layer_Color=128*
%FSLAX25Y25*%
%MOIN*%
G70*
G04*
G04 #@! TF.SameCoordinates,4BE62294-00A5-47EF-9B78-CB70749D35C4*
G04*
G04*
G04 #@! TF.FilePolarity,Positive*
G04*
G01*
G75*
G04:AMPARAMS|DCode=29|XSize=39.37mil|YSize=39.37mil|CornerRadius=19.68mil|HoleSize=0mil|Usage=FLASHONLY|Rotation=150.000|XOffset=0mil|YOffset=0mil|HoleType=Round|Shape=RoundedRectangle|*
%AMROUNDEDRECTD29*
21,1,0.03937,0.00000,0,0,150.0*
21,1,0.00000,0.03937,0,0,150.0*
1,1,0.03937,0.00000,0.00000*
1,1,0.03937,0.00000,0.00000*
1,1,0.03937,0.00000,0.00000*
1,1,0.03937,0.00000,0.00000*
%
%ADD29ROUNDEDRECTD29*%
G04:AMPARAMS|DCode=30|XSize=39.37mil|YSize=39.37mil|CornerRadius=19.68mil|HoleSize=0mil|Usage=FLASHONLY|Rotation=90.000|XOffset=0mil|YOffset=0mil|HoleType=Round|Shape=RoundedRectangle|*
%AMROUNDEDRECTD30*
21,1,0.03937,0.00000,0,0,90.0*
21,1,0.00000,0.03937,0,0,90.0*
1,1,0.03937,0.00000,0.00000*
1,1,0.03937,0.00000,0.00000*
1,1,0.03937,0.00000,0.00000*
1,1,0.03937,0.00000,0.00000*
%
%ADD30ROUNDEDRECTD30*%
G04:AMPARAMS|DCode=31|XSize=39.37mil|YSize=39.37mil|CornerRadius=19.68mil|HoleSize=0mil|Usage=FLASHONLY|Rotation=210.000|XOffset=0mil|YOffset=0mil|HoleType=Round|Shape=RoundedRectangle|*
%AMROUNDEDRECTD31*
21,1,0.03937,0.00000,0,0,210.0*
21,1,0.00000,0.03937,0,0,210.0*
1,1,0.03937,0.00000,0.00000*
1,1,0.03937,0.00000,0.00000*
1,1,0.03937,0.00000,0.00000*
1,1,0.03937,0.00000,0.00000*
%
%ADD31ROUNDEDRECTD31*%
%ADD63R,0.01575X0.07480*%
%ADD64R,0.03504X0.02520*%
%ADD65R,0.03150X0.03740*%
%ADD66R,0.01968X0.03543*%
%ADD67R,0.22441X0.22441*%
%ADD68R,0.01181X0.03347*%
%ADD69R,0.03347X0.01181*%
%ADD70R,0.02362X0.03150*%
%ADD71R,0.05500X0.04300*%
D29*
X114449Y32520D02*
D03*
X-116326Y-32520D02*
D03*
X-116339Y0D02*
D03*
D30*
X-661Y30520D02*
D03*
X114449Y-32520D02*
D03*
X-661Y-30520D02*
D03*
X-116326Y32520D02*
D03*
X-31850Y-48780D02*
D03*
X-88150Y48780D02*
D03*
D31*
X58110Y65039D02*
D03*
Y-65039D02*
D03*
X-60000Y65039D02*
D03*
Y-65039D02*
D03*
X-88150Y-48780D02*
D03*
X-31850Y48780D02*
D03*
D63*
X-60112Y29965D02*
D03*
X-50664D02*
D03*
X-55388D02*
D03*
D64*
X-45646Y32214D02*
D03*
Y26702D02*
D03*
X-70959Y19707D02*
D03*
X-65959D02*
D03*
Y25219D02*
D03*
X-70959D02*
D03*
D65*
X-97361Y28000D02*
D03*
X-77861Y-20000D02*
D03*
X-72939D02*
D03*
X-92439Y28000D02*
D03*
D66*
X-105713Y27201D02*
D03*
Y18146D02*
D03*
D67*
X-59400Y0D02*
D03*
D68*
X-56447Y13583D02*
D03*
X-54479D02*
D03*
X-70227Y-13583D02*
D03*
X-52510Y13583D02*
D03*
X-68258Y-13583D02*
D03*
X-50542D02*
D03*
X-54479D02*
D03*
X-52510D02*
D03*
X-60384Y13583D02*
D03*
X-62353D02*
D03*
X-64321D02*
D03*
X-58416D02*
D03*
X-70227D02*
D03*
X-68258D02*
D03*
X-66290D02*
D03*
X-50542D02*
D03*
X-48573D02*
D03*
Y-13583D02*
D03*
X-56447D02*
D03*
X-58416D02*
D03*
X-60384D02*
D03*
X-62353D02*
D03*
X-64321D02*
D03*
X-66290D02*
D03*
D69*
X-45817Y-984D02*
D03*
X-72983Y-10827D02*
D03*
X-45817Y10827D02*
D03*
Y8858D02*
D03*
Y6890D02*
D03*
Y4921D02*
D03*
Y2953D02*
D03*
Y984D02*
D03*
Y-2953D02*
D03*
Y-4921D02*
D03*
Y-6890D02*
D03*
Y-8858D02*
D03*
Y-10827D02*
D03*
X-72983Y-8858D02*
D03*
Y-6890D02*
D03*
Y-4921D02*
D03*
Y-2953D02*
D03*
Y-984D02*
D03*
Y984D02*
D03*
Y2953D02*
D03*
Y4921D02*
D03*
Y6890D02*
D03*
Y8858D02*
D03*
Y10827D02*
D03*
D70*
X-92144Y20500D02*
D03*
X-97656D02*
D03*
D71*
X-77400Y27650D02*
D03*
Y20350D02*
D03*
X-85900D02*
D03*
Y27650D02*
D03*
M02*
