G04*
G04 #@! TF.GenerationSoftware,Altium Limited,Altium Designer,25.8.1 (18)*
G04*
G04 Layer_Color=32768*
%FSLAX25Y25*%
%MOIN*%
G70*
G04*
G04 #@! TF.SameCoordinates,4BE62294-00A5-47EF-9B78-CB70749D35C4*
G04*
G04*
G04 #@! TF.FilePolarity,Positive*
G04*
G01*
G75*
%ADD11C,0.00787*%
D11*
X-31516Y-30482D02*
Y-24182D01*
X-28366D01*
Y-30482D02*
Y-24182D01*
X-31516Y-30482D02*
X-28366D01*
X-59963Y36596D02*
Y42895D01*
X-56813D01*
Y36596D02*
Y42895D01*
X-59963Y36596D02*
X-56813D01*
X-40512Y-3687D02*
Y3399D01*
X-36575D01*
Y-3687D02*
Y3399D01*
X-40512Y-3687D02*
X-36575D01*
X-93230Y-22218D02*
Y8766D01*
X-82915D01*
Y-22218D02*
Y8766D01*
X-93230Y-22218D02*
X-82915D01*
X30319Y38648D02*
Y41798D01*
Y38648D02*
X36618D01*
Y41798D01*
X30319D02*
X36618D01*
X84254Y13325D02*
Y16475D01*
X77955D02*
X84254D01*
X77955Y13325D02*
Y16475D01*
Y13325D02*
X84254D01*
X93426Y-24033D02*
Y-16552D01*
X89095Y-24033D02*
X93426D01*
X89095D02*
Y-16552D01*
X93426D01*
X83056Y-16264D02*
X86205D01*
X83056Y-22563D02*
Y-16264D01*
Y-22563D02*
X86205D01*
Y-16264D01*
X73905Y-22134D02*
X77054D01*
X73905Y-28433D02*
Y-22134D01*
Y-28433D02*
X77054D01*
Y-22134D01*
X39482Y-23531D02*
X43222D01*
Y-16642D01*
X39482D02*
X43222D01*
X39482Y-23531D02*
Y-16642D01*
X14119Y-29134D02*
Y-25984D01*
Y-29134D02*
X20419D01*
Y-25984D01*
X14119D02*
X20419D01*
X14119Y-34189D02*
X20419D01*
Y-37339D02*
Y-34189D01*
X14119Y-37339D02*
X20419D01*
X14119D02*
Y-34189D01*
X30602Y-1640D02*
Y1510D01*
X24499D02*
X30602D01*
X24499Y-1640D02*
Y1510D01*
Y-1640D02*
X30602D01*
X26534Y-9709D02*
X32637D01*
X26534D02*
Y-6559D01*
X32637D01*
Y-9709D02*
Y-6559D01*
X-21750Y-23980D02*
X-18600D01*
X-21750Y-30280D02*
Y-23980D01*
Y-30280D02*
X-18600D01*
Y-23980D01*
X-13399Y-30370D02*
Y-24071D01*
X-10249D01*
Y-30370D02*
Y-24071D01*
X-13399Y-30370D02*
X-10249D01*
X-103773Y4397D02*
X-97474D01*
Y1247D02*
Y4397D01*
X-103773Y1247D02*
X-97474D01*
X-103773D02*
Y4397D01*
X-103372Y-4083D02*
X-97073D01*
Y-7233D02*
Y-4083D01*
X-103372Y-7233D02*
X-97073D01*
X-103372D02*
Y-4083D01*
X-69881Y36424D02*
X-66731D01*
Y42723D01*
X-69881D02*
X-66731D01*
X-69881Y36424D02*
Y42723D01*
X-73984Y45731D02*
X-43000D01*
X-73984D02*
Y56046D01*
X-43000D01*
Y45731D02*
Y56046D01*
X-20134Y7064D02*
X-9819D01*
Y38048D01*
X-20134D02*
X-9819D01*
X-20134Y7064D02*
Y38048D01*
X-29641Y31375D02*
Y34525D01*
Y31375D02*
X-23341D01*
Y34525D01*
X-29641D02*
X-23341D01*
X-29535Y26217D02*
X-23236D01*
Y23067D02*
Y26217D01*
X-29535Y23067D02*
X-23236D01*
X-29535D02*
Y26217D01*
X-76606Y-41871D02*
Y-31360D01*
Y-41871D02*
X-45110D01*
Y-31360D01*
X-76606D02*
X-45110D01*
X69904Y-44745D02*
Y-26044D01*
X54392Y-44745D02*
X69904D01*
X54392D02*
Y-26044D01*
X69904D01*
X13261Y16308D02*
Y19458D01*
Y16308D02*
X19560D01*
Y19458D01*
X13261D02*
X19560D01*
M02*
