G04*
G04 #@! TF.GenerationSoftware,Altium Limited,Altium Designer,25.8.1 (18)*
G04*
G04 Layer_Color=16711935*
%FSLAX25Y25*%
%MOIN*%
G70*
G04*
G04 #@! TF.SameCoordinates,4BE62294-00A5-47EF-9B78-CB70749D35C4*
G04*
G04*
G04 #@! TF.FilePolarity,Positive*
G04*
G01*
G75*
%ADD14C,0.00300*%
%ADD77C,0.00394*%
%ADD80C,0.00000*%
%ADD81C,0.00100*%
D14*
X67349Y-18730D02*
X64017Y-15398D01*
X67349D02*
X64017Y-18730D01*
X67349Y-17064D02*
X64017D01*
X65683Y-15398D02*
Y-18730D01*
X67499Y1935D02*
Y-3063D01*
X65000D01*
X64167Y-2230D01*
Y-564D01*
X65000Y269D01*
X67499D01*
X65833D02*
X64167Y1935D01*
X60001D02*
X61668D01*
X62501Y1102D01*
Y-564D01*
X61668Y-1397D01*
X60001D01*
X59168Y-564D01*
Y269D01*
X62501D01*
X56669Y1935D02*
Y-2230D01*
Y-564D01*
X57502D01*
X55836D01*
X56669D01*
Y-2230D01*
X55836Y-3063D01*
X53337D02*
Y1935D01*
X50838D01*
X50005Y1102D01*
Y-2230D01*
X50838Y-3063D01*
X53337D01*
X45839Y1935D02*
X47505D01*
X48338Y1102D01*
Y-564D01*
X47505Y-1397D01*
X45839D01*
X45006Y-564D01*
Y269D01*
X48338D01*
X43340Y1935D02*
X40841D01*
X40008Y1102D01*
X40841Y269D01*
X42507D01*
X43340Y-564D01*
X42507Y-1397D01*
X40008D01*
X35009Y1935D02*
X38342D01*
X35009Y-1397D01*
Y-2230D01*
X35842Y-3063D01*
X37509D01*
X38342Y-2230D01*
D77*
X82960Y40397D02*
G03*
X82960Y40397I-19685J0D01*
G01*
X105273Y-20718D02*
Y20778D01*
Y-20718D02*
X115273Y-20718D01*
X115273Y20778D01*
X105273Y20778D02*
X115273Y20778D01*
X-35786Y-21647D02*
Y-11647D01*
X5710D01*
Y-21647D02*
Y-11647D01*
X-35786Y-21647D02*
X5710D01*
X39977Y18028D02*
Y24917D01*
X43717Y18028D02*
Y24917D01*
X39977Y18028D02*
X43717D01*
X39977Y24917D02*
X43717D01*
X28020Y-25334D02*
X52430D01*
Y-47145D02*
Y-25334D01*
X28020Y-47145D02*
Y-25334D01*
Y-47145D02*
X52430D01*
X-34199Y3365D02*
X-30459D01*
X-34199Y-3131D02*
X-30459D01*
Y3365D01*
X-34199Y-3131D02*
Y3365D01*
X-72152Y-21870D02*
Y-18130D01*
X-78648Y-21870D02*
Y-18130D01*
X-72152D01*
X-78648Y-21870D02*
X-72152D01*
X-98148Y26130D02*
Y29870D01*
X-91652Y26130D02*
Y29870D01*
X-98148Y26130D02*
X-91652D01*
X-98148Y29870D02*
X-91652D01*
X-73180Y-13780D02*
Y13780D01*
Y-13780D02*
X-45621D01*
Y13780D01*
X-73180D02*
X-45621D01*
X-73180Y11811D02*
X-71211Y13780D01*
D80*
X59949Y-19865D02*
G03*
X57549Y-19865I-1200J0D01*
G01*
D81*
X67599Y-17798D02*
Y-16598D01*
Y-17798D02*
X71749D01*
Y-16598D01*
X67599D02*
X71749D01*
X67599Y-15239D02*
Y-14039D01*
Y-15239D02*
X71749D01*
Y-14039D01*
X67599D02*
X71749D01*
X67599Y-12680D02*
Y-11480D01*
Y-12680D02*
X71749D01*
Y-11480D01*
X67599D02*
X71749D01*
X67599Y-10121D02*
Y-8921D01*
Y-10121D02*
X71749D01*
Y-8921D01*
X67599D02*
X71749D01*
X67599Y-7562D02*
Y-6362D01*
Y-7562D02*
X71749D01*
Y-6362D01*
X67599D02*
X71749D01*
X67599Y-5003D02*
Y-3803D01*
Y-5003D02*
X71749D01*
Y-3803D01*
X67599D02*
X71749D01*
X67599Y-2444D02*
Y-1244D01*
Y-2444D02*
X71749D01*
Y-1244D01*
X67599D02*
X71749D01*
X67599Y115D02*
Y1315D01*
Y115D02*
X71749D01*
Y1315D01*
X67599D02*
X71749D01*
X67599Y2674D02*
Y3874D01*
Y2674D02*
X71749D01*
Y3874D01*
X67599D02*
X71749D01*
X67599Y5233D02*
Y6433D01*
Y5233D02*
X71749D01*
Y6433D01*
X67599D02*
X71749D01*
X67599Y7792D02*
Y8992D01*
Y7792D02*
X71749D01*
Y8992D01*
X67599D02*
X71749D01*
X67599Y10351D02*
Y11551D01*
Y10351D02*
X71749D01*
Y11551D01*
X67599D02*
X71749D01*
X67599Y12910D02*
Y14110D01*
Y12910D02*
X71749D01*
Y14110D01*
X67599D02*
X71749D01*
X67599Y15469D02*
Y16669D01*
Y15469D02*
X71749D01*
Y16669D01*
X67599D02*
X71749D01*
X49899Y15469D02*
Y16669D01*
X45749D02*
X49899D01*
X45749Y15469D02*
Y16669D01*
Y15469D02*
X49899D01*
Y12910D02*
Y14110D01*
X45749D02*
X49899D01*
X45749Y12910D02*
Y14110D01*
Y12910D02*
X49899D01*
Y10351D02*
Y11551D01*
X45749D02*
X49899D01*
X45749Y10351D02*
Y11551D01*
Y10351D02*
X49899D01*
Y7792D02*
Y8992D01*
X45749D02*
X49899D01*
X45749Y7792D02*
Y8992D01*
Y7792D02*
X49899D01*
Y5233D02*
Y6433D01*
X45749D02*
X49899D01*
X45749Y5233D02*
Y6433D01*
Y5233D02*
X49899D01*
Y2674D02*
Y3874D01*
X45749D02*
X49899D01*
X45749Y2674D02*
Y3874D01*
Y2674D02*
X49899D01*
Y115D02*
Y1315D01*
X45749D02*
X49899D01*
X45749Y115D02*
Y1315D01*
Y115D02*
X49899D01*
Y-2444D02*
Y-1244D01*
X45749D02*
X49899D01*
X45749Y-2444D02*
Y-1244D01*
Y-2444D02*
X49899D01*
Y-5003D02*
Y-3803D01*
X45749D02*
X49899D01*
X45749Y-5003D02*
Y-3803D01*
Y-5003D02*
X49899D01*
Y-7562D02*
Y-6362D01*
X45749D02*
X49899D01*
X45749Y-7562D02*
Y-6362D01*
Y-7562D02*
X49899D01*
Y-10121D02*
Y-8921D01*
X45749D02*
X49899D01*
X45749Y-10121D02*
Y-8921D01*
Y-10121D02*
X49899D01*
Y-12680D02*
Y-11480D01*
X45749D02*
X49899D01*
X45749Y-12680D02*
Y-11480D01*
Y-12680D02*
X49899D01*
Y-15239D02*
Y-14039D01*
X45749D02*
X49899D01*
X45749Y-15239D02*
Y-14039D01*
Y-15239D02*
X49899D01*
Y-17798D02*
Y-16598D01*
X45749D02*
X49899D01*
X45749Y-17798D02*
Y-16598D01*
Y-17798D02*
X49899D01*
Y18735D02*
X67599D01*
X49899Y-19865D02*
Y18735D01*
Y-19865D02*
X67599D01*
Y18735D01*
M02*
