G04*
G04 #@! TF.GenerationSoftware,Altium Limited,Altium Designer,25.8.1 (18)*
G04*
G04 Layer_Color=2752767*
%FSLAX25Y25*%
%MOIN*%
G70*
G04*
G04 #@! TF.SameCoordinates,4BE62294-00A5-47EF-9B78-CB70749D35C4*
G04*
G04*
G04 #@! TF.FilePolarity,Positive*
G04*
G01*
G75*
%ADD86C,0.00500*%
D86*
X108273Y-6970D02*
Y-2970D01*
X112273D01*
Y-6970D01*
X108273D01*
Y3030D02*
Y7030D01*
X112273D01*
Y3030D01*
X108273D01*
X108273Y-16970D02*
Y-12970D01*
X112273D01*
Y-16970D01*
X108273D01*
Y13030D02*
Y17030D01*
X112273D01*
Y13030D01*
X108273D01*
X-90073Y-18726D02*
Y-14726D01*
X-86073D01*
Y-18726D01*
X-90073D01*
Y-8726D02*
Y-4726D01*
X-86073D01*
Y-8726D01*
X-90073D01*
Y1274D02*
Y5274D01*
X-86073D01*
Y1274D01*
X-90073D01*
X-2038Y-18647D02*
Y-14647D01*
X1962D01*
Y-18647D01*
X-2038D01*
X-32038D02*
Y-14647D01*
X-28038D01*
Y-18647D01*
X-32038D01*
X-12038D02*
Y-14647D01*
X-8038D01*
Y-18647D01*
X-12038D01*
X-22038D02*
Y-14647D01*
X-18038D01*
Y-18647D01*
X-22038D01*
X73118Y38397D02*
X71118Y42397D01*
X75118D01*
X73118Y38397D01*
X53433D02*
X51433Y42397D01*
X55433D01*
X53433Y38397D01*
X38225Y-43240D02*
X39225Y-41240D01*
X38225Y-39240D01*
X40225Y-40240D01*
X42225Y-39240D01*
X41225Y-41240D01*
X42225Y-43240D01*
X40225Y-42240D01*
X38225Y-43240D01*
X30225D02*
X31225Y-42240D01*
X32225D01*
X31225Y-41240D01*
X32225Y-40240D01*
X31225D01*
X30225Y-39240D01*
X29225Y-40240D01*
X28225D01*
X29225Y-41240D01*
X28225Y-42240D01*
X29225D01*
X30225Y-43240D01*
Y-33240D02*
X31225Y-32240D01*
X32225D01*
X31225Y-31240D01*
X32225Y-30240D01*
X31225D01*
X30225Y-29240D01*
X29225Y-30240D01*
X28225D01*
X29225Y-31240D01*
X28225Y-32240D01*
X29225D01*
X30225Y-33240D01*
X38225D02*
X39225Y-31240D01*
X38225Y-29240D01*
X40225Y-30240D01*
X42225Y-29240D01*
X41225Y-31240D01*
X42225Y-33240D01*
X40225Y-32240D01*
X38225Y-33240D01*
X-60492Y48888D02*
Y52888D01*
X-56492D01*
Y48888D01*
X-60492D01*
X-70492D02*
Y52888D01*
X-66492D01*
Y48888D01*
X-70492D01*
X-50492D02*
Y52888D01*
X-46492D01*
Y48888D01*
X-50492D01*
X-16976Y10556D02*
Y14556D01*
X-12976D01*
Y10556D01*
X-16976D01*
Y30556D02*
Y34556D01*
X-12976D01*
Y30556D01*
X-16976D01*
Y20556D02*
Y24556D01*
X-12976D01*
Y20556D01*
X-16976D01*
X-52858Y-38616D02*
Y-34615D01*
X-48858D01*
Y-38616D01*
X-52858D01*
X-62858D02*
Y-34615D01*
X-58858D01*
Y-38616D01*
X-62858D01*
X-72858D02*
Y-34615D01*
X-68858D01*
Y-38616D01*
X-72858D01*
X53463Y-7605D02*
Y-8606D01*
X55463D01*
Y-7605D01*
X56463D01*
Y-5605D01*
X55463D01*
Y-4606D01*
X53463D01*
Y-5605D01*
X52463D01*
Y-7605D01*
X53463D01*
X57262Y-7360D02*
Y-8360D01*
X59262D01*
Y-7360D01*
X60262D01*
Y-5360D01*
X59262D01*
Y-4360D01*
X57262D01*
Y-5360D01*
X56262D01*
Y-7360D01*
X57262D01*
X60734Y-7442D02*
Y-8442D01*
X62734D01*
Y-7442D01*
X63734D01*
Y-5442D01*
X62734D01*
Y-4442D01*
X60734D01*
Y-5442D01*
X59734D01*
Y-7442D01*
X60734D01*
X61020Y-3970D02*
Y-4970D01*
X63020D01*
Y-3970D01*
X64020D01*
Y-1970D01*
X63020D01*
Y-970D01*
X61020D01*
Y-1970D01*
X60020D01*
Y-3970D01*
X61020D01*
X57303Y-4256D02*
Y-5256D01*
X59303D01*
Y-4256D01*
X60303D01*
Y-2256D01*
X59303D01*
Y-1256D01*
X57303D01*
Y-2256D01*
X56303D01*
Y-4256D01*
X57303D01*
X53544Y-4133D02*
Y-5133D01*
X55544D01*
Y-4133D01*
X56544D01*
Y-2133D01*
X55544D01*
Y-1133D01*
X53544D01*
Y-2133D01*
X52544D01*
Y-4133D01*
X53544D01*
X53819Y-308D02*
Y-1309D01*
X55819D01*
Y-308D01*
X56819D01*
Y1691D01*
X55819D01*
Y2692D01*
X53819D01*
Y1691D01*
X52819D01*
Y-308D01*
X53819D01*
X57393Y-368D02*
Y-1368D01*
X59393D01*
Y-368D01*
X60393D01*
Y1632D01*
X59393D01*
Y2632D01*
X57393D01*
Y1632D01*
X56393D01*
Y-368D01*
X57393D01*
X60848Y-249D02*
Y-1249D01*
X62848D01*
Y-249D01*
X63848D01*
Y1751D01*
X62848D01*
Y2751D01*
X60848D01*
Y1751D01*
X59848D01*
Y-249D01*
X60848D01*
X60789Y3683D02*
Y2683D01*
X62789D01*
Y3683D01*
X63789D01*
Y5683D01*
X62789D01*
Y6683D01*
X60789D01*
Y5683D01*
X59789D01*
Y3683D01*
X60789D01*
X57512Y3802D02*
Y2802D01*
X59512D01*
Y3802D01*
X60512D01*
Y5802D01*
X59512D01*
Y6802D01*
X57512D01*
Y5802D01*
X56512D01*
Y3802D01*
X57512D01*
X53640D02*
Y2802D01*
X55640D01*
Y3802D01*
X56640D01*
Y5802D01*
X55640D01*
Y6802D01*
X53640D01*
Y5802D01*
X52640D01*
Y3802D01*
X53640D01*
X-71211Y28297D02*
Y27297D01*
X-69211D01*
Y28297D01*
X-68211D01*
Y30297D01*
X-69211D01*
Y31297D01*
X-71211D01*
Y30297D01*
X-72211D01*
Y28297D01*
X-71211D01*
X-66695Y30237D02*
Y29237D01*
X-64695D01*
Y30237D01*
X-63695D01*
Y32237D01*
X-64695D01*
Y33237D01*
X-66695D01*
Y32237D01*
X-67695D01*
Y30237D01*
X-66695D01*
X-44996Y20931D02*
Y19931D01*
X-42996D01*
Y20931D01*
X-41996D01*
Y22931D01*
X-42996D01*
Y23931D01*
X-44996D01*
Y22931D01*
X-45996D01*
Y20931D01*
X-44996D01*
X-43263Y17076D02*
Y16076D01*
X-41263D01*
Y17076D01*
X-40263D01*
Y19076D01*
X-41263D01*
Y20076D01*
X-43263D01*
Y19076D01*
X-44263D01*
Y17076D01*
X-43263D01*
X-85108Y36908D02*
Y35908D01*
X-83108D01*
Y36908D01*
X-82108D01*
Y38908D01*
X-83108D01*
Y39908D01*
X-85108D01*
Y38908D01*
X-86108D01*
Y36908D01*
X-85108D01*
X38764Y29654D02*
Y28654D01*
X40764D01*
Y29654D01*
X41764D01*
Y31654D01*
X40764D01*
Y32654D01*
X38764D01*
Y31654D01*
X37764D01*
Y29654D01*
X38764D01*
X4478Y14038D02*
Y13038D01*
X6477D01*
Y14038D01*
X7478D01*
Y16038D01*
X6477D01*
Y17038D01*
X4478D01*
Y16038D01*
X3478D01*
Y14038D01*
X4478D01*
X-29984Y17686D02*
Y16686D01*
X-27984D01*
Y17686D01*
X-26984D01*
Y19686D01*
X-27984D01*
Y20686D01*
X-29984D01*
Y19686D01*
X-30984D01*
Y17686D01*
X-29984D01*
X-15585Y-36505D02*
Y-37505D01*
X-13585D01*
Y-36505D01*
X-12585D01*
Y-34505D01*
X-13585D01*
Y-33505D01*
X-15585D01*
Y-34505D01*
X-16585D01*
Y-36505D01*
X-15585D01*
X-32820Y7519D02*
Y6519D01*
X-30820D01*
Y7519D01*
X-29820D01*
Y9519D01*
X-30820D01*
Y10519D01*
X-32820D01*
Y9519D01*
X-33820D01*
Y7519D01*
X-32820D01*
X-106501Y9576D02*
Y8576D01*
X-104501D01*
Y9576D01*
X-103501D01*
Y11576D01*
X-104501D01*
Y12576D01*
X-106501D01*
Y11576D01*
X-107501D01*
Y9576D01*
X-106501D01*
X-36816Y35776D02*
Y34776D01*
X-34817D01*
Y35776D01*
X-33816D01*
Y37776D01*
X-34817D01*
Y38776D01*
X-36816D01*
Y37776D01*
X-37817D01*
Y35776D01*
X-36816D01*
X-38065Y6324D02*
Y5324D01*
X-36065D01*
Y6324D01*
X-35065D01*
Y8324D01*
X-36065D01*
Y9324D01*
X-38065D01*
Y8324D01*
X-39065D01*
Y6324D01*
X-38065D01*
X-41951Y-14028D02*
Y-15028D01*
X-39951D01*
Y-14028D01*
X-38951D01*
Y-12028D01*
X-39951D01*
Y-11028D01*
X-41951D01*
Y-12028D01*
X-42951D01*
Y-14028D01*
X-41951D01*
X-109186Y-9498D02*
Y-10498D01*
X-107186D01*
Y-9498D01*
X-106186D01*
Y-7498D01*
X-107186D01*
Y-6498D01*
X-109186D01*
Y-7498D01*
X-110187D01*
Y-9498D01*
X-109186D01*
X-113882Y20246D02*
Y19246D01*
X-111881D01*
Y20246D01*
X-110881D01*
Y22246D01*
X-111881D01*
Y23246D01*
X-113882D01*
Y22246D01*
X-114882D01*
Y20246D01*
X-113882D01*
X-42225Y-30048D02*
Y-31049D01*
X-40225D01*
Y-30048D01*
X-39225D01*
Y-28049D01*
X-40225D01*
Y-27049D01*
X-42225D01*
Y-28049D01*
X-43225D01*
Y-30048D01*
X-42225D01*
X23731Y-36939D02*
Y-37939D01*
X25731D01*
Y-36939D01*
X26731D01*
Y-34939D01*
X25731D01*
Y-33939D01*
X23731D01*
Y-34939D01*
X22731D01*
Y-36939D01*
X23731D01*
X-58582Y-27175D02*
Y-28175D01*
X-56582D01*
Y-27175D01*
X-55582D01*
Y-25175D01*
X-56582D01*
Y-24175D01*
X-58582D01*
Y-25175D01*
X-59582D01*
Y-27175D01*
X-58582D01*
X32457Y19143D02*
Y18143D01*
X34457D01*
Y19143D01*
X35457D01*
Y21143D01*
X34457D01*
Y22143D01*
X32457D01*
Y21143D01*
X31457D01*
Y19143D01*
X32457D01*
X8281Y-370D02*
Y-1370D01*
X10281D01*
Y-370D01*
X11281D01*
Y1630D01*
X10281D01*
Y2630D01*
X8281D01*
Y1630D01*
X7281D01*
Y-370D01*
X8281D01*
Y-8872D02*
Y-9872D01*
X10281D01*
Y-8872D01*
X11281D01*
Y-6872D01*
X10281D01*
Y-5872D01*
X8281D01*
Y-6872D01*
X7281D01*
Y-8872D01*
X8281D01*
X-96380Y-29024D02*
Y-30024D01*
X-94380D01*
Y-29024D01*
X-93379D01*
Y-27024D01*
X-94380D01*
Y-26024D01*
X-96380D01*
Y-27024D01*
X-97379D01*
Y-29024D01*
X-96380D01*
X-79106Y-28167D02*
Y-29167D01*
X-77106D01*
Y-28167D01*
X-76106D01*
Y-26167D01*
X-77106D01*
Y-25167D01*
X-79106D01*
Y-26167D01*
X-80106D01*
Y-28167D01*
X-79106D01*
X-79742Y-14250D02*
Y-15250D01*
X-77742D01*
Y-14250D01*
X-76742D01*
Y-12250D01*
X-77742D01*
Y-11250D01*
X-79742D01*
Y-12250D01*
X-80742D01*
Y-14250D01*
X-79742D01*
X-36690Y-38254D02*
Y-39254D01*
X-34690D01*
Y-38254D01*
X-33690D01*
Y-36254D01*
X-34690D01*
Y-35254D01*
X-36690D01*
Y-36254D01*
X-37690D01*
Y-38254D01*
X-36690D01*
X15291Y34607D02*
Y33607D01*
X17291D01*
Y34607D01*
X18291D01*
Y36607D01*
X17291D01*
Y37607D01*
X15291D01*
Y36607D01*
X14291D01*
Y34607D01*
X15291D01*
X32998Y28402D02*
Y27402D01*
X34999D01*
Y28402D01*
X35998D01*
Y30402D01*
X34999D01*
Y31402D01*
X32998D01*
Y30402D01*
X31999D01*
Y28402D01*
X32998D01*
M02*
