G04*
G04 #@! TF.GenerationSoftware,Altium Limited,Altium Designer,25.8.1 (18)*
G04*
G04 Layer_Physical_Order=1*
G04 Layer_Color=255*
%FSLAX25Y25*%
%MOIN*%
G70*
G04*
G04 #@! TF.SameCoordinates,4BE62294-00A5-47EF-9B78-CB70749D35C4*
G04*
G04*
G04 #@! TF.FilePolarity,Positive*
G04*
G01*
G75*
%ADD13C,0.01000*%
%ADD16R,0.03197X0.02985*%
%ADD17R,0.05550X0.01400*%
%ADD18R,0.03543X0.03150*%
%ADD19R,0.02985X0.03197*%
%ADD20R,0.03740X0.03150*%
%ADD21R,0.03150X0.03150*%
%ADD22R,0.04355X0.02977*%
%ADD23R,0.02977X0.04355*%
%ADD24R,0.02756X0.02756*%
%ADD25R,0.08898X0.08504*%
%ADD26R,0.04749X0.03765*%
%ADD27R,0.03543X0.02953*%
%ADD28R,0.04748X0.04166*%
G04:AMPARAMS|DCode=29|XSize=39.37mil|YSize=39.37mil|CornerRadius=19.68mil|HoleSize=0mil|Usage=FLASHONLY|Rotation=150.000|XOffset=0mil|YOffset=0mil|HoleType=Round|Shape=RoundedRectangle|*
%AMROUNDEDRECTD29*
21,1,0.03937,0.00000,0,0,150.0*
21,1,0.00000,0.03937,0,0,150.0*
1,1,0.03937,0.00000,0.00000*
1,1,0.03937,0.00000,0.00000*
1,1,0.03937,0.00000,0.00000*
1,1,0.03937,0.00000,0.00000*
%
%ADD29ROUNDEDRECTD29*%
G04:AMPARAMS|DCode=30|XSize=39.37mil|YSize=39.37mil|CornerRadius=19.68mil|HoleSize=0mil|Usage=FLASHONLY|Rotation=90.000|XOffset=0mil|YOffset=0mil|HoleType=Round|Shape=RoundedRectangle|*
%AMROUNDEDRECTD30*
21,1,0.03937,0.00000,0,0,90.0*
21,1,0.00000,0.03937,0,0,90.0*
1,1,0.03937,0.00000,0.00000*
1,1,0.03937,0.00000,0.00000*
1,1,0.03937,0.00000,0.00000*
1,1,0.03937,0.00000,0.00000*
%
%ADD30ROUNDEDRECTD30*%
G04:AMPARAMS|DCode=31|XSize=39.37mil|YSize=39.37mil|CornerRadius=19.68mil|HoleSize=0mil|Usage=FLASHONLY|Rotation=210.000|XOffset=0mil|YOffset=0mil|HoleType=Round|Shape=RoundedRectangle|*
%AMROUNDEDRECTD31*
21,1,0.03937,0.00000,0,0,210.0*
21,1,0.00000,0.03937,0,0,210.0*
1,1,0.03937,0.00000,0.00000*
1,1,0.03937,0.00000,0.00000*
1,1,0.03937,0.00000,0.00000*
1,1,0.03937,0.00000,0.00000*
%
%ADD31ROUNDEDRECTD31*%
%ADD32R,0.12200X0.15900*%
%ADD40R,0.05984X0.05984*%
%ADD41C,0.05984*%
%ADD47R,0.05984X0.05984*%
%ADD48C,0.06181*%
%ADD49R,0.06181X0.06181*%
%ADD51C,0.01600*%
%ADD52C,0.02500*%
%ADD53C,0.04000*%
%ADD54C,0.01800*%
%ADD55C,0.06102*%
%ADD56R,0.06102X0.06102*%
%ADD57R,0.06102X0.06102*%
%ADD58C,0.05512*%
%ADD59R,0.05512X0.05512*%
%ADD60C,0.06299*%
%ADD61R,0.06299X0.06299*%
%ADD62C,0.01968*%
G36*
X64531Y64719D02*
X64219Y64143D01*
X63399Y63120D01*
X62410Y62259D01*
X61284Y61589D01*
X60056Y61129D01*
X58766Y60896D01*
X57455D01*
X56164Y61129D01*
X54936Y61589D01*
X53810Y62259D01*
X52821Y63120D01*
X52001Y64143D01*
X51688Y64719D01*
X51688Y64719D01*
X58110Y68416D01*
X64531Y64719D01*
D02*
G37*
G36*
X-53579D02*
X-53891Y64143D01*
X-54711Y63120D01*
X-55700Y62259D01*
X-56826Y61589D01*
X-58054Y61129D01*
X-59345Y60896D01*
X-60655D01*
X-61946Y61129D01*
X-63174Y61589D01*
X-64300Y62259D01*
X-65289Y63120D01*
X-66109Y64143D01*
X-66422Y64719D01*
X-66422Y64719D01*
X-60000Y68416D01*
X-53579Y64719D01*
D02*
G37*
G36*
X109439Y37145D02*
X109192Y36511D01*
X109176Y36421D01*
X109142Y36336D01*
X108891Y35049D01*
X108891Y34958D01*
X108872Y34868D01*
X108854Y33557D01*
X108871Y33467D01*
X108868Y33375D01*
X109084Y32082D01*
X109117Y31996D01*
X109130Y31906D01*
X109573Y30672D01*
X109620Y30593D01*
X109650Y30506D01*
X110305Y29371D01*
X110366Y29302D01*
X110410Y29222D01*
X111258Y28221D01*
X111329Y28164D01*
X111387Y28093D01*
X112399Y27259D01*
X112480Y27216D01*
X112550Y27156D01*
X113694Y26516D01*
X113781Y26488D01*
X113860Y26442D01*
X115100Y26016D01*
X115191Y26003D01*
X115277Y25972D01*
X115945Y25870D01*
Y-25870D01*
X115277Y-25972D01*
X115191Y-26003D01*
X115100Y-26016D01*
X113860Y-26442D01*
X113781Y-26488D01*
X113694Y-26516D01*
X112550Y-27156D01*
X112480Y-27216D01*
X112399Y-27259D01*
X111387Y-28093D01*
X111329Y-28164D01*
X111258Y-28221D01*
X110410Y-29222D01*
X110366Y-29302D01*
X110305Y-29371D01*
X109650Y-30506D01*
X109620Y-30593D01*
X109573Y-30672D01*
X109130Y-31906D01*
X109117Y-31996D01*
X109084Y-32082D01*
X108868Y-33375D01*
X108871Y-33467D01*
X108854Y-33557D01*
X108872Y-34868D01*
X108891Y-34958D01*
X108891Y-35049D01*
X109142Y-36336D01*
X109176Y-36421D01*
X109192Y-36511D01*
X109439Y-37145D01*
X64625Y-63019D01*
X64195Y-62482D01*
X64125Y-62423D01*
X64068Y-62351D01*
X63079Y-61490D01*
X63000Y-61445D01*
X62932Y-61383D01*
X61805Y-60712D01*
X61719Y-60682D01*
X61641Y-60633D01*
X60413Y-60174D01*
X60322Y-60159D01*
X60237Y-60126D01*
X58947Y-59892D01*
X58855Y-59894D01*
X58766Y-59876D01*
X57455D01*
X57364Y-59894D01*
X57273Y-59892D01*
X55983Y-60126D01*
X55897Y-60159D01*
X55807Y-60174D01*
X54579Y-60633D01*
X54501Y-60682D01*
X54415Y-60712D01*
X53288Y-61383D01*
X53220Y-61445D01*
X53141Y-61490D01*
X52152Y-62351D01*
X52096Y-62423D01*
X52025Y-62482D01*
X51595Y-63019D01*
X7137Y-37351D01*
X7428Y-36598D01*
X7444Y-36508D01*
X7478Y-36424D01*
X7739Y-35071D01*
X7739Y-34979D01*
X7757Y-34890D01*
X7769Y-33926D01*
X12308D01*
Y-38362D01*
X22230D01*
Y-37293D01*
X23278D01*
X23607Y-37622D01*
X24336Y-37924D01*
X25125D01*
X25855Y-37622D01*
X26413Y-37063D01*
X26715Y-36334D01*
Y-35545D01*
X26413Y-34815D01*
X25855Y-34257D01*
X25125Y-33955D01*
X24336D01*
X23974Y-34105D01*
X23372Y-33912D01*
X23072Y-32798D01*
X26487Y-29383D01*
X27288Y-29997D01*
X27275Y-30018D01*
X27060Y-30823D01*
Y-31657D01*
X27275Y-32462D01*
X27692Y-33184D01*
X28281Y-33773D01*
X29003Y-34190D01*
X29808Y-34405D01*
X30642D01*
X31447Y-34190D01*
X32168Y-33773D01*
X32758Y-33184D01*
X33174Y-32462D01*
X33390Y-31657D01*
Y-30823D01*
X33174Y-30018D01*
X32758Y-29296D01*
X32168Y-28707D01*
X31447Y-28290D01*
X30642Y-28074D01*
X29808D01*
X29003Y-28290D01*
X28982Y-28303D01*
X28367Y-27503D01*
X37657Y-18213D01*
X38581Y-18596D01*
Y-20200D01*
Y-24925D01*
X44124D01*
Y-22155D01*
X44331Y-22114D01*
X44827Y-21782D01*
X45930Y-20678D01*
X46262Y-20182D01*
X46378Y-19597D01*
Y-18898D01*
X50899D01*
Y-16339D01*
Y-13780D01*
Y-10118D01*
X51649Y-9515D01*
X51899Y-9515D01*
X58249D01*
Y-565D01*
Y8385D01*
X51899D01*
X51649Y8385D01*
X50899Y8989D01*
Y12287D01*
X50946Y12297D01*
X51443Y12628D01*
X52480Y13666D01*
X52812Y14162D01*
X52928Y14747D01*
Y24341D01*
X53744Y24766D01*
X53896Y24787D01*
X65811Y12872D01*
X65962Y12230D01*
X65811Y11588D01*
X64682Y10459D01*
X64350Y9962D01*
X64234Y9377D01*
Y9158D01*
X63461Y8385D01*
X59249D01*
Y-565D01*
Y-9515D01*
X62903D01*
X62936Y-9678D01*
X63267Y-10174D01*
X66055Y-12962D01*
X66551Y-13293D01*
X66599Y-13303D01*
Y-16339D01*
Y-18898D01*
X71215D01*
X71236Y-19003D01*
X71567Y-19499D01*
X72105Y-20037D01*
Y-24130D01*
X77114D01*
X77497Y-25054D01*
X76114Y-26437D01*
X72105D01*
Y-27025D01*
X67597D01*
Y-20497D01*
X56699D01*
Y-27756D01*
X55510Y-28946D01*
X44374D01*
Y-27090D01*
X36075D01*
Y-35390D01*
X44374D01*
Y-33534D01*
X56460D01*
X57338Y-33359D01*
X58082Y-32862D01*
X59944Y-31001D01*
X63989D01*
X64644Y-31438D01*
X65522Y-31613D01*
X72105D01*
Y-32201D01*
X78854D01*
Y-29176D01*
X82049Y-25981D01*
X83642D01*
X84383Y-25833D01*
X84817Y-25544D01*
X87808D01*
Y-24989D01*
X88882D01*
Y-25426D01*
X90335D01*
X90718Y-26350D01*
X74322Y-42746D01*
X67597D01*
Y-39788D01*
X62648D01*
Y-45040D01*
Y-50292D01*
X67597D01*
Y-47334D01*
X75273D01*
X76150Y-47159D01*
X76895Y-46662D01*
X97107Y-26449D01*
X97605Y-25705D01*
X97779Y-24827D01*
Y-21761D01*
X97605Y-20883D01*
X97107Y-20139D01*
X96363Y-19642D01*
X95861Y-19542D01*
X95206Y-18887D01*
X95673Y-17940D01*
X96100Y-17996D01*
X106222D01*
Y-19021D01*
X114324D01*
Y-10919D01*
X106222D01*
Y-11944D01*
X97354D01*
X93076Y-7667D01*
X93405Y-6582D01*
X93470Y-6569D01*
X94011Y-7109D01*
X94637Y-7590D01*
X95367Y-7893D01*
X96150Y-7996D01*
X107570D01*
X107786Y-8212D01*
X108710Y-8745D01*
X109740Y-9021D01*
X110807D01*
X111837Y-8745D01*
X112761Y-8212D01*
X113515Y-7457D01*
X114048Y-6534D01*
X114324Y-5503D01*
Y-4436D01*
X114048Y-3406D01*
X113515Y-2482D01*
X112761Y-1728D01*
X111837Y-1195D01*
X110807Y-919D01*
X109740D01*
X108710Y-1195D01*
X107786Y-1728D01*
X107570Y-1944D01*
X97404D01*
X96152Y-692D01*
X95525Y-212D01*
X94796Y91D01*
X94012Y194D01*
X91848D01*
X91465Y1118D01*
X92352Y2004D01*
X107570D01*
X107786Y1788D01*
X108710Y1255D01*
X109740Y979D01*
X110807D01*
X111837Y1255D01*
X112761Y1788D01*
X113515Y2543D01*
X114048Y3466D01*
X114324Y4497D01*
Y5564D01*
X114048Y6594D01*
X113515Y7518D01*
X112761Y8272D01*
X111837Y8805D01*
X110807Y9081D01*
X109740D01*
X108710Y8805D01*
X107786Y8272D01*
X107570Y8056D01*
X93087D01*
X92704Y8980D01*
X95728Y12004D01*
X107570D01*
X107786Y11788D01*
X108710Y11255D01*
X109740Y10979D01*
X110807D01*
X111837Y11255D01*
X112761Y11788D01*
X113515Y12543D01*
X114048Y13466D01*
X114324Y14497D01*
Y15563D01*
X114048Y16594D01*
X113515Y17518D01*
X112761Y18272D01*
X111837Y18805D01*
X110807Y19081D01*
X109740D01*
X108710Y18805D01*
X107786Y18272D01*
X107570Y18056D01*
X94475D01*
X93692Y17953D01*
X92962Y17651D01*
X92335Y17170D01*
X88159Y12993D01*
X87235Y13376D01*
Y14400D01*
X84746D01*
X82257D01*
Y13885D01*
X80951Y12579D01*
X79951Y12719D01*
Y18078D01*
X75021D01*
X74974Y18078D01*
Y18078D01*
X74149Y17769D01*
X74149Y17769D01*
X72101D01*
X71953Y17798D01*
X71806Y17769D01*
X70874D01*
Y16069D01*
X69874D01*
Y17769D01*
X66599D01*
Y17717D01*
X65675Y17334D01*
X54962Y28047D01*
Y36641D01*
X57189D01*
Y44153D01*
X49677D01*
Y36641D01*
X51903D01*
Y27728D01*
X51088Y27303D01*
X50935Y27282D01*
X38430Y39787D01*
Y42822D01*
X38430D01*
X38320Y43086D01*
X55517Y60283D01*
X55807Y60174D01*
X55897Y60159D01*
X55983Y60126D01*
X57273Y59892D01*
X57365Y59894D01*
X57455Y59876D01*
X58766D01*
X58855Y59894D01*
X58947Y59892D01*
X60237Y60126D01*
X60322Y60159D01*
X60413Y60174D01*
X61641Y60633D01*
X61719Y60682D01*
X61805Y60712D01*
X62932Y61383D01*
X63000Y61445D01*
X63079Y61490D01*
X64068Y62351D01*
X64125Y62423D01*
X64195Y62482D01*
X64625Y63019D01*
X109439Y37145D01*
D02*
G37*
G36*
X-44561Y57866D02*
X-44879Y56910D01*
X-70353D01*
X-70938Y56793D01*
X-71434Y56462D01*
X-74066Y53831D01*
X-74397Y53334D01*
X-74514Y52749D01*
Y41508D01*
X-74397Y40922D01*
X-74066Y40426D01*
X-72959Y39319D01*
X-73342Y38396D01*
X-79014D01*
X-79599Y38279D01*
X-80095Y37948D01*
X-81404Y36639D01*
X-82251Y37205D01*
X-82124Y37513D01*
Y38303D01*
X-82426Y39032D01*
X-82984Y39590D01*
X-83477Y39795D01*
X-83656Y40586D01*
X-83649Y40664D01*
X-83554Y40905D01*
X-82858Y41307D01*
X-82796Y41360D01*
X-82724Y41399D01*
X-81385Y42486D01*
X-81333Y42549D01*
X-81268Y42598D01*
X-80118Y43883D01*
X-80077Y43954D01*
X-80020Y44012D01*
X-79088Y45464D01*
X-79058Y45540D01*
X-79012Y45606D01*
X-78321Y47187D01*
X-78304Y47267D01*
X-78268Y47340D01*
X-77837Y49010D01*
X-77832Y49091D01*
X-77809Y49169D01*
X-77647Y50887D01*
X-77655Y50968D01*
X-77644Y51049D01*
X-77756Y52770D01*
X-77777Y52849D01*
X-77779Y52930D01*
X-78162Y54612D01*
X-78195Y54686D01*
X-78210Y54766D01*
X-78700Y55984D01*
X-66515Y63019D01*
X-66085Y62482D01*
X-66014Y62423D01*
X-65958Y62351D01*
X-64969Y61490D01*
X-64890Y61445D01*
X-64822Y61383D01*
X-63695Y60712D01*
X-63609Y60682D01*
X-63531Y60633D01*
X-62303Y60174D01*
X-62213Y60159D01*
X-62127Y60126D01*
X-60837Y59892D01*
X-60745Y59894D01*
X-60655Y59876D01*
X-59345D01*
X-59254Y59894D01*
X-59163Y59892D01*
X-57873Y60126D01*
X-57788Y60159D01*
X-57697Y60174D01*
X-56469Y60633D01*
X-56391Y60682D01*
X-56305Y60712D01*
X-55178Y61383D01*
X-55110Y61445D01*
X-55031Y61490D01*
X-54042Y62351D01*
X-53986Y62423D01*
X-53915Y62482D01*
X-53485Y63019D01*
X-44561Y57866D01*
D02*
G37*
G36*
X-21016Y45906D02*
X-21434Y45152D01*
X-22498Y43794D01*
X-23764Y42621D01*
X-25198Y41664D01*
X-26767Y40946D01*
X-28429Y40485D01*
X-30143Y40293D01*
X-31866Y40374D01*
X-33554Y40727D01*
X-35166Y41343D01*
X-36659Y42206D01*
X-37997Y43294D01*
X-39147Y44581D01*
X-40078Y46033D01*
X-40767Y47614D01*
X-41198Y49284D01*
X-41359Y51001D01*
X-41246Y52723D01*
X-40863Y54404D01*
X-40218Y56004D01*
X-39773Y56743D01*
X-39773D01*
X-21016Y45906D01*
D02*
G37*
G36*
X-79800Y55986D02*
X-79156Y54386D01*
X-78773Y52704D01*
X-78662Y50983D01*
X-78824Y49265D01*
X-79256Y47595D01*
X-79946Y46015D01*
X-80878Y44563D01*
X-82028Y43277D01*
X-83367Y42190D01*
X-84861Y41328D01*
X-86473Y40713D01*
X-88161Y40361D01*
X-89885Y40281D01*
X-91599Y40474D01*
X-93261Y40936D01*
X-94828Y41655D01*
X-96263Y42614D01*
X-97527Y43787D01*
X-98590Y45145D01*
X-99007Y45900D01*
X-99007Y45900D01*
X-80244Y56725D01*
X-79800Y55986D01*
D02*
G37*
G36*
X-9027Y37351D02*
X-9318Y36598D01*
X-9334Y36508D01*
X-9368Y36424D01*
X-9629Y35071D01*
X-9629Y34979D01*
X-9647Y34890D01*
X-9663Y33512D01*
X-9647Y33422D01*
X-9649Y33331D01*
X-9420Y31973D01*
X-9388Y31887D01*
X-9374Y31797D01*
X-8907Y30501D01*
X-8860Y30423D01*
X-8830Y30336D01*
X-8140Y29144D01*
X-8080Y29075D01*
X-8035Y28995D01*
X-7144Y27945D01*
X-7073Y27888D01*
X-7014Y27817D01*
X-6545Y27431D01*
X-6903Y26431D01*
X-9299D01*
X-11671Y28802D01*
X-11691Y28825D01*
X-11856Y30020D01*
X-11848Y30038D01*
X-11782Y30105D01*
X-11256Y31015D01*
X-10984Y32030D01*
Y33082D01*
X-11256Y34097D01*
X-11782Y35007D01*
X-12525Y35751D01*
X-13435Y36276D01*
X-14451Y36548D01*
X-15502D01*
X-16517Y36276D01*
X-17428Y35751D01*
X-18171Y35007D01*
X-18696Y34097D01*
X-18699Y34086D01*
X-21530D01*
Y35548D01*
X-31452D01*
Y34562D01*
X-33810D01*
X-34224Y35562D01*
X-34134Y35652D01*
X-33832Y36381D01*
Y36498D01*
X-31017Y39313D01*
X-30191Y39274D01*
X-30111Y39286D01*
X-30029Y39279D01*
X-28315Y39472D01*
X-28238Y39496D01*
X-28156Y39502D01*
X-26494Y39963D01*
X-26421Y40000D01*
X-26342Y40019D01*
X-24774Y40737D01*
X-24708Y40785D01*
X-24633Y40816D01*
X-23198Y41773D01*
X-23140Y41831D01*
X-23070Y41874D01*
X-21805Y43046D01*
X-21757Y43112D01*
X-21696Y43165D01*
X-20886Y44198D01*
X-9027Y37351D01*
D02*
G37*
G36*
X-61969Y52851D02*
X-62213Y52429D01*
X-62485Y51414D01*
Y50363D01*
X-62213Y49347D01*
X-61687Y48437D01*
X-60944Y47694D01*
X-60033Y47168D01*
X-60022Y47165D01*
Y44706D01*
X-60987D01*
Y38806D01*
X-64184D01*
X-64707Y38702D01*
X-64791Y38703D01*
X-65707Y39266D01*
Y44534D01*
X-66963D01*
Y47165D01*
X-66952Y47168D01*
X-66041Y47694D01*
X-65298Y48437D01*
X-64772Y49347D01*
X-64500Y50363D01*
Y51414D01*
X-64772Y52429D01*
X-65016Y52851D01*
X-64447Y53851D01*
X-62538D01*
X-61969Y52851D01*
D02*
G37*
G36*
X-40005Y44030D02*
X-39948Y43971D01*
X-39907Y43901D01*
X-38758Y42615D01*
X-38693Y42566D01*
X-38641Y42503D01*
X-37303Y41415D01*
X-37231Y41377D01*
X-37169Y41323D01*
X-35676Y40460D01*
X-35599Y40434D01*
X-35428Y40152D01*
X-35291Y39509D01*
X-35953Y38760D01*
X-36211D01*
X-36941Y38458D01*
X-37499Y37900D01*
X-37801Y37171D01*
Y36443D01*
X-37970Y36294D01*
X-38692Y35921D01*
X-41330Y38558D01*
Y44244D01*
X-40330Y44537D01*
X-40005Y44030D01*
D02*
G37*
G36*
X-52485Y46896D02*
X-47530D01*
Y29327D01*
X-47444Y28894D01*
X-47805Y28542D01*
X-48268Y28305D01*
X-52337Y32373D01*
X-52833Y32705D01*
X-53418Y32821D01*
X-63800D01*
X-64214Y33821D01*
X-64126Y33910D01*
X-63795Y34406D01*
X-63678Y34991D01*
Y35620D01*
X-63551Y35747D01*
X-60987D01*
Y34784D01*
X-58888D01*
Y37277D01*
X-58388D01*
Y37777D01*
X-55790D01*
Y39721D01*
Y44706D01*
X-56963D01*
Y47165D01*
X-56951Y47168D01*
X-56041Y47694D01*
X-55298Y48437D01*
X-54772Y49347D01*
X-54500Y50363D01*
Y51414D01*
X-54772Y52429D01*
X-55016Y52851D01*
X-54447Y53851D01*
X-52485D01*
Y46896D01*
D02*
G37*
G36*
X-67774Y31762D02*
X-67870Y31176D01*
X-68918Y30810D01*
X-69087Y30979D01*
X-69816Y31281D01*
X-70606D01*
X-71335Y30979D01*
X-71893Y30421D01*
X-72196Y29692D01*
Y28902D01*
X-71893Y28173D01*
X-71335Y27615D01*
X-70606Y27313D01*
X-70402D01*
X-59162Y16072D01*
X-58666Y15741D01*
X-58080Y15624D01*
X-42979D01*
X-42394Y15741D01*
X-41898Y16072D01*
X-41878Y16092D01*
X-41868D01*
X-41139Y16394D01*
X-40581Y16952D01*
X-40279Y17682D01*
Y18471D01*
X-40581Y19200D01*
X-41139Y19759D01*
X-41712Y19996D01*
X-41961Y20331D01*
X-42209Y21061D01*
X-42012Y21537D01*
Y21762D01*
X-41012Y22176D01*
X-25818Y6983D01*
X-25322Y6651D01*
X-24737Y6535D01*
X-8289D01*
X-7906Y5611D01*
X-14655Y-1137D01*
X-23555D01*
X-24140Y-1254D01*
X-24636Y-1585D01*
X-30608Y-7557D01*
X-40523D01*
X-41108Y-7673D01*
X-41604Y-8005D01*
X-45316Y-11717D01*
X-45648Y-12213D01*
X-45764Y-12799D01*
Y-17065D01*
X-47123Y-18424D01*
X-65442D01*
X-75860Y-8005D01*
X-76357Y-7673D01*
X-76942Y-7557D01*
X-80433D01*
X-81018Y-7673D01*
X-81514Y-8005D01*
X-86243Y-12734D01*
X-92065D01*
Y-20134D01*
X-93065Y-20548D01*
X-101162Y-12451D01*
Y-8257D01*
X-95262D01*
Y-8256D01*
X-91796D01*
X-91793Y-8267D01*
X-91267Y-9177D01*
X-90524Y-9921D01*
X-89613Y-10446D01*
X-88598Y-10718D01*
X-87547D01*
X-86532Y-10446D01*
X-85621Y-9921D01*
X-84878Y-9177D01*
X-84352Y-8267D01*
X-84080Y-7252D01*
Y-6201D01*
X-84352Y-5185D01*
X-84878Y-4275D01*
X-85621Y-3532D01*
X-86532Y-3006D01*
X-87547Y-2734D01*
X-88598D01*
X-89613Y-3006D01*
X-90524Y-3532D01*
X-91267Y-4275D01*
X-91793Y-5185D01*
X-91796Y-5197D01*
X-95262D01*
Y-3059D01*
X-103021D01*
X-105063Y-1017D01*
Y223D01*
X-103592D01*
Y2822D01*
X-102592D01*
Y223D01*
X-95662D01*
Y1744D01*
X-91796D01*
X-91793Y1733D01*
X-91267Y823D01*
X-90524Y79D01*
X-89613Y-446D01*
X-88598Y-718D01*
X-87547D01*
X-86532Y-446D01*
X-85621Y79D01*
X-84878Y823D01*
X-84352Y1733D01*
X-84080Y2748D01*
Y3799D01*
X-84352Y4815D01*
X-84878Y5725D01*
X-85621Y6468D01*
X-86532Y6994D01*
X-87547Y7266D01*
X-88598D01*
X-89613Y6994D01*
X-90524Y6468D01*
X-91267Y5725D01*
X-91793Y4815D01*
X-91796Y4803D01*
X-95662D01*
Y5421D01*
X-101562D01*
Y7328D01*
X-101679Y7913D01*
X-101788Y8077D01*
X-101914Y8602D01*
X-101541Y9354D01*
X-101522Y9367D01*
X-78305Y32583D01*
X-68368D01*
X-67774Y31762D01*
D02*
G37*
G36*
X-45981Y21691D02*
Y21537D01*
X-45678Y20808D01*
X-45120Y20249D01*
X-45119Y20249D01*
X-44724Y19088D01*
X-45017Y18683D01*
X-57447D01*
X-67634Y28870D01*
X-67622Y28943D01*
X-67401Y29111D01*
X-66528Y29434D01*
X-66090Y29253D01*
X-65301D01*
X-64571Y29555D01*
X-64364Y29762D01*
X-54052D01*
X-45981Y21691D01*
D02*
G37*
G36*
X117374Y34209D02*
X117383Y26799D01*
X116727Y26781D01*
X115431Y26980D01*
X114192Y27406D01*
X113048Y28046D01*
X112036Y28880D01*
X111188Y29881D01*
X110533Y31016D01*
X110090Y32250D01*
X109874Y33543D01*
X109892Y34854D01*
X110142Y36141D01*
X110618Y37363D01*
X110961Y37921D01*
X110961D01*
X117374Y34209D01*
D02*
G37*
G36*
X-112495Y37363D02*
X-112019Y36141D01*
X-111769Y34854D01*
X-111751Y33543D01*
X-111967Y32250D01*
X-112410Y31016D01*
X-113065Y29880D01*
X-113913Y28880D01*
X-114925Y28046D01*
X-116069Y27406D01*
X-117309Y26980D01*
X-118605Y26781D01*
X-119260Y26799D01*
Y26799D01*
X-119251Y34209D01*
X-112838Y37921D01*
X-112495Y37363D01*
D02*
G37*
G36*
X-945Y34321D02*
X5621Y38103D01*
X5980Y37515D01*
X6477Y36230D01*
X6738Y34878D01*
X6754Y33501D01*
X6525Y32142D01*
X6058Y30847D01*
X5368Y29655D01*
X4477Y28604D01*
X3413Y27729D01*
X2211Y27057D01*
X908Y26610D01*
X-454Y26401D01*
X-945Y26414D01*
X-1436Y26401D01*
X-2798Y26610D01*
X-4101Y27057D01*
X-5303Y27729D01*
X-6367Y28604D01*
X-7258Y29655D01*
X-7948Y30847D01*
X-8415Y32142D01*
X-8644Y33501D01*
X-8628Y34878D01*
X-8367Y36230D01*
X-7870Y37515D01*
X-7511Y38103D01*
Y38103D01*
X-945Y34321D01*
D02*
G37*
G36*
X40320Y33571D02*
X39839Y32638D01*
X39369D01*
X38640Y32336D01*
X38082Y31778D01*
X37824Y31154D01*
X39764D01*
Y30154D01*
X37824D01*
X38082Y29530D01*
X38640Y28972D01*
X39369Y28670D01*
X39414D01*
X40317Y27767D01*
Y26508D01*
X39075D01*
Y24706D01*
X38151Y24324D01*
X35603Y26871D01*
Y28201D01*
X35681Y28278D01*
X35983Y29008D01*
Y29797D01*
X35681Y30526D01*
X35122Y31084D01*
X34393Y31387D01*
X33604D01*
X32875Y31084D01*
X32316Y30526D01*
X32014Y29797D01*
Y29008D01*
X32316Y28278D01*
X32545Y28050D01*
Y26238D01*
X32661Y25653D01*
X32993Y25157D01*
X35141Y23008D01*
X35010Y22001D01*
X34892Y21843D01*
X34581Y21825D01*
X33851Y22127D01*
X33062D01*
X32333Y21825D01*
X31775Y21267D01*
X31472Y20538D01*
Y19748D01*
X31775Y19019D01*
X32333Y18461D01*
X33062Y18159D01*
X33851D01*
X34390Y18382D01*
X34846D01*
X36373Y16855D01*
X35959Y15855D01*
X32602D01*
X25879Y22579D01*
Y32832D01*
X30671Y37625D01*
X36267D01*
X40320Y33571D01*
D02*
G37*
G36*
X52094Y62263D02*
X52216Y61308D01*
X35759Y44851D01*
X33823D01*
X33238Y44735D01*
X32742Y44403D01*
X31863Y43525D01*
X31532Y43029D01*
X31531Y43023D01*
X31330Y42822D01*
X28508D01*
Y39787D01*
X23268Y34547D01*
X22936Y34051D01*
X22820Y33466D01*
Y22787D01*
X22484Y22511D01*
X6208D01*
X6022Y23418D01*
X6041Y23511D01*
X6504Y23820D01*
X16307Y33623D01*
X16686D01*
X17415Y33925D01*
X17974Y34483D01*
X18276Y35213D01*
Y36002D01*
X17974Y36731D01*
X17415Y37290D01*
X16686Y37592D01*
X15897D01*
X15167Y37290D01*
X14609Y36731D01*
X14307Y36002D01*
Y35949D01*
X7273Y28916D01*
X6474Y29530D01*
X6940Y30336D01*
X6970Y30422D01*
X7017Y30501D01*
X7484Y31797D01*
X7498Y31887D01*
X7530Y31973D01*
X7759Y33331D01*
X7757Y33422D01*
X7773Y33512D01*
X7757Y34890D01*
X7739Y34979D01*
X7739Y35071D01*
X7478Y36423D01*
X7444Y36508D01*
X7428Y36598D01*
X7137Y37351D01*
X51074Y62717D01*
X52094Y62263D01*
D02*
G37*
G36*
X-98330Y43159D02*
X-98268Y43105D01*
X-98221Y43039D01*
X-96956Y41866D01*
X-96887Y41824D01*
X-96829Y41766D01*
X-95395Y40808D01*
X-95319Y40777D01*
X-95253Y40729D01*
X-93686Y40009D01*
X-93606Y39991D01*
X-93534Y39954D01*
X-91872Y39492D01*
X-91790Y39486D01*
X-91713Y39461D01*
X-89999Y39268D01*
X-89918Y39274D01*
X-89837Y39262D01*
X-88114Y39343D01*
X-88035Y39362D01*
X-87953Y39363D01*
X-87787Y39398D01*
X-86092Y37703D01*
Y37513D01*
X-85790Y36784D01*
X-85232Y36226D01*
X-84503Y35924D01*
X-83713D01*
X-83405Y36051D01*
X-82839Y35204D01*
X-92341Y25702D01*
X-97561D01*
X-98146Y25585D01*
X-98642Y25254D01*
X-110582Y13314D01*
X-110914Y12818D01*
X-111030Y12232D01*
Y10040D01*
X-112030Y9523D01*
X-112912Y10150D01*
X-112986Y10183D01*
X-113051Y10233D01*
X-114597Y10997D01*
X-114676Y11018D01*
X-114748Y11056D01*
X-116395Y11566D01*
X-116477Y11575D01*
X-116553Y11602D01*
X-117834Y11783D01*
Y22622D01*
X-116834Y23037D01*
X-114866Y21068D01*
Y20852D01*
X-114564Y20122D01*
X-114005Y19564D01*
X-113276Y19262D01*
X-112487D01*
X-111758Y19564D01*
X-111199Y20122D01*
X-110897Y20852D01*
Y21641D01*
X-111199Y22370D01*
X-111758Y22929D01*
X-112487Y23231D01*
X-112703D01*
X-114797Y25324D01*
Y26950D01*
X-114427Y27156D01*
X-114357Y27216D01*
X-114276Y27259D01*
X-113264Y28093D01*
X-113206Y28164D01*
X-113135Y28221D01*
X-112287Y29222D01*
X-112243Y29302D01*
X-112182Y29371D01*
X-111527Y30506D01*
X-111497Y30593D01*
X-111450Y30672D01*
X-111007Y31906D01*
X-110994Y31996D01*
X-110961Y32082D01*
X-110745Y33375D01*
X-110748Y33467D01*
X-110731Y33557D01*
X-110749Y34868D01*
X-110768Y34958D01*
X-110768Y35049D01*
X-111019Y36336D01*
X-111053Y36421D01*
X-111069Y36511D01*
X-111319Y37151D01*
X-99134Y44186D01*
X-98330Y43159D01*
D02*
G37*
G36*
X49869Y24022D02*
Y17769D01*
X45512D01*
X44618Y18662D01*
Y21358D01*
Y23433D01*
X41847D01*
Y24433D01*
X44618D01*
Y26508D01*
X43376D01*
Y28400D01*
X43260Y28985D01*
X42928Y29482D01*
X42446Y29963D01*
X42455Y30022D01*
X43522Y30369D01*
X49869Y24022D01*
D02*
G37*
G36*
X-39048Y31951D02*
X-38552Y31620D01*
X-37967Y31503D01*
X-31452D01*
Y30351D01*
X-28630D01*
X-28429Y30150D01*
X-28428Y30145D01*
X-28096Y29648D01*
X-26612Y28164D01*
X-26995Y27240D01*
X-28354D01*
Y24642D01*
X-28854D01*
Y24142D01*
X-31347D01*
Y22043D01*
X-30449D01*
Y20028D01*
X-30666Y19810D01*
X-30925Y19186D01*
X-27044D01*
X-27302Y19810D01*
X-27390Y19898D01*
Y22043D01*
X-21425D01*
Y23112D01*
X-19044D01*
X-18969Y23037D01*
Y22030D01*
X-18696Y21015D01*
X-18171Y20105D01*
X-17428Y19362D01*
X-16517Y18836D01*
X-15502Y18564D01*
X-14451D01*
X-13435Y18836D01*
X-12525Y19362D01*
X-11782Y20105D01*
X-11256Y21015D01*
X-10984Y22030D01*
Y22639D01*
X-10934Y22730D01*
X-10210Y23334D01*
X-10032Y23392D01*
X-9933Y23372D01*
X-2274D01*
X-2088Y22465D01*
X-2108Y22372D01*
X-2570Y22063D01*
X-9984Y14649D01*
X-10984Y15063D01*
Y16548D01*
X-18969D01*
Y9593D01*
X-24103D01*
X-30801Y16291D01*
X-30108Y17004D01*
X-29484Y16746D01*
Y18186D01*
X-30925D01*
X-30666Y17562D01*
X-31379Y16869D01*
X-44471Y29961D01*
Y35959D01*
X-43471Y36373D01*
X-39048Y31951D01*
D02*
G37*
G36*
X-93495Y21719D02*
X-103138Y12076D01*
X-104196D01*
X-104377Y12258D01*
X-105106Y12560D01*
X-105596D01*
X-106082Y13460D01*
X-106087Y13484D01*
X-96927Y22643D01*
X-93878D01*
X-93495Y21719D01*
D02*
G37*
G36*
X6543Y18452D02*
X5113Y17023D01*
X5083D01*
X4354Y16721D01*
X3795Y16162D01*
X3537Y15538D01*
X7955D01*
X8770Y16354D01*
X11450D01*
Y15284D01*
X13442D01*
Y17883D01*
X14442D01*
Y15284D01*
X21372D01*
Y15829D01*
X22372Y16103D01*
X27696Y10779D01*
X27313Y9855D01*
X-5857D01*
X-6443Y9738D01*
X-6659Y9593D01*
X-10984D01*
Y11027D01*
X-9914D01*
X-9329Y11143D01*
X-8833Y11475D01*
X-855Y19452D01*
X6129D01*
X6543Y18452D01*
D02*
G37*
G36*
X21023Y-3148D02*
X31916D01*
X32894Y-4127D01*
X32512Y-5051D01*
X23057D01*
Y-6343D01*
X10558D01*
X10405Y-6190D01*
X9676Y-5888D01*
X8887D01*
X8239Y-5455D01*
Y-1787D01*
X8887Y-1354D01*
X9676D01*
X10405Y-1052D01*
X10558Y-900D01*
X21023D01*
Y-3148D01*
D02*
G37*
G36*
X-105183Y-5222D02*
Y-8257D01*
X-104220D01*
Y-13084D01*
X-104104Y-13670D01*
X-103772Y-14166D01*
X-75651Y-42287D01*
X-75155Y-42619D01*
X-74569Y-42735D01*
X-45145D01*
X-44559Y-42619D01*
X-44063Y-42287D01*
X-38674Y-36898D01*
X-37674Y-37312D01*
Y-37648D01*
X-37372Y-38378D01*
X-36814Y-38936D01*
X-36084Y-39238D01*
X-35806Y-40212D01*
X-35919Y-40601D01*
X-37143Y-41307D01*
X-37204Y-41360D01*
X-37276Y-41399D01*
X-38615Y-42486D01*
X-38667Y-42549D01*
X-38732Y-42598D01*
X-39882Y-43883D01*
X-39923Y-43954D01*
X-39980Y-44012D01*
X-40912Y-45464D01*
X-40942Y-45540D01*
X-40988Y-45606D01*
X-41679Y-47187D01*
X-41696Y-47267D01*
X-41732Y-47340D01*
X-42163Y-49010D01*
X-42168Y-49091D01*
X-42191Y-49169D01*
X-42353Y-50887D01*
X-42345Y-50968D01*
X-42356Y-51049D01*
X-42244Y-52770D01*
X-42223Y-52849D01*
X-42221Y-52930D01*
X-41838Y-54612D01*
X-41805Y-54686D01*
X-41790Y-54766D01*
X-41300Y-55984D01*
X-53485Y-63019D01*
X-53915Y-62482D01*
X-53986Y-62423D01*
X-54042Y-62351D01*
X-55031Y-61490D01*
X-55110Y-61445D01*
X-55178Y-61383D01*
X-56305Y-60712D01*
X-56391Y-60682D01*
X-56469Y-60633D01*
X-57697Y-60174D01*
X-57788Y-60159D01*
X-57873Y-60126D01*
X-59163Y-59892D01*
X-59254Y-59894D01*
X-59345Y-59876D01*
X-60655D01*
X-60746Y-59894D01*
X-60837Y-59892D01*
X-62127Y-60126D01*
X-62213Y-60159D01*
X-62303Y-60174D01*
X-63531Y-60633D01*
X-63609Y-60682D01*
X-63695Y-60712D01*
X-64822Y-61383D01*
X-64890Y-61445D01*
X-64969Y-61490D01*
X-65958Y-62351D01*
X-66014Y-62423D01*
X-66085Y-62482D01*
X-66515Y-63019D01*
X-78679Y-55995D01*
X-78192Y-54786D01*
X-78176Y-54706D01*
X-78143Y-54631D01*
X-77759Y-52949D01*
X-77757Y-52868D01*
X-77736Y-52789D01*
X-77623Y-51068D01*
X-77634Y-50987D01*
X-77626Y-50906D01*
X-77787Y-49189D01*
X-77810Y-49111D01*
X-77815Y-49029D01*
X-78245Y-47359D01*
X-78281Y-47286D01*
X-78298Y-47206D01*
X-78988Y-45625D01*
X-79034Y-45558D01*
X-79064Y-45482D01*
X-79995Y-44030D01*
X-80052Y-43971D01*
X-80093Y-43901D01*
X-81242Y-42615D01*
X-81307Y-42566D01*
X-81359Y-42503D01*
X-82697Y-41415D01*
X-82769Y-41377D01*
X-82831Y-41323D01*
X-84324Y-40460D01*
X-84401Y-40434D01*
X-84470Y-40390D01*
X-86082Y-39775D01*
X-86162Y-39761D01*
X-86237Y-39729D01*
X-87925Y-39376D01*
X-88007Y-39375D01*
X-88086Y-39355D01*
X-89809Y-39274D01*
X-89889Y-39286D01*
X-89971Y-39279D01*
X-91685Y-39472D01*
X-91763Y-39496D01*
X-91844Y-39502D01*
X-92753Y-39755D01*
X-93753Y-38994D01*
Y-29204D01*
X-93697Y-29148D01*
X-93395Y-28419D01*
Y-27630D01*
X-93697Y-26900D01*
X-94256Y-26342D01*
X-94985Y-26040D01*
X-95774D01*
X-96504Y-26342D01*
X-97062Y-26900D01*
X-97364Y-27630D01*
Y-28419D01*
X-97062Y-29148D01*
X-96812Y-29398D01*
Y-41648D01*
X-96789Y-41764D01*
X-96802Y-41773D01*
X-96860Y-41831D01*
X-96930Y-41874D01*
X-98195Y-43046D01*
X-98243Y-43112D01*
X-98304Y-43165D01*
X-99114Y-44198D01*
X-111319Y-37151D01*
X-111069Y-36511D01*
X-111053Y-36421D01*
X-111019Y-36336D01*
X-110768Y-35049D01*
X-110768Y-34958D01*
X-110749Y-34868D01*
X-110731Y-33557D01*
X-110748Y-33467D01*
X-110745Y-33375D01*
X-110961Y-32082D01*
X-110994Y-31996D01*
X-111007Y-31906D01*
X-111450Y-30672D01*
X-111497Y-30593D01*
X-111527Y-30506D01*
X-112182Y-29371D01*
X-112243Y-29302D01*
X-112287Y-29222D01*
X-113135Y-28221D01*
X-113206Y-28164D01*
X-113264Y-28093D01*
X-114276Y-27259D01*
X-114357Y-27216D01*
X-114427Y-27157D01*
X-115571Y-26516D01*
X-115658Y-26488D01*
X-115737Y-26442D01*
X-116977Y-26016D01*
X-117068Y-26003D01*
X-117154Y-25972D01*
X-117834Y-25868D01*
Y-11807D01*
X-116561Y-11627D01*
X-116484Y-11600D01*
X-116403Y-11592D01*
X-114754Y-11083D01*
X-114683Y-11044D01*
X-114604Y-11023D01*
X-113057Y-10260D01*
X-112993Y-10211D01*
X-112918Y-10177D01*
X-111511Y-9179D01*
X-111455Y-9120D01*
X-111387Y-9075D01*
X-111171Y-8863D01*
X-110867Y-8872D01*
X-110056Y-9170D01*
X-109869Y-9622D01*
X-109310Y-10180D01*
X-108581Y-10482D01*
X-107792D01*
X-107062Y-10180D01*
X-106504Y-9622D01*
X-106202Y-8892D01*
Y-8103D01*
X-106504Y-7374D01*
X-107062Y-6815D01*
X-107571Y-6605D01*
X-108605Y-5571D01*
X-108148Y-4687D01*
X-108125Y-4609D01*
X-108085Y-4538D01*
X-107886Y-3934D01*
X-106744Y-3662D01*
X-105183Y-5222D01*
D02*
G37*
G36*
X-116697Y10592D02*
X-115049Y10082D01*
X-113502Y9318D01*
X-112096Y8319D01*
X-110866Y7111D01*
X-109842Y5722D01*
X-109051Y4189D01*
X-108513Y2550D01*
X-108240Y847D01*
X-108241Y-878D01*
X-108514Y-2581D01*
X-109054Y-4219D01*
X-109846Y-5752D01*
X-110870Y-7140D01*
X-112101Y-8348D01*
X-113508Y-9346D01*
X-115055Y-10109D01*
X-116703Y-10617D01*
X-118411Y-10859D01*
X-119274Y-10843D01*
Y-10843D01*
X-119267Y10819D01*
X-118405Y10835D01*
X-116697Y10592D01*
D02*
G37*
G36*
X6847Y3872D02*
X5628Y2653D01*
X5297Y2157D01*
X5180Y1571D01*
Y-13110D01*
X5013Y-13222D01*
X4013Y-12687D01*
Y-12596D01*
X-4089D01*
Y-12690D01*
X-5013Y-13073D01*
X-7071Y-11014D01*
X-7567Y-10683D01*
X-8153Y-10566D01*
X-27878D01*
X-28292Y-9566D01*
X-22922Y-4196D01*
X-14021D01*
X-13436Y-4080D01*
X-12940Y-3748D01*
X-4395Y4796D01*
X6465D01*
X6847Y3872D01*
D02*
G37*
G36*
X91086Y-14235D02*
X90703Y-15158D01*
X88882D01*
Y-17037D01*
X91260D01*
Y-18036D01*
X88882D01*
Y-19670D01*
X88882Y-19914D01*
X88882D01*
Y-20114D01*
X88709Y-20327D01*
X87808Y-20567D01*
Y-20567D01*
X83616D01*
X82310Y-19260D01*
X82724Y-18260D01*
X84131D01*
Y-15772D01*
Y-13283D01*
X83616D01*
X82522Y-12189D01*
X82905Y-11265D01*
X88116D01*
X91086Y-14235D01*
D02*
G37*
G36*
X23057Y-11217D02*
X35986D01*
X36604Y-12014D01*
X23686Y-24931D01*
X20730D01*
X20582Y-24961D01*
X19408D01*
X19207Y-24760D01*
X19206Y-24754D01*
X18874Y-24258D01*
X16364Y-21748D01*
X15868Y-21416D01*
X15283Y-21300D01*
X4764D01*
X4013Y-20698D01*
Y-18176D01*
X4653D01*
X5238Y-18060D01*
X5734Y-17728D01*
X7791Y-15671D01*
X8123Y-15175D01*
X8239Y-14590D01*
Y-10289D01*
X8887Y-9856D01*
X9676D01*
X10405Y-9554D01*
X10558Y-9402D01*
X23057D01*
Y-11217D01*
D02*
G37*
G36*
X908Y-26610D02*
X2211Y-27057D01*
X3413Y-27729D01*
X4477Y-28604D01*
X5368Y-29655D01*
X6058Y-30847D01*
X6525Y-32142D01*
X6754Y-33501D01*
X6738Y-34878D01*
X6477Y-36230D01*
X5980Y-37515D01*
X5621Y-38103D01*
X-945Y-34321D01*
X-7511Y-38103D01*
X-7870Y-37515D01*
X-8367Y-36230D01*
X-8628Y-34878D01*
X-8644Y-33501D01*
X-8415Y-32142D01*
X-7948Y-30847D01*
X-7258Y-29655D01*
X-6367Y-28604D01*
X-5303Y-27729D01*
X-4101Y-27057D01*
X-2798Y-26610D01*
X-1436Y-26401D01*
X-945Y-26414D01*
X-454Y-26401D01*
X908Y-26610D01*
D02*
G37*
G36*
X-13548Y-14625D02*
X-13813Y-15083D01*
X-14089Y-16114D01*
Y-17180D01*
X-13813Y-18211D01*
X-13280Y-19134D01*
X-13216Y-19198D01*
X-13237Y-19229D01*
X-13353Y-19814D01*
Y-22260D01*
X-14423D01*
Y-28115D01*
X-17576D01*
Y-22169D01*
X-18508D01*
Y-20431D01*
X-18474Y-20422D01*
X-17550Y-19889D01*
X-16796Y-19134D01*
X-16263Y-18211D01*
X-15987Y-17180D01*
Y-16114D01*
X-16263Y-15083D01*
X-16527Y-14625D01*
X-15975Y-13625D01*
X-14101D01*
X-13548Y-14625D01*
D02*
G37*
G36*
X-33606Y-11616D02*
X-36970Y-14980D01*
X-37302Y-15476D01*
X-37418Y-16062D01*
Y-27588D01*
X-38317Y-28486D01*
X-39433Y-28189D01*
X-39543Y-27924D01*
X-39559Y-27909D01*
Y-14442D01*
X-39269Y-14152D01*
X-38967Y-13423D01*
Y-12633D01*
X-39269Y-11904D01*
X-39516Y-11657D01*
X-39544Y-11580D01*
X-39176Y-10616D01*
X-34020D01*
X-33606Y-11616D01*
D02*
G37*
G36*
X-7425Y-19940D02*
X-6545Y-20298D01*
X-6529Y-20378D01*
X-6197Y-20874D01*
X-3161Y-23911D01*
X-2664Y-24242D01*
X-2079Y-24359D01*
X11557D01*
X12308Y-24961D01*
Y-27889D01*
X11206Y-28991D01*
X6142D01*
X5254Y-27945D01*
X5182Y-27888D01*
X5124Y-27817D01*
X4061Y-26942D01*
X3980Y-26899D01*
X3910Y-26839D01*
X2708Y-26167D01*
X2621Y-26139D01*
X2542Y-26093D01*
X1239Y-25646D01*
X1148Y-25633D01*
X1062Y-25602D01*
X-299Y-25394D01*
X-391Y-25398D01*
X-481Y-25382D01*
X-945Y-25394D01*
X-1409Y-25382D01*
X-1499Y-25398D01*
X-1591Y-25394D01*
X-2952Y-25602D01*
X-3038Y-25633D01*
X-3129Y-25646D01*
X-4432Y-26093D01*
X-4511Y-26139D01*
X-4598Y-26167D01*
X-5800Y-26839D01*
X-5870Y-26899D01*
X-5951Y-26942D01*
X-7014Y-27817D01*
X-7073Y-27888D01*
X-7144Y-27945D01*
X-8035Y-28995D01*
X-8080Y-29075D01*
X-8140Y-29144D01*
X-8225Y-29291D01*
X-9225Y-29022D01*
Y-27245D01*
Y-22260D01*
X-10294D01*
Y-20698D01*
X-9504D01*
X-8474Y-20422D01*
X-7614Y-19925D01*
X-7425Y-19940D01*
D02*
G37*
G36*
X-67157Y-21035D02*
X-66660Y-21366D01*
X-66075Y-21482D01*
X-46490D01*
X-45904Y-21366D01*
X-45408Y-21035D01*
X-43617Y-19244D01*
X-42617Y-19658D01*
Y-27635D01*
X-42907Y-27924D01*
X-43209Y-28654D01*
Y-29443D01*
X-43951Y-30265D01*
X-51377D01*
X-55598Y-26045D01*
Y-25781D01*
X-55900Y-25051D01*
X-56458Y-24493D01*
X-57188Y-24191D01*
X-57977D01*
X-58706Y-24493D01*
X-59264Y-25051D01*
X-59567Y-25781D01*
Y-26570D01*
X-59264Y-27299D01*
X-58706Y-27858D01*
X-57977Y-28160D01*
X-57809D01*
X-53630Y-32338D01*
X-53389Y-33268D01*
X-53683Y-33656D01*
X-54131Y-34104D01*
X-54669Y-35037D01*
X-54948Y-36077D01*
Y-37154D01*
X-54669Y-38194D01*
X-54391Y-38677D01*
X-54932Y-39677D01*
X-56783D01*
X-57324Y-38677D01*
X-57046Y-38194D01*
X-56767Y-37154D01*
Y-36077D01*
X-57046Y-35037D01*
X-57584Y-34104D01*
X-58346Y-33342D01*
X-59279Y-32804D01*
X-60319Y-32525D01*
X-61396D01*
X-62436Y-32804D01*
X-63369Y-33342D01*
X-64131Y-34104D01*
X-64669Y-35037D01*
X-64948Y-36077D01*
Y-37154D01*
X-64669Y-38194D01*
X-64391Y-38677D01*
X-64932Y-39677D01*
X-66767D01*
Y-32525D01*
X-74948D01*
Y-37358D01*
X-75872Y-37741D01*
X-91894Y-21718D01*
X-91480Y-20718D01*
X-84080D01*
Y-14897D01*
X-81645Y-12462D01*
X-80987Y-12744D01*
X-80726Y-12957D01*
Y-13645D01*
X-80424Y-14374D01*
X-79866Y-14932D01*
X-79636Y-15028D01*
Y-25890D01*
X-79788Y-26043D01*
X-80090Y-26772D01*
Y-27562D01*
X-79788Y-28291D01*
X-79230Y-28849D01*
X-78501Y-29151D01*
X-77711D01*
X-76982Y-28849D01*
X-76424Y-28291D01*
X-76122Y-27562D01*
Y-26772D01*
X-76424Y-26043D01*
X-76577Y-25890D01*
Y-14148D01*
X-76693Y-13562D01*
X-76758Y-13466D01*
Y-12855D01*
X-76763Y-12843D01*
X-75915Y-12276D01*
X-67157Y-21035D01*
D02*
G37*
G36*
X-23548Y-14625D02*
X-23813Y-15083D01*
X-24089Y-16114D01*
Y-17180D01*
X-23813Y-18211D01*
X-23280Y-19134D01*
X-22525Y-19889D01*
X-21601Y-20422D01*
X-21567Y-20431D01*
Y-22169D01*
X-22774D01*
Y-27154D01*
Y-29098D01*
X-20175D01*
Y-29599D01*
X-19675D01*
Y-32155D01*
X-16826Y-35005D01*
X-12645D01*
X-12903Y-34381D01*
X-13461Y-33823D01*
X-13838Y-33667D01*
X-14323Y-33182D01*
X-13909Y-32182D01*
X-12324D01*
Y-29689D01*
X-11324D01*
Y-32182D01*
X-10230D01*
X-9584Y-32945D01*
X-9649Y-33331D01*
X-9647Y-33423D01*
X-9663Y-33512D01*
X-9647Y-34890D01*
X-9629Y-34979D01*
X-9629Y-35071D01*
X-9368Y-36424D01*
X-9334Y-36508D01*
X-9318Y-36598D01*
X-9027Y-37351D01*
X-20866Y-44186D01*
X-21670Y-43159D01*
X-21732Y-43105D01*
X-21779Y-43039D01*
X-23044Y-41866D01*
X-23113Y-41824D01*
X-23171Y-41766D01*
X-24605Y-40808D01*
X-24681Y-40777D01*
X-24747Y-40729D01*
X-26314Y-40009D01*
X-26394Y-39991D01*
X-26466Y-39954D01*
X-28128Y-39492D01*
X-28209Y-39486D01*
X-28287Y-39461D01*
X-30001Y-39268D01*
X-30082Y-39274D01*
X-30163Y-39262D01*
X-31458Y-39323D01*
X-33705Y-37075D01*
Y-36859D01*
X-34008Y-36130D01*
X-34566Y-35572D01*
X-35295Y-35270D01*
X-35631D01*
X-36045Y-34270D01*
X-33540Y-31764D01*
X-32539Y-32178D01*
Y-32293D01*
X-27342D01*
Y-27356D01*
Y-22371D01*
X-28508D01*
Y-20431D01*
X-28474Y-20422D01*
X-27550Y-19889D01*
X-26796Y-19134D01*
X-26263Y-18211D01*
X-25987Y-17180D01*
Y-16114D01*
X-26263Y-15083D01*
X-26527Y-14625D01*
X-25975Y-13625D01*
X-24101D01*
X-23548Y-14625D01*
D02*
G37*
G36*
X117383Y-26799D02*
X117383Y-26799D01*
X117374Y-34209D01*
X110961Y-37921D01*
X110618Y-37363D01*
X110142Y-36141D01*
X109892Y-34854D01*
X109874Y-33543D01*
X110090Y-32250D01*
X110533Y-31016D01*
X111188Y-29881D01*
X112036Y-28880D01*
X113048Y-28046D01*
X114192Y-27406D01*
X115431Y-26980D01*
X116727Y-26781D01*
X117383Y-26799D01*
D02*
G37*
G36*
X-117309Y-26980D02*
X-116069Y-27406D01*
X-114925Y-28046D01*
X-113913Y-28880D01*
X-113065Y-29881D01*
X-112410Y-31016D01*
X-111967Y-32250D01*
X-111751Y-33543D01*
X-111769Y-34854D01*
X-112019Y-36141D01*
X-112495Y-37363D01*
X-112838Y-37921D01*
X-112838Y-37921D01*
X-119251Y-34209D01*
X-119260Y-26799D01*
X-118605Y-26781D01*
X-117309Y-26980D01*
D02*
G37*
G36*
X5621Y-38103D02*
X5621D01*
D01*
X5621D01*
D02*
G37*
G36*
X-40426Y-34324D02*
X-45778Y-39677D01*
X-46783D01*
X-47324Y-38677D01*
X-47046Y-38194D01*
X-46767Y-37154D01*
Y-36077D01*
X-47046Y-35037D01*
X-47457Y-34324D01*
X-47196Y-33627D01*
X-46950Y-33324D01*
X-40840D01*
X-40426Y-34324D01*
D02*
G37*
G36*
X-28401Y-40474D02*
X-26739Y-40936D01*
X-25172Y-41655D01*
X-23737Y-42614D01*
X-22473Y-43787D01*
X-21410Y-45145D01*
X-20992Y-45900D01*
X-39756Y-56725D01*
X-40200Y-55986D01*
X-40844Y-54386D01*
X-41227Y-52704D01*
X-41338Y-50983D01*
X-41176Y-49265D01*
X-40745Y-47595D01*
X-40054Y-46015D01*
X-39122Y-44563D01*
X-37972Y-43277D01*
X-36633Y-42190D01*
X-35139Y-41328D01*
X-33527Y-40713D01*
X-31839Y-40361D01*
X-30116Y-40281D01*
X-28401Y-40474D01*
D02*
G37*
G36*
X-88134Y-40374D02*
X-86446Y-40727D01*
X-84834Y-41343D01*
X-83341Y-42206D01*
X-82003Y-43294D01*
X-80853Y-44581D01*
X-79922Y-46033D01*
X-79233Y-47614D01*
X-78802Y-49284D01*
X-78641Y-51001D01*
X-78754Y-52723D01*
X-79137Y-54404D01*
X-79782Y-56004D01*
X-80227Y-56743D01*
Y-56743D01*
X-98984Y-45906D01*
X-98566Y-45152D01*
X-97502Y-43794D01*
X-96236Y-42621D01*
X-94802Y-41664D01*
X-93233Y-40946D01*
X-91571Y-40485D01*
X-89857Y-40293D01*
X-88134Y-40374D01*
D02*
G37*
G36*
X60056Y-61129D02*
X61284Y-61589D01*
X62410Y-62259D01*
X63399Y-63120D01*
X64219Y-64143D01*
X64531Y-64719D01*
X58110Y-68416D01*
X51688Y-64719D01*
X52001Y-64143D01*
X52821Y-63120D01*
X53810Y-62259D01*
X54936Y-61589D01*
X56164Y-61129D01*
X57455Y-60896D01*
X58766D01*
X60056Y-61129D01*
D02*
G37*
G36*
X-58054D02*
X-56826Y-61589D01*
X-55700Y-62259D01*
X-54711Y-63120D01*
X-53891Y-64143D01*
X-53579Y-64719D01*
X-60000Y-68416D01*
X-66422Y-64719D01*
X-66109Y-64143D01*
X-65289Y-63120D01*
X-64300Y-62259D01*
X-63174Y-61589D01*
X-61946Y-61129D01*
X-60655Y-60896D01*
X-59345D01*
X-58054Y-61129D01*
D02*
G37*
%LPC*%
G36*
X73618Y44152D02*
Y40897D01*
X76872D01*
X76618Y41847D01*
X76123Y42704D01*
X75424Y43403D01*
X74568Y43897D01*
X73618Y44152D01*
D02*
G37*
G36*
X72618D02*
X71668Y43897D01*
X70812Y43403D01*
X70112Y42704D01*
X69618Y41847D01*
X69363Y40897D01*
X72618D01*
Y44152D01*
D02*
G37*
G36*
Y39897D02*
X69363D01*
X69618Y38948D01*
X70112Y38091D01*
X70812Y37392D01*
X71668Y36897D01*
X72618Y36643D01*
Y39897D01*
D02*
G37*
G36*
X76872D02*
X73618D01*
Y36643D01*
X74568Y36897D01*
X74815Y37040D01*
X83217Y28638D01*
Y18078D01*
X82257D01*
Y15400D01*
X84746D01*
X87235D01*
Y18078D01*
X86276D01*
Y29272D01*
X86159Y29857D01*
X85827Y30353D01*
X76748Y39433D01*
X76872Y39897D01*
D02*
G37*
G36*
X40771Y-37090D02*
X40725D01*
Y-40740D01*
X44374D01*
Y-40694D01*
X44092Y-39638D01*
X43545Y-38692D01*
X42773Y-37919D01*
X41827Y-37373D01*
X40771Y-37090D01*
D02*
G37*
G36*
X39725D02*
X39679D01*
X38623Y-37373D01*
X37677Y-37919D01*
X36904Y-38692D01*
X36358Y-39638D01*
X36075Y-40694D01*
Y-40740D01*
X39725D01*
Y-37090D01*
D02*
G37*
G36*
X61648Y-39788D02*
X56699D01*
Y-42746D01*
X44975D01*
X44299Y-42069D01*
X44374Y-41786D01*
Y-41740D01*
X40725D01*
Y-45390D01*
X40771D01*
X41054Y-45314D01*
X42403Y-46662D01*
X43147Y-47159D01*
X44025Y-47334D01*
X56699D01*
Y-50292D01*
X61648D01*
Y-45040D01*
Y-39788D01*
D02*
G37*
G36*
X30642Y-38074D02*
X29808D01*
X29003Y-38290D01*
X28281Y-38707D01*
X27692Y-39296D01*
X27275Y-40018D01*
X27060Y-40823D01*
Y-41657D01*
X27275Y-42462D01*
X27692Y-43183D01*
X28281Y-43773D01*
X29003Y-44190D01*
X29808Y-44405D01*
X30642D01*
X31447Y-44190D01*
X32168Y-43773D01*
X32758Y-43183D01*
X33174Y-42462D01*
X33390Y-41657D01*
Y-40823D01*
X33174Y-40018D01*
X32758Y-39296D01*
X32168Y-38707D01*
X31447Y-38290D01*
X30642Y-38074D01*
D02*
G37*
G36*
X39725Y-41740D02*
X36075D01*
Y-41786D01*
X36358Y-42842D01*
X36904Y-43788D01*
X37677Y-44560D01*
X38623Y-45107D01*
X39679Y-45390D01*
X39725D01*
Y-41740D01*
D02*
G37*
G36*
X-55790Y36777D02*
X-57888D01*
Y34784D01*
X-55790D01*
Y36777D01*
D02*
G37*
G36*
X-31320Y10460D02*
Y9019D01*
X-29880D01*
X-30138Y9643D01*
X-30696Y10201D01*
X-31320Y10460D01*
D02*
G37*
G36*
X-32320D02*
X-32944Y10201D01*
X-33502Y9643D01*
X-33761Y9019D01*
X-32320D01*
Y10460D01*
D02*
G37*
G36*
X-36671Y9308D02*
X-37460D01*
X-38189Y9006D01*
X-38748Y8448D01*
X-39050Y7719D01*
Y7353D01*
X-39624Y6778D01*
X-39956Y6282D01*
X-40072Y5697D01*
Y5384D01*
X-41118D01*
Y478D01*
X-41118Y234D01*
Y-522D01*
X-41118Y-766D01*
Y-5672D01*
X-35968D01*
Y-5476D01*
X-35199Y-4918D01*
X-29459D01*
Y3D01*
Y2078D01*
X-32329D01*
Y3078D01*
X-29459D01*
Y5153D01*
X-30800D01*
Y6794D01*
X-30696Y6837D01*
X-30138Y7395D01*
X-29880Y8019D01*
X-33805D01*
X-33859Y7748D01*
Y5153D01*
X-35016D01*
X-35569Y5953D01*
X-35425Y6158D01*
X-35383Y6200D01*
X-35081Y6929D01*
Y7719D01*
X-35383Y8448D01*
X-35941Y9006D01*
X-36671Y9308D01*
D02*
G37*
G36*
X-29354Y27240D02*
X-31347D01*
Y25142D01*
X-29354D01*
Y27240D01*
D02*
G37*
G36*
X-27044Y18186D02*
X-28484D01*
Y16746D01*
X-27860Y17004D01*
X-27302Y17562D01*
X-27044Y18186D01*
D02*
G37*
G36*
X7418Y14538D02*
X5977D01*
Y13098D01*
X6601Y13356D01*
X7160Y13914D01*
X7418Y14538D01*
D02*
G37*
G36*
X4978D02*
X3537D01*
X3795Y13914D01*
X4354Y13356D01*
X4978Y13098D01*
Y14538D01*
D02*
G37*
G36*
X87808Y-13283D02*
X85131D01*
Y-15272D01*
X87808D01*
Y-13283D01*
D02*
G37*
G36*
Y-16272D02*
X85131D01*
Y-18260D01*
X87808D01*
Y-16272D01*
D02*
G37*
G36*
X-20675Y-30099D02*
X-22774D01*
Y-32091D01*
X-20675D01*
Y-30099D01*
D02*
G37*
G36*
X-12645Y-36005D02*
X-14085D01*
Y-37445D01*
X-13461Y-37187D01*
X-12903Y-36629D01*
X-12645Y-36005D01*
D02*
G37*
G36*
X-15085D02*
X-16526D01*
X-16267Y-36629D01*
X-15709Y-37187D01*
X-15085Y-37445D01*
Y-36005D01*
D02*
G37*
%LPD*%
D13*
X70374Y-4403D02*
X70574Y-4603D01*
X70417Y-2723D02*
X70526Y-2832D01*
X70363Y-2723D02*
X70417D01*
X70440Y7132D02*
X70492Y7184D01*
X70308Y-8185D02*
X70363Y-8239D01*
X-66075Y-19953D02*
X-46490D01*
X-80433Y-9086D02*
X-76942D01*
X-66075Y-19953D01*
X-40523Y-9086D02*
X-29975D01*
X-44235Y-12799D02*
X-40523Y-9086D01*
X-44235Y-17698D02*
Y-12799D01*
X-46490Y-19953D02*
X-44235Y-17698D01*
X-70192Y29265D02*
X-58080Y17154D01*
X-88150Y41924D02*
X-84108Y37882D01*
X-88150Y41924D02*
Y48780D01*
X-42979Y17154D02*
X-42371Y17762D01*
X-58030Y17154D02*
X-42979D01*
X-58080D02*
X-58030D01*
X-53418Y31292D02*
X-43892Y21765D01*
X-65580Y31292D02*
X-53418D01*
X-91707Y24172D02*
X-79014Y36866D01*
X-78939Y34112D02*
X-66086D01*
X-68545Y36866D02*
X-68306Y37105D01*
X-97561Y24172D02*
X-91707D01*
X-102603Y10448D02*
X-78939Y34112D01*
X-105373Y10448D02*
X-102603D01*
X-79014Y36866D02*
X-68545D01*
X-64184Y37277D02*
X-58388D01*
X-65207Y34991D02*
Y36254D01*
X-64184Y37277D01*
X-66086Y34112D02*
X-65207Y34991D01*
X41847Y23933D02*
Y28400D01*
X39807Y30440D02*
X41847Y28400D01*
X8137Y17883D02*
X13942D01*
X-28919Y24577D02*
X-28854Y24642D01*
X-28919Y18751D02*
Y24577D01*
X-28984Y18686D02*
X-28919Y18751D01*
X68299Y16069D02*
X70374D01*
X71753D02*
X71953Y16269D01*
X5230Y14977D02*
X8137Y17883D01*
X70374Y16069D02*
X71753D01*
X-20175Y-29599D02*
X-20069D01*
X-20175D02*
X-20130Y-29644D01*
X-11869D02*
X-11824Y-29689D01*
X-14297Y-35370D02*
X-14248D01*
X-20130Y-29644D02*
X-11869D01*
X-20069Y-29599D02*
X-14297Y-35370D01*
X-105501Y10576D02*
X-105373Y10448D01*
X-31820Y8257D02*
Y8519D01*
X-32329Y7748D02*
X-31820Y8257D01*
X-32329Y2578D02*
Y7748D01*
X-105501Y9737D02*
Y10576D01*
X-103092Y2822D02*
Y7328D01*
X-105501Y9737D02*
X-103092Y7328D01*
X-35717Y36776D02*
X-31850Y40643D01*
Y48780D01*
X-37967Y33033D02*
X-29149D01*
X-42859Y37925D02*
Y53361D01*
Y37925D02*
X-37967Y33033D01*
X-29149D02*
X-27015Y30899D01*
X-38543Y5697D02*
X-37065Y7174D01*
X-38543Y2809D02*
Y5697D01*
Y-3097D02*
X-33083D01*
X-32329Y-2343D01*
X-41088Y-28912D02*
Y-13165D01*
X-40951Y-13028D01*
X-108137Y-8498D02*
Y-8202D01*
X-116339Y0D02*
X-108137Y-8202D01*
X-116326Y24691D02*
X-112882Y21246D01*
X-116326Y24691D02*
Y32520D01*
X-41225Y-29048D02*
X-41088Y-28912D01*
X-52011Y-31795D02*
X-39462D01*
X-35889Y-28221D01*
X-57582Y-26223D02*
X-52011Y-31795D01*
X-45145Y-41206D02*
X-33739Y-29801D01*
X-35889Y-28221D02*
Y-16062D01*
X-74569Y-41206D02*
X-45145D01*
X-33739Y-29801D02*
X-29941D01*
X24506Y-35764D02*
X24682Y-35939D01*
X19737Y-35764D02*
X24506D01*
X-35889Y-16062D02*
X-31923Y-12096D01*
X-8153D01*
X-5116Y-15133D01*
Y-19793D02*
Y-15133D01*
Y-19793D02*
X-2079Y-22829D01*
X15283D01*
X17793Y-25339D01*
Y-25508D02*
Y-25339D01*
Y-25508D02*
X19737Y-27453D01*
Y-27559D02*
Y-27453D01*
X70374Y10951D02*
X81486D01*
X84746Y14211D01*
Y14900D01*
X83942Y-15772D02*
X84631D01*
X80251Y-12080D02*
X83942Y-15772D01*
X70374Y-12080D02*
X80251D01*
X73611Y40407D02*
X84746Y29272D01*
Y14900D02*
Y29272D01*
X70174Y-11880D02*
X70374Y-12080D01*
X67137Y-11880D02*
X70174D01*
X64349Y-9093D02*
X67137Y-11880D01*
X64349Y-9093D02*
Y-6165D01*
X58749Y-565D02*
X64349Y-6165D01*
X58749Y-565D02*
Y1285D01*
X65763Y8299D01*
Y9377D01*
X67137Y10751D01*
X70174D01*
X70374Y10951D01*
Y13510D02*
X76474D01*
X77463Y14498D01*
Y14900D01*
X53433Y27413D02*
Y40397D01*
Y27413D02*
X67137Y13710D01*
X70174D01*
X70374Y13510D01*
X9281Y630D02*
X23702D01*
X24397Y-65D01*
X30704D02*
X30996D01*
X35334Y-4403D01*
X47124D01*
X33457Y19911D02*
X35479D01*
X41881Y13510D01*
X47124D01*
X9464Y4325D02*
X32893D01*
X31969Y14325D02*
X37035D01*
X-5857Y8325D02*
X34550D01*
X39631Y3510D02*
X42426Y715D01*
X-5029Y6325D02*
X33721D01*
X38194Y7510D02*
X41287D01*
X42964Y5833D01*
X37035Y14325D02*
X39851Y11510D01*
X31140Y12325D02*
X36206D01*
X40459Y5510D02*
X42695Y3274D01*
X33721Y6325D02*
X36537Y3510D01*
X39022Y9510D02*
X42116D01*
X30312Y10325D02*
X35378D01*
X32893Y4325D02*
X35708Y1510D01*
X36206Y12325D02*
X39022Y9510D01*
X37365Y5510D02*
X40459D01*
X36537Y3510D02*
X39631D01*
X37801Y1510D02*
X38037Y1274D01*
X35378Y10325D02*
X38194Y7510D01*
X42116Y9510D02*
X43234Y8392D01*
X39851Y11510D02*
X42944D01*
X43303Y11151D01*
X35708Y1510D02*
X37801D01*
X34550Y8325D02*
X37365Y5510D01*
X38037Y1274D02*
X39038D01*
X6710Y-14590D02*
Y1571D01*
X9464Y4325D01*
X4653Y-16647D02*
X6710Y-14590D01*
X9281Y-7872D02*
X26170D01*
X26432Y-8134D01*
X-38Y-16647D02*
X4653D01*
X39038Y1274D02*
X42156Y-1844D01*
X43303Y11151D02*
X46924D01*
X22811Y17826D02*
X30312Y10325D01*
X18936Y17826D02*
X22811D01*
X24349Y21945D02*
X31969Y14325D01*
X24349Y21945D02*
Y33466D01*
X-1489Y20982D02*
X22484D01*
X31140Y12325D01*
X-95282Y-41648D02*
Y-27927D01*
Y-41648D02*
X-88150Y-48780D01*
X-78742Y-13512D02*
Y-13250D01*
Y-13512D02*
X-78106Y-14148D01*
Y-27167D02*
Y-14148D01*
X-35690Y-37254D02*
X-31850Y-41094D01*
Y-48780D02*
Y-41094D01*
X-24737Y8064D02*
X-6119D01*
X-46000Y29327D02*
X-24737Y8064D01*
X-46000Y29327D02*
Y48396D01*
X-23555Y-2667D02*
X-14021D01*
X-6119Y8064D02*
X-5857Y8325D01*
X-14021Y-2667D02*
X-5029Y6325D01*
X-14976Y12556D02*
X-9914D01*
X-1489Y20982D01*
X36393Y43322D02*
X58110Y65039D01*
X33823Y43322D02*
X36393D01*
X32945Y42443D02*
X33823Y43322D01*
X32945Y42274D02*
Y42443D01*
X31000Y40330D02*
X32945Y42274D01*
X31000Y40223D02*
Y40330D01*
X47124Y13510D02*
X47324Y13710D01*
X50361D01*
X51399Y14747D01*
Y24655D01*
X35937Y40117D02*
X51399Y24655D01*
X35937Y40117D02*
Y40223D01*
X24349Y33466D02*
X31000Y40117D01*
Y40223D01*
X34074Y26238D02*
Y29402D01*
Y26238D02*
X39454Y20858D01*
X39803D01*
X41650Y19012D01*
X41847D01*
X5422Y24901D02*
X16031Y35511D01*
X-9933Y24901D02*
X5422D01*
X-12772Y27740D02*
X-9933Y24901D01*
X-24025Y27740D02*
X-12772D01*
X-27015Y30730D02*
X-24025Y27740D01*
X-27015Y30730D02*
Y30899D01*
X-24023Y32950D02*
X-23629Y32556D01*
X-14976D01*
X-58492Y42318D02*
Y50888D01*
Y42318D02*
X-58388Y42214D01*
X-68492Y42228D02*
Y50888D01*
Y42228D02*
X-68306Y42042D01*
X-69299Y38097D02*
X-68306Y37105D01*
X-69574Y38097D02*
X-69299D01*
X-72984Y41508D02*
X-69574Y38097D01*
X-72984Y41508D02*
Y52749D01*
X-70353Y55381D01*
X-44879D01*
X-42859Y53361D01*
X-102691Y-13084D02*
X-74569Y-41206D01*
X-102691Y-13084D02*
Y-5658D01*
Y-5552D01*
X-106592Y-1650D02*
X-102691Y-5552D01*
X-106592Y-1650D02*
Y4958D01*
X-109501Y7867D02*
X-106592Y4958D01*
X-109501Y7867D02*
Y12232D01*
X-97561Y24172D01*
X-48492Y50888D02*
X-46000Y48396D01*
X42695Y3274D02*
X47124D01*
X-10038Y-18028D02*
Y-16647D01*
X-11824Y-19814D02*
X-10038Y-18028D01*
X-11824Y-24752D02*
Y-19814D01*
X-20038Y-24524D02*
Y-16647D01*
X-20175Y-24661D02*
X-20038Y-24524D01*
X-30038Y-24767D02*
Y-16647D01*
Y-24767D02*
X-29941Y-24864D01*
X-29975Y-9086D02*
X-23555Y-2667D01*
X-88073Y-16726D02*
X-80433Y-9086D01*
X-98155Y2822D02*
X-97703Y3274D01*
X-88073D01*
X-96762Y-6726D02*
X-88073D01*
X-97754Y-5734D02*
X-96762Y-6726D01*
X-97754Y-5734D02*
Y-5658D01*
X-16325Y22556D02*
X-14976D01*
X-18411Y24642D02*
X-16325Y22556D01*
X-23917Y24642D02*
X-18411D01*
X42426Y715D02*
X47124D01*
X46924Y11151D02*
X47124Y10951D01*
X42964Y5833D02*
X47124D01*
X43234Y8392D02*
X47124D01*
X42156Y-1844D02*
X47124D01*
X41847Y19012D02*
X42922Y17937D01*
X43181D01*
X45049Y16069D01*
X47124D01*
X83642Y-24044D02*
X84631Y-23055D01*
X83942D02*
X84631D01*
X75526Y-14639D02*
X83942Y-23055D01*
X70374Y-14639D02*
X75526D01*
X70374Y-17198D02*
X72449D01*
X72649Y-17398D01*
Y-18417D02*
Y-17398D01*
Y-18417D02*
X73605Y-19374D01*
Y-19866D02*
Y-19374D01*
Y-19866D02*
X74988Y-21248D01*
X75480D01*
X91257Y-23052D02*
X91260Y-23048D01*
X84631Y-23055D02*
X84634Y-23052D01*
X18879Y17883D02*
X18936Y17826D01*
X33911Y-6962D02*
X47124D01*
X32739Y-8134D02*
X33911Y-6962D01*
X41259Y-9521D02*
X47124D01*
X24320Y-26460D02*
X41259Y-9521D01*
X-661Y-30520D02*
X134D01*
X2011Y-32397D01*
X14215D01*
X14800Y-32983D01*
Y-35764D02*
Y-32983D01*
X-661Y-30520D02*
X11840D01*
X13702Y-28658D01*
X13808D01*
X14800Y-27665D01*
Y-27559D01*
X19737Y-27453D02*
X20730Y-26460D01*
X24320D01*
X19737Y-35764D02*
X20730Y-34771D01*
Y-32977D01*
X41627Y-12080D01*
X47124D01*
X45049Y-17198D02*
X47124D01*
X44849Y-17398D02*
X45049Y-17198D01*
X44849Y-19597D02*
Y-17398D01*
X43745Y-20700D02*
X44849Y-19597D01*
X43396Y-20700D02*
X43745D01*
X41648Y-22449D02*
X43396Y-20700D01*
X41352Y-22449D02*
X41648D01*
X41352Y-17724D02*
X41648D01*
X42624Y-16748D01*
Y-16102D01*
X43887Y-14839D01*
X46924D01*
X47124Y-14639D01*
D16*
X-29941Y-24864D02*
D03*
Y-29801D02*
D03*
X-58388Y42214D02*
D03*
Y37277D02*
D03*
X-11824Y-29689D02*
D03*
X-20175Y-29599D02*
D03*
Y-24661D02*
D03*
X-11824Y-24752D02*
D03*
X-68306Y37105D02*
D03*
Y42042D02*
D03*
D17*
X70374Y-1844D02*
D03*
Y-4403D02*
D03*
Y3274D02*
D03*
Y715D02*
D03*
Y8392D02*
D03*
Y5833D02*
D03*
Y-6962D02*
D03*
Y-9521D02*
D03*
X47124Y3274D02*
D03*
Y715D02*
D03*
Y16069D02*
D03*
X70374Y-14639D02*
D03*
X47124Y-6962D02*
D03*
Y-12080D02*
D03*
Y10951D02*
D03*
X70374Y-17198D02*
D03*
X47124Y13510D02*
D03*
Y8392D02*
D03*
Y5833D02*
D03*
Y-1844D02*
D03*
Y-4403D02*
D03*
Y-9521D02*
D03*
Y-14639D02*
D03*
Y-17198D02*
D03*
X70374Y13510D02*
D03*
Y-12080D02*
D03*
Y10951D02*
D03*
Y16069D02*
D03*
D18*
X41847Y23933D02*
D03*
Y19012D02*
D03*
D19*
X-28854Y24642D02*
D03*
X13942Y17883D02*
D03*
X-103092Y2822D02*
D03*
X35937Y40223D02*
D03*
X31000D02*
D03*
X19737Y-27559D02*
D03*
X14800D02*
D03*
X19737Y-35764D02*
D03*
X14800D02*
D03*
X-98155Y2822D02*
D03*
X-102691Y-5658D02*
D03*
X-97754D02*
D03*
X-28960Y32950D02*
D03*
X-24023D02*
D03*
X-23917Y24642D02*
D03*
X18879Y17883D02*
D03*
D20*
X-32329Y2578D02*
D03*
Y-2343D02*
D03*
D21*
X-38543Y-3097D02*
D03*
Y2809D02*
D03*
D22*
X84631Y-15772D02*
D03*
Y-23055D02*
D03*
D23*
X84746Y14900D02*
D03*
X77463D02*
D03*
D24*
X91260Y-17537D02*
D03*
Y-23048D02*
D03*
D25*
X62148Y-45040D02*
D03*
Y-25749D02*
D03*
D26*
X75480Y-21248D02*
D03*
Y-29319D02*
D03*
D27*
X41352Y-22449D02*
D03*
Y-17724D02*
D03*
D28*
X24397Y-65D02*
D03*
X30704D02*
D03*
X32739Y-8134D02*
D03*
X26432D02*
D03*
D29*
X-116326Y32520D02*
D03*
X114449Y-32520D02*
D03*
X-116339Y0D02*
D03*
D30*
X-60000Y65039D02*
D03*
X58110Y-65039D02*
D03*
X-661Y30520D02*
D03*
X58110Y65039D02*
D03*
X-661Y-30520D02*
D03*
X-60000Y-65039D02*
D03*
X-31850Y-48780D02*
D03*
X-88150Y48780D02*
D03*
D31*
X-116326Y-32520D02*
D03*
X114449Y32520D02*
D03*
X-88150Y-48780D02*
D03*
X-31850Y48780D02*
D03*
D32*
X58749Y-565D02*
D03*
D40*
X-88073Y-16726D02*
D03*
X-14976Y12556D02*
D03*
D41*
X-88073Y-6726D02*
D03*
Y3274D02*
D03*
X-58492Y50888D02*
D03*
X-68492D02*
D03*
X-14976Y32556D02*
D03*
Y22556D02*
D03*
D47*
X-48492Y50888D02*
D03*
D48*
X-50858Y-36615D02*
D03*
X-60858D02*
D03*
D49*
X-70858D02*
D03*
D51*
X91260Y-17537D02*
X95485Y-21761D01*
D52*
Y-24827D02*
Y-21761D01*
X75273Y-45040D02*
X95485Y-24827D01*
X62148Y-45040D02*
X75273D01*
X40225Y-31240D02*
X56460D01*
X61951Y-25749D01*
X44025Y-45040D02*
X62148D01*
X40225Y-41240D02*
X44025Y-45040D01*
X61951Y-25749D02*
X65522Y-29319D01*
X75480D01*
D53*
X88235Y2167D02*
X91098Y5030D01*
X96150Y-4970D02*
X110273D01*
X94012Y-2832D02*
X96150Y-4970D01*
X70526Y-2832D02*
X94012D01*
X91098Y5030D02*
X110273D01*
X70441Y2167D02*
X88235D01*
X94475Y15030D02*
X110273D01*
X86629Y7184D02*
X94475Y15030D01*
X70492Y7184D02*
X86629D01*
X96100Y-14970D02*
X110273D01*
X89370Y-8239D02*
X96100Y-14970D01*
X70363Y-8239D02*
X89370D01*
D54*
X81247Y-24044D02*
X83642D01*
X75972Y-29319D02*
X81247Y-24044D01*
X84634Y-23052D02*
X91257D01*
D55*
X110273Y-4970D02*
D03*
Y5030D02*
D03*
X110273Y15030D02*
D03*
X-30038Y-16647D02*
D03*
X-10038D02*
D03*
X-20038D02*
D03*
D56*
X110273Y-14970D02*
D03*
D57*
X-38Y-16647D02*
D03*
D58*
X73118Y40397D02*
D03*
D59*
X53433D02*
D03*
D60*
X40225Y-41240D02*
D03*
D61*
Y-31240D02*
D03*
D62*
X54463Y-6605D02*
D03*
X58262Y-6360D02*
D03*
X61734Y-6442D02*
D03*
X62020Y-2970D02*
D03*
X58303Y-3256D02*
D03*
X54544Y-3133D02*
D03*
X54819Y691D02*
D03*
X58393Y632D02*
D03*
X61848Y751D02*
D03*
X61789Y4683D02*
D03*
X58512Y4802D02*
D03*
X54640D02*
D03*
X-70211Y29297D02*
D03*
X-65695Y31237D02*
D03*
X-43996Y21931D02*
D03*
X-42263Y18076D02*
D03*
X-84108Y37908D02*
D03*
X39764Y30654D02*
D03*
X5477Y15038D02*
D03*
X-28984Y18686D02*
D03*
X-14585Y-35505D02*
D03*
X-31820Y8519D02*
D03*
X-105501Y10576D02*
D03*
X-35816Y36776D02*
D03*
X-37065Y7324D02*
D03*
X-40951Y-13028D02*
D03*
X-108186Y-8498D02*
D03*
X-112882Y21246D02*
D03*
X-41225Y-29048D02*
D03*
X24731Y-35939D02*
D03*
X-57582Y-26175D02*
D03*
X33457Y20143D02*
D03*
X9281Y630D02*
D03*
Y-7872D02*
D03*
X-95380Y-28024D02*
D03*
X-78106Y-27167D02*
D03*
X-78742Y-13250D02*
D03*
X-35690Y-37254D02*
D03*
X16291Y35607D02*
D03*
X33999Y29402D02*
D03*
M02*
