G04*
G04 #@! TF.GenerationSoftware,Altium Limited,Altium Designer,25.8.1 (18)*
G04*
G04 Layer_Color=8388736*
%FSLAX25Y25*%
%MOIN*%
G70*
G04*
G04 #@! TF.SameCoordinates,4BE62294-00A5-47EF-9B78-CB70749D35C4*
G04*
G04*
G04 #@! TF.FilePolarity,Negative*
G04*
G01*
G75*
%ADD16R,0.03197X0.02985*%
%ADD17R,0.05550X0.01400*%
%ADD19R,0.02985X0.03197*%
%ADD21R,0.03150X0.03150*%
%ADD22R,0.04355X0.02977*%
%ADD23R,0.02977X0.04355*%
%ADD24R,0.02756X0.02756*%
%ADD25R,0.08898X0.08504*%
%ADD26R,0.04749X0.03765*%
%ADD27R,0.03543X0.02953*%
%ADD28R,0.04748X0.04166*%
%ADD32R,0.12200X0.15900*%
%ADD33R,0.04343X0.03950*%
%ADD34R,0.04540X0.03950*%
G04:AMPARAMS|DCode=35|XSize=47.37mil|YSize=47.37mil|CornerRadius=23.68mil|HoleSize=0mil|Usage=FLASHONLY|Rotation=150.000|XOffset=0mil|YOffset=0mil|HoleType=Round|Shape=RoundedRectangle|*
%AMROUNDEDRECTD35*
21,1,0.04737,0.00000,0,0,150.0*
21,1,0.00000,0.04737,0,0,150.0*
1,1,0.04737,0.00000,0.00000*
1,1,0.04737,0.00000,0.00000*
1,1,0.04737,0.00000,0.00000*
1,1,0.04737,0.00000,0.00000*
%
%ADD35ROUNDEDRECTD35*%
G04:AMPARAMS|DCode=36|XSize=47.37mil|YSize=47.37mil|CornerRadius=23.68mil|HoleSize=0mil|Usage=FLASHONLY|Rotation=90.000|XOffset=0mil|YOffset=0mil|HoleType=Round|Shape=RoundedRectangle|*
%AMROUNDEDRECTD36*
21,1,0.04737,0.00000,0,0,90.0*
21,1,0.00000,0.04737,0,0,90.0*
1,1,0.04737,0.00000,0.00000*
1,1,0.04737,0.00000,0.00000*
1,1,0.04737,0.00000,0.00000*
1,1,0.04737,0.00000,0.00000*
%
%ADD36ROUNDEDRECTD36*%
G04:AMPARAMS|DCode=37|XSize=47.37mil|YSize=47.37mil|CornerRadius=23.68mil|HoleSize=0mil|Usage=FLASHONLY|Rotation=210.000|XOffset=0mil|YOffset=0mil|HoleType=Round|Shape=RoundedRectangle|*
%AMROUNDEDRECTD37*
21,1,0.04737,0.00000,0,0,210.0*
21,1,0.00000,0.04737,0,0,210.0*
1,1,0.04737,0.00000,0.00000*
1,1,0.04737,0.00000,0.00000*
1,1,0.04737,0.00000,0.00000*
1,1,0.04737,0.00000,0.00000*
%
%ADD37ROUNDEDRECTD37*%
%ADD38C,0.06902*%
%ADD39R,0.06902X0.06902*%
%ADD40R,0.05984X0.05984*%
%ADD41C,0.05984*%
%ADD42R,0.06902X0.06902*%
%ADD43C,0.06312*%
%ADD44R,0.06312X0.06312*%
%ADD45C,0.07099*%
%ADD46R,0.07099X0.07099*%
%ADD47R,0.05984X0.05984*%
%ADD48C,0.06181*%
%ADD49R,0.06181X0.06181*%
%ADD50C,0.02769*%
G36*
X-57637Y75569D02*
X-56173Y74927D01*
X-54873Y73997D01*
X-53792Y72820D01*
X-52975Y71447D01*
X-52458Y69934D01*
X-52262Y68348D01*
X-52397Y66756D01*
X-52855Y65225D01*
X-53237Y64523D01*
Y64523D01*
X-60000Y68416D01*
X-53579Y64719D01*
X-53891Y64143D01*
X-54711Y63120D01*
X-55700Y62259D01*
X-56826Y61589D01*
X-58054Y61129D01*
X-59345Y60896D01*
X-60655D01*
X-61946Y61129D01*
X-63174Y61589D01*
X-64300Y62259D01*
X-65289Y63120D01*
X-66109Y64143D01*
X-66422Y64719D01*
X-66763Y64523D01*
X-67145Y65225D01*
X-67603Y66756D01*
X-67738Y68348D01*
X-67542Y69934D01*
X-67025Y71447D01*
X-66208Y72820D01*
X-65127Y73997D01*
X-63827Y74927D01*
X-62363Y75569D01*
X-60799Y75897D01*
X-59201D01*
X-57637Y75569D01*
D02*
G37*
G36*
X64531Y64719D02*
X64219Y64143D01*
X63399Y63120D01*
X62410Y62259D01*
X61284Y61589D01*
X60056Y61129D01*
X58766Y60896D01*
X57455D01*
X56164Y61129D01*
X54936Y61589D01*
X53810Y62259D01*
X52821Y63120D01*
X52001Y64143D01*
X51688Y64719D01*
X51688Y64719D01*
X58110Y68416D01*
X64531Y64719D01*
D02*
G37*
G36*
X-36334Y54748D02*
X-36329Y54756D01*
X-30383Y51318D01*
X-24435Y47888D01*
X-24439Y47881D01*
X-24418Y47868D01*
X-24747Y47261D01*
X-25631Y46201D01*
X-26709Y45338D01*
X-27936Y44706D01*
X-29265Y44331D01*
X-30641Y44227D01*
X-32011Y44398D01*
X-33320Y44838D01*
X-33923Y45187D01*
X-34529Y45536D01*
X-35564Y46449D01*
X-36398Y47550D01*
X-36996Y48794D01*
X-37335Y50133D01*
X-37401Y51512D01*
X-37193Y52876D01*
X-36717Y54172D01*
X-36355Y54760D01*
X-36334Y54748D01*
D02*
G37*
G36*
X-83308Y54168D02*
X-82831Y52873D01*
X-82620Y51508D01*
X-82685Y50129D01*
X-83022Y48791D01*
X-83619Y47545D01*
X-84451Y46444D01*
X-85485Y45529D01*
X-86680Y44838D01*
X-87989Y44398D01*
X-89359Y44227D01*
X-90735Y44331D01*
X-92064Y44706D01*
X-93291Y45338D01*
X-94369Y46201D01*
X-95253Y47261D01*
X-95582Y47868D01*
X-95582D01*
X-83671Y54756D01*
X-83308Y54168D01*
D02*
G37*
G36*
X-112496Y38118D02*
D01*
X-112496D01*
X-112496D01*
D02*
G37*
G36*
X-112136Y37530D02*
X-111636Y36243D01*
X-111374Y34888D01*
X-111356Y33508D01*
X-111584Y32147D01*
X-112050Y30848D01*
X-112741Y29653D01*
X-113632Y28600D01*
X-114697Y27722D01*
X-115901Y27047D01*
X-117206Y26597D01*
X-118569Y26387D01*
X-119259Y26405D01*
X-119259Y26799D01*
X-119260Y26799D01*
Y26799D01*
X-119251Y34209D01*
X-112838Y37921D01*
X-112838Y37920D01*
X-112496Y38118D01*
X-112136Y37530D01*
D02*
G37*
G36*
X110949Y37901D02*
X110961Y37921D01*
X110961D01*
X117374Y34209D01*
X117383Y26799D01*
X117362Y26798D01*
Y26420D01*
X116674Y26401D01*
X115312Y26610D01*
X114009Y27057D01*
X112807Y27729D01*
X111743Y28604D01*
X110852Y29655D01*
X110162Y30847D01*
X109695Y32142D01*
X109466Y33501D01*
X109482Y34878D01*
X109743Y36230D01*
X110240Y37515D01*
X110599Y38103D01*
Y38103D01*
X110949Y37901D01*
D02*
G37*
G36*
X-945Y34321D02*
X5621Y38103D01*
X5980Y37515D01*
X6477Y36230D01*
X6738Y34878D01*
X6754Y33501D01*
X6525Y32142D01*
X6058Y30847D01*
X5368Y29655D01*
X4477Y28604D01*
X3413Y27729D01*
X2211Y27057D01*
X908Y26610D01*
X-454Y26401D01*
X-945Y26414D01*
X-1436Y26401D01*
X-2798Y26610D01*
X-4101Y27057D01*
X-5303Y27729D01*
X-6367Y28604D01*
X-7258Y29655D01*
X-7948Y30847D01*
X-8415Y32142D01*
X-8644Y33501D01*
X-8628Y34878D01*
X-8367Y36230D01*
X-7870Y37515D01*
X-7511Y38103D01*
Y38103D01*
X-945Y34321D01*
D02*
G37*
G36*
X-117199Y6671D02*
X-115911Y6170D01*
X-114749Y5423D01*
X-113758Y4459D01*
X-112978Y3319D01*
X-112440Y2046D01*
X-112165Y691D01*
Y-691D01*
X-112440Y-2046D01*
X-112978Y-3319D01*
X-113758Y-4459D01*
X-114749Y-5423D01*
X-115911Y-6170D01*
X-117199Y-6671D01*
X-117211Y-6673D01*
X-117215Y-6675D01*
X-118575Y-6911D01*
X-119265Y-6892D01*
X-119265D01*
X-119274Y6867D01*
X-119252Y6868D01*
Y6887D01*
X-118561Y6907D01*
X-117199Y6671D01*
D02*
G37*
G36*
X908Y-26610D02*
X2211Y-27057D01*
X3413Y-27729D01*
X4477Y-28604D01*
X5368Y-29655D01*
X6058Y-30847D01*
X6525Y-32142D01*
X6754Y-33501D01*
X6738Y-34878D01*
X6477Y-36230D01*
X5980Y-37515D01*
X5621Y-38103D01*
X-945Y-34321D01*
X-7511Y-38103D01*
X-7870Y-37515D01*
X-8367Y-36230D01*
X-8628Y-34878D01*
X-8644Y-33501D01*
X-8415Y-32142D01*
X-7948Y-30847D01*
X-7258Y-29655D01*
X-6367Y-28604D01*
X-5303Y-27729D01*
X-4101Y-27057D01*
X-2798Y-26610D01*
X-1436Y-26401D01*
X-945Y-26414D01*
X-454Y-26401D01*
X908Y-26610D01*
D02*
G37*
G36*
X117362Y-26420D02*
Y-26798D01*
X117383Y-26799D01*
X117383Y-26799D01*
X117374Y-34209D01*
X110961Y-37921D01*
X110949Y-37901D01*
X110599Y-38103D01*
X110240Y-37515D01*
X109743Y-36230D01*
X109482Y-34878D01*
X109466Y-33501D01*
X109695Y-32142D01*
X110162Y-30847D01*
X110852Y-29655D01*
X111743Y-28604D01*
X112807Y-27729D01*
X114009Y-27057D01*
X115312Y-26610D01*
X116674Y-26401D01*
X117362Y-26420D01*
D02*
G37*
G36*
X5621Y-38103D02*
X5621D01*
D01*
X5621D01*
D02*
G37*
G36*
X-119259Y-26799D02*
X-118605Y-26781D01*
X-117309Y-26980D01*
X-116069Y-27406D01*
X-114925Y-28046D01*
X-113913Y-28880D01*
X-113065Y-29881D01*
X-112410Y-31016D01*
X-111967Y-32250D01*
X-111751Y-33543D01*
X-111769Y-34854D01*
X-112019Y-36141D01*
X-112495Y-37363D01*
X-112838Y-37920D01*
X-112496Y-38118D01*
X-112913Y-38800D01*
X-114010Y-39962D01*
X-115322Y-40875D01*
X-116793Y-41499D01*
X-118361Y-41807D01*
X-119959Y-41787D01*
X-121519Y-41438D01*
X-122974Y-40777D01*
X-124262Y-39831D01*
X-125329Y-38641D01*
X-126128Y-37257D01*
X-126626Y-35738D01*
X-126801Y-34149D01*
X-126646Y-32559D01*
X-126168Y-31034D01*
X-125387Y-29640D01*
X-124336Y-28436D01*
X-123060Y-27473D01*
X-121613Y-26793D01*
X-120058Y-26425D01*
X-119259Y-26405D01*
X-119259Y-26405D01*
X-119259Y-26799D01*
D02*
G37*
G36*
X-29265Y-44331D02*
X-27936Y-44706D01*
X-26709Y-45338D01*
X-25631Y-46201D01*
X-24747Y-47261D01*
X-24418Y-47868D01*
D01*
Y-47868D01*
X-30374Y-51312D01*
X-36329Y-54756D01*
X-36692Y-54168D01*
X-37169Y-52873D01*
X-37380Y-51508D01*
X-37315Y-50129D01*
X-36978Y-48791D01*
X-36381Y-47545D01*
X-35549Y-46444D01*
X-34515Y-45529D01*
X-33320Y-44838D01*
X-32011Y-44398D01*
X-30641Y-44227D01*
X-29265Y-44331D01*
D02*
G37*
G36*
X-87989Y-44398D02*
X-86680Y-44838D01*
X-86077Y-45187D01*
X-85471Y-45536D01*
X-84436Y-46449D01*
X-83602Y-47550D01*
X-83004Y-48794D01*
X-82665Y-50133D01*
X-82599Y-51512D01*
X-82807Y-52876D01*
X-83283Y-54172D01*
X-83645Y-54760D01*
D01*
X-83645Y-54760D01*
X-83645Y-54760D01*
X-83666Y-54748D01*
X-83671Y-54756D01*
D01*
X-83671Y-54756D01*
X-83671Y-54756D01*
X-89617Y-51318D01*
X-95565Y-47888D01*
X-95561Y-47881D01*
X-95582Y-47868D01*
X-95253Y-47261D01*
X-94369Y-46201D01*
X-93291Y-45338D01*
X-92064Y-44706D01*
X-90735Y-44331D01*
X-89359Y-44227D01*
X-87989Y-44398D01*
D02*
G37*
G36*
X60056Y-61129D02*
X61284Y-61589D01*
X62410Y-62259D01*
X63399Y-63120D01*
X64219Y-64143D01*
X64531Y-64719D01*
X58110Y-68416D01*
X51688Y-64719D01*
X52001Y-64143D01*
X52821Y-63120D01*
X53810Y-62259D01*
X54936Y-61589D01*
X56164Y-61129D01*
X57455Y-60896D01*
X58766D01*
X60056Y-61129D01*
D02*
G37*
G36*
X-58054D02*
X-56826Y-61589D01*
X-55700Y-62259D01*
X-54711Y-63120D01*
X-53891Y-64143D01*
X-53579Y-64719D01*
X-60000Y-68416D01*
X-66422Y-64719D01*
X-66109Y-64143D01*
X-65289Y-63120D01*
X-64300Y-62259D01*
X-63174Y-61589D01*
X-61946Y-61129D01*
X-60655Y-60896D01*
X-59345D01*
X-58054Y-61129D01*
D02*
G37*
D16*
X-29941Y-24864D02*
D03*
Y-29801D02*
D03*
X-58388Y42214D02*
D03*
Y37277D02*
D03*
X-11824Y-29689D02*
D03*
X-20175Y-29599D02*
D03*
Y-24661D02*
D03*
X-11824Y-24752D02*
D03*
X-68306Y37105D02*
D03*
Y42042D02*
D03*
D17*
X70374Y-1844D02*
D03*
Y-4403D02*
D03*
Y3274D02*
D03*
Y715D02*
D03*
Y8392D02*
D03*
Y5833D02*
D03*
Y-6962D02*
D03*
Y-9521D02*
D03*
X47124Y3274D02*
D03*
Y715D02*
D03*
Y16069D02*
D03*
X70374Y-14639D02*
D03*
X47124Y-6962D02*
D03*
Y-12080D02*
D03*
Y10951D02*
D03*
X70374Y-17198D02*
D03*
X47124Y13510D02*
D03*
Y8392D02*
D03*
Y5833D02*
D03*
Y-1844D02*
D03*
Y-4403D02*
D03*
Y-9521D02*
D03*
Y-14639D02*
D03*
Y-17198D02*
D03*
X70374Y13510D02*
D03*
Y-12080D02*
D03*
Y10951D02*
D03*
Y16069D02*
D03*
D19*
X-28854Y24642D02*
D03*
X13942Y17883D02*
D03*
X-103092Y2822D02*
D03*
X35937Y40223D02*
D03*
X31000D02*
D03*
X19737Y-27559D02*
D03*
X14800D02*
D03*
X19737Y-35764D02*
D03*
X14800D02*
D03*
X-98155Y2822D02*
D03*
X-102691Y-5658D02*
D03*
X-97754D02*
D03*
X-28960Y32950D02*
D03*
X-24023D02*
D03*
X-23917Y24642D02*
D03*
X18879Y17883D02*
D03*
D21*
X-38543Y-3097D02*
D03*
Y2809D02*
D03*
D22*
X84631Y-15772D02*
D03*
Y-23055D02*
D03*
D23*
X84746Y14900D02*
D03*
X77463D02*
D03*
D24*
X91260Y-17537D02*
D03*
Y-23048D02*
D03*
D25*
X62148Y-45040D02*
D03*
Y-25749D02*
D03*
D26*
X75480Y-21248D02*
D03*
Y-29319D02*
D03*
D27*
X41352Y-22449D02*
D03*
Y-17724D02*
D03*
D28*
X24397Y-65D02*
D03*
X30704D02*
D03*
X32739Y-8134D02*
D03*
X26432D02*
D03*
D32*
X58749Y-565D02*
D03*
D33*
X41847Y23933D02*
D03*
Y19012D02*
D03*
D34*
X-32329Y2578D02*
D03*
Y-2343D02*
D03*
D35*
X-116326Y32520D02*
D03*
X114449Y-32520D02*
D03*
X-116339Y0D02*
D03*
D36*
X-60000Y65039D02*
D03*
X58110Y-65039D02*
D03*
X-661Y30520D02*
D03*
X58110Y65039D02*
D03*
X-661Y-30520D02*
D03*
X-60000Y-65039D02*
D03*
X-31850Y-48780D02*
D03*
X-88150Y48780D02*
D03*
D37*
X-116326Y-32520D02*
D03*
X114449Y32520D02*
D03*
X-88150Y-48780D02*
D03*
X-31850Y48780D02*
D03*
D38*
X110273Y-4970D02*
D03*
Y5030D02*
D03*
X110273Y15030D02*
D03*
X-30038Y-16647D02*
D03*
X-10038D02*
D03*
X-20038D02*
D03*
D39*
X110273Y-14970D02*
D03*
D40*
X-88073Y-16726D02*
D03*
X-14976Y12556D02*
D03*
D41*
X-88073Y-6726D02*
D03*
Y3274D02*
D03*
X-58492Y50888D02*
D03*
X-68492D02*
D03*
X-14976Y32556D02*
D03*
Y22556D02*
D03*
D42*
X-38Y-16647D02*
D03*
D43*
X73118Y40397D02*
D03*
D44*
X53433D02*
D03*
D45*
X40225Y-41240D02*
D03*
D46*
Y-31240D02*
D03*
D47*
X-48492Y50888D02*
D03*
D48*
X-50858Y-36615D02*
D03*
X-60858D02*
D03*
D49*
X-70858D02*
D03*
D50*
X54463Y-6605D02*
D03*
X58262Y-6360D02*
D03*
X61734Y-6442D02*
D03*
X62020Y-2970D02*
D03*
X58303Y-3256D02*
D03*
X54544Y-3133D02*
D03*
X54819Y691D02*
D03*
X58393Y632D02*
D03*
X61848Y751D02*
D03*
X61789Y4683D02*
D03*
X58512Y4802D02*
D03*
X54640D02*
D03*
X-70211Y29297D02*
D03*
X-65695Y31237D02*
D03*
X-43996Y21931D02*
D03*
X-42263Y18076D02*
D03*
X-84108Y37908D02*
D03*
X39764Y30654D02*
D03*
X5477Y15038D02*
D03*
X-28984Y18686D02*
D03*
X-14585Y-35505D02*
D03*
X-31820Y8519D02*
D03*
X-105501Y10576D02*
D03*
X-35816Y36776D02*
D03*
X-37065Y7324D02*
D03*
X-40951Y-13028D02*
D03*
X-108186Y-8498D02*
D03*
X-112882Y21246D02*
D03*
X-41225Y-29048D02*
D03*
X24731Y-35939D02*
D03*
X-57582Y-26175D02*
D03*
X33457Y20143D02*
D03*
X9281Y630D02*
D03*
Y-7872D02*
D03*
X-95380Y-28024D02*
D03*
X-78106Y-27167D02*
D03*
X-78742Y-13250D02*
D03*
X-35690Y-37254D02*
D03*
X16291Y35607D02*
D03*
X33999Y29402D02*
D03*
M02*
