G04*
G04 #@! TF.GenerationSoftware,Altium Limited,Altium Designer,25.8.1 (18)*
G04*
G04 Layer_Physical_Order=2*
G04 Layer_Color=16711680*
%FSLAX25Y25*%
%MOIN*%
G70*
G04*
G04 #@! TF.SameCoordinates,4BE62294-00A5-47EF-9B78-CB70749D35C4*
G04*
G04*
G04 #@! TF.FilePolarity,Positive*
G04*
G01*
G75*
%ADD13C,0.01000*%
G04:AMPARAMS|DCode=29|XSize=39.37mil|YSize=39.37mil|CornerRadius=19.68mil|HoleSize=0mil|Usage=FLASHONLY|Rotation=150.000|XOffset=0mil|YOffset=0mil|HoleType=Round|Shape=RoundedRectangle|*
%AMROUNDEDRECTD29*
21,1,0.03937,0.00000,0,0,150.0*
21,1,0.00000,0.03937,0,0,150.0*
1,1,0.03937,0.00000,0.00000*
1,1,0.03937,0.00000,0.00000*
1,1,0.03937,0.00000,0.00000*
1,1,0.03937,0.00000,0.00000*
%
%ADD29ROUNDEDRECTD29*%
G04:AMPARAMS|DCode=30|XSize=39.37mil|YSize=39.37mil|CornerRadius=19.68mil|HoleSize=0mil|Usage=FLASHONLY|Rotation=90.000|XOffset=0mil|YOffset=0mil|HoleType=Round|Shape=RoundedRectangle|*
%AMROUNDEDRECTD30*
21,1,0.03937,0.00000,0,0,90.0*
21,1,0.00000,0.03937,0,0,90.0*
1,1,0.03937,0.00000,0.00000*
1,1,0.03937,0.00000,0.00000*
1,1,0.03937,0.00000,0.00000*
1,1,0.03937,0.00000,0.00000*
%
%ADD30ROUNDEDRECTD30*%
G04:AMPARAMS|DCode=31|XSize=39.37mil|YSize=39.37mil|CornerRadius=19.68mil|HoleSize=0mil|Usage=FLASHONLY|Rotation=210.000|XOffset=0mil|YOffset=0mil|HoleType=Round|Shape=RoundedRectangle|*
%AMROUNDEDRECTD31*
21,1,0.03937,0.00000,0,0,210.0*
21,1,0.00000,0.03937,0,0,210.0*
1,1,0.03937,0.00000,0.00000*
1,1,0.03937,0.00000,0.00000*
1,1,0.03937,0.00000,0.00000*
1,1,0.03937,0.00000,0.00000*
%
%ADD31ROUNDEDRECTD31*%
%ADD40R,0.05984X0.05984*%
%ADD41C,0.05984*%
%ADD47R,0.05984X0.05984*%
%ADD48C,0.06181*%
%ADD49R,0.06181X0.06181*%
%ADD55C,0.06102*%
%ADD56R,0.06102X0.06102*%
%ADD57R,0.06102X0.06102*%
%ADD58C,0.05512*%
%ADD59R,0.05512X0.05512*%
%ADD60C,0.06299*%
%ADD61R,0.06299X0.06299*%
%ADD62C,0.01968*%
%ADD63R,0.01575X0.07480*%
%ADD64R,0.03504X0.02520*%
%ADD65R,0.03150X0.03740*%
%ADD66R,0.01968X0.03543*%
%ADD67R,0.22441X0.22441*%
%ADD68R,0.01181X0.03347*%
%ADD69R,0.03347X0.01181*%
%ADD70R,0.02362X0.03150*%
%ADD71R,0.05500X0.04300*%
G36*
X64870Y64496D02*
X64540Y63891D01*
X63676Y62818D01*
X62635Y61916D01*
X61451Y61214D01*
X60160Y60733D01*
X58804Y60490D01*
X57427Y60491D01*
X56072Y60738D01*
X54782Y61222D01*
X53599Y61927D01*
X52560Y62831D01*
X51699Y63906D01*
X51371Y64512D01*
X51371Y64512D01*
X58115Y68406D01*
X64870Y64496D01*
D02*
G37*
G36*
X-53240D02*
X-53570Y63891D01*
X-54434Y62818D01*
X-55475Y61916D01*
X-56659Y61214D01*
X-57950Y60733D01*
X-59306Y60490D01*
X-60683Y60491D01*
X-62038Y60738D01*
X-63328Y61222D01*
X-64511Y61927D01*
X-65550Y62831D01*
X-66411Y63906D01*
X-66739Y64512D01*
X-66739Y64512D01*
X-59995Y68406D01*
X-53240Y64496D01*
D02*
G37*
G36*
X-66346Y62194D02*
X-66275Y62135D01*
X-66219Y62062D01*
X-65181Y61158D01*
X-65101Y61112D01*
X-65033Y61051D01*
X-64514Y60742D01*
Y53903D01*
X-64614Y53830D01*
X-65514Y53556D01*
X-66041Y54083D01*
X-66952Y54609D01*
X-67967Y54880D01*
X-69018D01*
X-70033Y54609D01*
X-70944Y54083D01*
X-71687Y53340D01*
X-72212Y52429D01*
X-72484Y51414D01*
Y50363D01*
X-72212Y49347D01*
X-71687Y48437D01*
X-70944Y47694D01*
X-70033Y47168D01*
X-69018Y46896D01*
X-67967D01*
X-66952Y47168D01*
X-66041Y47694D01*
X-65514Y48221D01*
X-64614Y47946D01*
X-64514Y47874D01*
Y40515D01*
X-64398Y39930D01*
X-64066Y39434D01*
X-60262Y35629D01*
X-60645Y34706D01*
X-61899D01*
Y25680D01*
X-62848Y25103D01*
X-63207Y25337D01*
Y27479D01*
X-67817D01*
X-68007Y27664D01*
X-68402Y28479D01*
X-68227Y28902D01*
Y29692D01*
X-67378Y30113D01*
X-66819Y29555D01*
X-66090Y29253D01*
X-65301D01*
X-64571Y29555D01*
X-64013Y30113D01*
X-63711Y30842D01*
Y31632D01*
X-64013Y32361D01*
X-64571Y32919D01*
X-65290Y33217D01*
X-71069Y38995D01*
X-71565Y39327D01*
X-72150Y39443D01*
X-82837D01*
X-82984Y39590D01*
X-83477Y39795D01*
X-83656Y40586D01*
X-83633Y40859D01*
X-82858Y41307D01*
X-82796Y41360D01*
X-82724Y41399D01*
X-81385Y42486D01*
X-81333Y42549D01*
X-81268Y42598D01*
X-80118Y43883D01*
X-80077Y43954D01*
X-80020Y44012D01*
X-79088Y45464D01*
X-79058Y45540D01*
X-79012Y45606D01*
X-78321Y47187D01*
X-78304Y47267D01*
X-78268Y47340D01*
X-77837Y49010D01*
X-77832Y49091D01*
X-77809Y49169D01*
X-77647Y50887D01*
X-77655Y50968D01*
X-77644Y51049D01*
X-77756Y52770D01*
X-77777Y52849D01*
X-77779Y52930D01*
X-78162Y54612D01*
X-78195Y54686D01*
X-78210Y54766D01*
X-78700Y55984D01*
X-66851Y62824D01*
X-66346Y62194D01*
D02*
G37*
G36*
X-21016Y45906D02*
X-21434Y45152D01*
X-22498Y43794D01*
X-23764Y42621D01*
X-25198Y41664D01*
X-26767Y40946D01*
X-28429Y40485D01*
X-30143Y40293D01*
X-31866Y40374D01*
X-33554Y40727D01*
X-35166Y41343D01*
X-36659Y42206D01*
X-37997Y43294D01*
X-39147Y44581D01*
X-40078Y46033D01*
X-40767Y47614D01*
X-41198Y49284D01*
X-41359Y51001D01*
X-41246Y52723D01*
X-40863Y54404D01*
X-40218Y56004D01*
X-39773Y56743D01*
X-39773D01*
X-21016Y45906D01*
D02*
G37*
G36*
X-79800Y55986D02*
X-79156Y54386D01*
X-78773Y52704D01*
X-78662Y50983D01*
X-78824Y49265D01*
X-79256Y47595D01*
X-79946Y46015D01*
X-80878Y44563D01*
X-82028Y43277D01*
X-83367Y42190D01*
X-84861Y41328D01*
X-86473Y40713D01*
X-88161Y40361D01*
X-89885Y40281D01*
X-91599Y40474D01*
X-93261Y40936D01*
X-94828Y41655D01*
X-96263Y42614D01*
X-97527Y43787D01*
X-98590Y45145D01*
X-99007Y45900D01*
X-99007Y45900D01*
X-80244Y56725D01*
X-79800Y55986D01*
D02*
G37*
G36*
X-41321Y55995D02*
X-41808Y54786D01*
X-41824Y54705D01*
X-41857Y54631D01*
X-42241Y52949D01*
X-42243Y52868D01*
X-42264Y52789D01*
X-42377Y51068D01*
X-42366Y50987D01*
X-42374Y50906D01*
X-42213Y49189D01*
X-42190Y49111D01*
X-42185Y49029D01*
X-41755Y47359D01*
X-41719Y47286D01*
X-41702Y47206D01*
X-41012Y45625D01*
X-40966Y45558D01*
X-40936Y45482D01*
X-40005Y44030D01*
X-39948Y43971D01*
X-39907Y43901D01*
X-38758Y42615D01*
X-38693Y42566D01*
X-38641Y42503D01*
X-37303Y41415D01*
X-37231Y41377D01*
X-37169Y41323D01*
X-35676Y40460D01*
X-35599Y40434D01*
X-35530Y40390D01*
X-33918Y39775D01*
X-33838Y39761D01*
X-33763Y39729D01*
X-33379Y39649D01*
Y38492D01*
X-34379Y38145D01*
X-34692Y38458D01*
X-35422Y38760D01*
X-36211D01*
X-36941Y38458D01*
X-37499Y37900D01*
X-37801Y37171D01*
Y36381D01*
X-37499Y35652D01*
X-37346Y35499D01*
Y19904D01*
X-39279Y17971D01*
X-40279Y18385D01*
Y18471D01*
X-40581Y19200D01*
X-41139Y19759D01*
X-41712Y19996D01*
X-41961Y20331D01*
X-42209Y21061D01*
X-42012Y21537D01*
Y22326D01*
X-42314Y23055D01*
X-42757Y23498D01*
X-42894Y24442D01*
X-42894Y24442D01*
Y28962D01*
X-42894D01*
Y29954D01*
X-42894D01*
Y31714D01*
X-45646D01*
Y32214D01*
X-46146D01*
Y34473D01*
X-46235D01*
X-52471Y40709D01*
Y46896D01*
X-44500D01*
Y54880D01*
X-52485D01*
Y54811D01*
X-53484Y54396D01*
X-57797Y58709D01*
X-57784Y59216D01*
X-57490Y59816D01*
X-56303Y60258D01*
X-56226Y60307D01*
X-56139Y60337D01*
X-54954Y61040D01*
X-54886Y61101D01*
X-54807Y61146D01*
X-53766Y62048D01*
X-53710Y62120D01*
X-53640Y62179D01*
X-53129Y62813D01*
X-41321Y55995D01*
D02*
G37*
G36*
X-68133Y31734D02*
X-68168Y31475D01*
X-68583Y31251D01*
X-69237Y31041D01*
X-69816Y31281D01*
X-70000D01*
X-71100Y32381D01*
X-71596Y32713D01*
X-72181Y32829D01*
X-83327D01*
X-85994Y35497D01*
X-85977Y35557D01*
X-85839Y35682D01*
X-84800Y36047D01*
X-84503Y35924D01*
X-83713D01*
X-82984Y36226D01*
X-82826Y36384D01*
X-72783D01*
X-68133Y31734D01*
D02*
G37*
G36*
X-9027Y37351D02*
X-9318Y36598D01*
X-9334Y36508D01*
X-9368Y36424D01*
X-9629Y35071D01*
X-9629Y34979D01*
X-9647Y34890D01*
X-9663Y33555D01*
X-9670Y33503D01*
X-9886Y33181D01*
X-9926Y33141D01*
X-10558Y32707D01*
X-10905Y32773D01*
X-10984Y33004D01*
Y33082D01*
X-11256Y34097D01*
X-11782Y35007D01*
X-12525Y35751D01*
X-13435Y36276D01*
X-14451Y36548D01*
X-15502D01*
X-16517Y36276D01*
X-17428Y35751D01*
X-18171Y35007D01*
X-18696Y34097D01*
X-18969Y33082D01*
Y32030D01*
X-18696Y31015D01*
X-18171Y30105D01*
X-17428Y29362D01*
X-17251Y29260D01*
X-17290Y28128D01*
X-17621Y27966D01*
X-17747Y27869D01*
X-18322Y27562D01*
X-18416Y27485D01*
X-18469Y27461D01*
X-28220Y20517D01*
X-28484Y20627D01*
Y18686D01*
X-29484D01*
Y20748D01*
X-30321Y21363D01*
Y38355D01*
X-30029Y39279D01*
X-28315Y39472D01*
X-28238Y39496D01*
X-28156Y39502D01*
X-26494Y39963D01*
X-26421Y40000D01*
X-26342Y40019D01*
X-24774Y40737D01*
X-24708Y40785D01*
X-24633Y40816D01*
X-23198Y41773D01*
X-23140Y41831D01*
X-23070Y41874D01*
X-21805Y43046D01*
X-21757Y43112D01*
X-21696Y43165D01*
X-20886Y44198D01*
X-9027Y37351D01*
D02*
G37*
G36*
X-98330Y43159D02*
X-98268Y43105D01*
X-98221Y43039D01*
X-96956Y41866D01*
X-96887Y41824D01*
X-96829Y41766D01*
X-95395Y40808D01*
X-95319Y40777D01*
X-95253Y40729D01*
X-93686Y40009D01*
X-93606Y39991D01*
X-93534Y39954D01*
X-91872Y39492D01*
X-91790Y39486D01*
X-91713Y39461D01*
X-89999Y39268D01*
X-89679Y38358D01*
Y35489D01*
X-89563Y34904D01*
X-89231Y34408D01*
X-86548Y31724D01*
X-86930Y30800D01*
X-89650D01*
Y30800D01*
X-89865Y30870D01*
X-89865Y30870D01*
X-90621Y30870D01*
X-96861D01*
Y28000D01*
Y25130D01*
X-89865D01*
X-89650Y24500D01*
X-82150D01*
Y26121D01*
X-81150D01*
Y24500D01*
X-73711D01*
Y23500D01*
X-81150D01*
Y21879D01*
X-82150D01*
Y23500D01*
X-89650D01*
Y23500D01*
X-89963Y23075D01*
X-94325D01*
Y17925D01*
X-89963D01*
X-89650Y17200D01*
X-82150D01*
Y18821D01*
X-81150D01*
Y17200D01*
X-73650D01*
Y17447D01*
X-68550D01*
X-68449Y17256D01*
X-69050Y16256D01*
X-71817D01*
Y12417D01*
X-75656D01*
Y12356D01*
X-77687D01*
X-78272Y12240D01*
X-78768Y11908D01*
X-81243Y9434D01*
X-102744D01*
X-103408Y10076D01*
X-105501D01*
Y10576D01*
X-106001D01*
Y12516D01*
X-106625Y12258D01*
X-106905Y11977D01*
X-108673D01*
X-115500Y18804D01*
Y19769D01*
X-114807Y20030D01*
X-114500Y20058D01*
X-114005Y19564D01*
X-113276Y19262D01*
X-113060D01*
X-110863Y17065D01*
X-110366Y16733D01*
X-109781Y16617D01*
X-107698D01*
Y15374D01*
X-103729D01*
Y16617D01*
X-100010D01*
X-99425Y16733D01*
X-98928Y17065D01*
X-98068Y17925D01*
X-95475D01*
Y23075D01*
X-99837D01*
Y20482D01*
X-100643Y19676D01*
X-103729D01*
Y20918D01*
X-107698D01*
Y19676D01*
X-109148D01*
X-110897Y21425D01*
Y21641D01*
X-111199Y22370D01*
X-111758Y22929D01*
X-112487Y23231D01*
X-113276D01*
X-114005Y22929D01*
X-114500Y22434D01*
X-114807Y22462D01*
X-115500Y22724D01*
Y26125D01*
X-115476Y26139D01*
X-115389Y26167D01*
X-114187Y26839D01*
X-114117Y26899D01*
X-114036Y26942D01*
X-112973Y27817D01*
X-112915Y27888D01*
X-112843Y27945D01*
X-111952Y28995D01*
X-111907Y29075D01*
X-111847Y29144D01*
X-111622Y29533D01*
X-110371Y29696D01*
X-108066Y27391D01*
X-107698Y27145D01*
Y24430D01*
X-106213D01*
Y27201D01*
Y30002D01*
X-106352D01*
X-109951Y33601D01*
X-110327Y33853D01*
X-110339Y34890D01*
X-110358Y34979D01*
X-110358Y35071D01*
X-110619Y36423D01*
X-110653Y36508D01*
X-110669Y36598D01*
X-110962Y37357D01*
X-99134Y44186D01*
X-98330Y43159D01*
D02*
G37*
G36*
X-60033Y47168D02*
X-59018Y46896D01*
X-57967D01*
X-56951Y47168D01*
X-56530Y47412D01*
X-55530Y46843D01*
Y40076D01*
X-55413Y39490D01*
X-55082Y38994D01*
X-51717Y35629D01*
X-52100Y34706D01*
X-52451D01*
Y28152D01*
X-52600Y28053D01*
X-53600Y28587D01*
Y29465D01*
X-55388D01*
Y30465D01*
X-53600D01*
Y34706D01*
X-55012D01*
X-61455Y41148D01*
Y46843D01*
X-60455Y47412D01*
X-60033Y47168D01*
D02*
G37*
G36*
X-945Y34321D02*
X5621Y38103D01*
X5980Y37515D01*
X6477Y36230D01*
X6738Y34878D01*
X6754Y33501D01*
X6525Y32142D01*
X6058Y30847D01*
X5368Y29655D01*
X4477Y28604D01*
X3413Y27729D01*
X2211Y27057D01*
X908Y26610D01*
X-454Y26401D01*
X-945Y26414D01*
X-1436Y26401D01*
X-2798Y26610D01*
X-4101Y27057D01*
X-5303Y27729D01*
X-6367Y28604D01*
X-7258Y29655D01*
X-7948Y30847D01*
X-8415Y32142D01*
X-8644Y33501D01*
X-8628Y34878D01*
X-8367Y36230D01*
X-7870Y37515D01*
X-7511Y38103D01*
Y38103D01*
X-945Y34321D01*
D02*
G37*
G36*
X-112117Y37515D02*
X-111620Y36230D01*
X-111359Y34878D01*
X-111343Y33501D01*
X-111572Y32142D01*
X-112039Y30847D01*
X-112729Y29655D01*
X-113620Y28604D01*
X-114684Y27729D01*
X-115886Y27057D01*
X-117189Y26610D01*
X-118551Y26401D01*
X-119239Y26420D01*
X-119239Y26420D01*
Y34208D01*
X-112476Y38103D01*
X-112117Y37515D01*
D02*
G37*
G36*
X117367Y34199D02*
X117359Y26394D01*
X116670Y26377D01*
X115309Y26589D01*
X114008Y27040D01*
X112807Y27714D01*
X111745Y28592D01*
X110856Y29644D01*
X110169Y30838D01*
X109705Y32135D01*
X109479Y33493D01*
X109498Y34871D01*
X109762Y36222D01*
X110262Y37506D01*
X110623Y38093D01*
X110623D01*
X117367Y34199D01*
D02*
G37*
G36*
X51765Y62194D02*
X51835Y62135D01*
X51891Y62062D01*
X52929Y61158D01*
X53009Y61112D01*
X53077Y61051D01*
X54260Y60346D01*
X54346Y60315D01*
X54424Y60267D01*
X55714Y59783D01*
X55804Y59768D01*
X55889Y59735D01*
X56581Y59609D01*
Y57105D01*
X38683Y39208D01*
X38351Y38711D01*
X38235Y38126D01*
Y31931D01*
X38082Y31778D01*
X37824Y31154D01*
X41705D01*
X41446Y31778D01*
X41293Y31931D01*
Y37493D01*
X59191Y55391D01*
X59523Y55887D01*
X59639Y56472D01*
Y59604D01*
X60340Y59730D01*
X60425Y59763D01*
X60516Y59778D01*
X61807Y60258D01*
X61884Y60307D01*
X61971Y60337D01*
X63156Y61040D01*
X63224Y61101D01*
X63303Y61146D01*
X64344Y62048D01*
X64400Y62120D01*
X64470Y62179D01*
X64981Y62813D01*
X109103Y37339D01*
X108812Y36593D01*
X108796Y36503D01*
X108762Y36418D01*
X108498Y35066D01*
X108498Y34974D01*
X108479Y34885D01*
X108460Y33508D01*
X108476Y33418D01*
X108473Y33326D01*
X108699Y31967D01*
X108732Y31882D01*
X108745Y31791D01*
X109209Y30494D01*
X109256Y30416D01*
X109286Y30329D01*
X109973Y29135D01*
X110033Y29067D01*
X110078Y28986D01*
X110966Y27934D01*
X111038Y27877D01*
X111095Y27806D01*
X112157Y26928D01*
X112238Y26885D01*
X112307Y26825D01*
X113508Y26151D01*
X113595Y26122D01*
X113674Y26076D01*
X114976Y25626D01*
X115067Y25613D01*
X115153Y25582D01*
X115945Y25458D01*
Y-25482D01*
X115158Y-25602D01*
X115072Y-25633D01*
X114981Y-25646D01*
X113678Y-26093D01*
X113599Y-26139D01*
X113512Y-26167D01*
X112310Y-26839D01*
X112240Y-26899D01*
X112159Y-26942D01*
X111096Y-27817D01*
X111038Y-27888D01*
X110966Y-27945D01*
X110075Y-28995D01*
X110030Y-29075D01*
X109970Y-29144D01*
X109280Y-30336D01*
X109250Y-30423D01*
X109203Y-30501D01*
X108736Y-31797D01*
X108722Y-31887D01*
X108690Y-31973D01*
X108461Y-33331D01*
X108463Y-33423D01*
X108447Y-33512D01*
X108463Y-34890D01*
X108481Y-34979D01*
X108481Y-35071D01*
X108742Y-36424D01*
X108776Y-36508D01*
X108792Y-36598D01*
X109083Y-37351D01*
X64961Y-62824D01*
X64455Y-62194D01*
X64385Y-62135D01*
X64329Y-62062D01*
X63291Y-61158D01*
X63211Y-61112D01*
X63143Y-61051D01*
X61960Y-60346D01*
X61874Y-60315D01*
X61796Y-60267D01*
X60506Y-59783D01*
X60416Y-59768D01*
X60331Y-59735D01*
X58976Y-59488D01*
X58884Y-59490D01*
X58794Y-59472D01*
X57417Y-59470D01*
X57327Y-59488D01*
X57235Y-59486D01*
X55880Y-59730D01*
X55795Y-59763D01*
X55704Y-59778D01*
X54413Y-60258D01*
X54335Y-60307D01*
X54249Y-60337D01*
X53064Y-61040D01*
X52996Y-61101D01*
X52917Y-61146D01*
X51876Y-62048D01*
X51820Y-62120D01*
X51749Y-62179D01*
X51239Y-62813D01*
X7137Y-37351D01*
X7428Y-36598D01*
X7444Y-36508D01*
X7478Y-36424D01*
X7739Y-35071D01*
X7739Y-34979D01*
X7757Y-34890D01*
X7773Y-33512D01*
X7757Y-33423D01*
X7759Y-33331D01*
X7530Y-31973D01*
X7498Y-31887D01*
X7484Y-31797D01*
X7017Y-30501D01*
X6970Y-30423D01*
X6940Y-30336D01*
X6250Y-29144D01*
X6190Y-29075D01*
X6145Y-28995D01*
X5254Y-27945D01*
X5182Y-27888D01*
X5124Y-27817D01*
X4061Y-26942D01*
X3980Y-26899D01*
X3910Y-26839D01*
X3191Y-26437D01*
X3451Y-25437D01*
X12065D01*
X22746Y-36118D01*
Y-36334D01*
X23048Y-37063D01*
X23607Y-37622D01*
X24336Y-37924D01*
X25125D01*
X25855Y-37622D01*
X26413Y-37063D01*
X26715Y-36334D01*
Y-35545D01*
X26413Y-34815D01*
X25855Y-34257D01*
X25125Y-33955D01*
X24909D01*
X13780Y-22826D01*
X13284Y-22495D01*
X12699Y-22378D01*
X-25863D01*
X-26246Y-21454D01*
X-24176Y-19384D01*
X-22896Y-19518D01*
X-22525Y-19889D01*
X-21601Y-20422D01*
X-20571Y-20698D01*
X-19504D01*
X-18474Y-20422D01*
X-17550Y-19889D01*
X-16796Y-19134D01*
X-16263Y-18211D01*
X-15987Y-17180D01*
Y-16114D01*
X-16263Y-15083D01*
X-16796Y-14160D01*
X-17550Y-13405D01*
X-18474Y-12872D01*
X-18291Y-11886D01*
X-11785D01*
X-11602Y-12872D01*
X-12525Y-13405D01*
X-13280Y-14160D01*
X-13813Y-15083D01*
X-14089Y-16114D01*
Y-17180D01*
X-13813Y-18211D01*
X-13280Y-19134D01*
X-12525Y-19889D01*
X-11602Y-20422D01*
X-10571Y-20698D01*
X-9504D01*
X-8474Y-20422D01*
X-7550Y-19889D01*
X-6796Y-19134D01*
X-6263Y-18211D01*
X-5987Y-17180D01*
Y-16114D01*
X-6263Y-15083D01*
X-6796Y-14160D01*
X-7550Y-13405D01*
X-8474Y-12872D01*
X-8291Y-11886D01*
X-4789D01*
X-4089Y-12596D01*
X-4089Y-12886D01*
Y-20698D01*
X4013D01*
Y-12886D01*
X4013Y-12596D01*
X4713Y-11886D01*
X10310D01*
X10896Y-11769D01*
X11392Y-11438D01*
X22872Y43D01*
X23204Y539D01*
X23320Y1124D01*
Y7844D01*
X33635Y18159D01*
X33851D01*
X34581Y18461D01*
X35139Y19019D01*
X35441Y19748D01*
Y20538D01*
X35139Y21267D01*
X34581Y21825D01*
X33851Y22127D01*
X33062D01*
X32333Y21825D01*
X31775Y21267D01*
X31472Y20538D01*
Y20322D01*
X20709Y9559D01*
X20378Y9063D01*
X20261Y8477D01*
Y1758D01*
X11903Y-6601D01*
X10762Y-6547D01*
X10405Y-6190D01*
X9676Y-5888D01*
X8887D01*
X8157Y-6190D01*
X8005Y-6343D01*
X-25888D01*
X-26270Y-5419D01*
X-21751Y-900D01*
X8005D01*
X8157Y-1052D01*
X8887Y-1354D01*
X9676D01*
X10405Y-1052D01*
X10964Y-494D01*
X11266Y235D01*
Y1025D01*
X10964Y1754D01*
X10405Y2312D01*
X9676Y2614D01*
X8887D01*
X8157Y2312D01*
X8005Y2159D01*
X-22385D01*
X-22970Y2043D01*
X-23466Y1711D01*
X-32131Y-6954D01*
X-32908Y-6317D01*
X-32891Y-6292D01*
X-32775Y-5706D01*
Y6160D01*
X-32320Y6464D01*
Y8519D01*
X-31820D01*
Y9019D01*
X-29880D01*
X-29989Y9284D01*
X-27562Y17279D01*
X-27426Y17369D01*
X-27268Y17440D01*
X-19969Y22638D01*
X-18969Y22123D01*
Y22030D01*
X-18696Y21015D01*
X-18171Y20105D01*
X-17428Y19362D01*
X-16517Y18836D01*
X-15502Y18564D01*
X-14451D01*
X-13435Y18836D01*
X-12525Y19362D01*
X-11782Y20105D01*
X-11256Y21015D01*
X-10984Y22030D01*
Y23082D01*
X-11256Y24097D01*
X-11782Y25007D01*
X-12525Y25751D01*
X-12702Y25853D01*
X-12663Y26985D01*
X-12332Y27146D01*
X-12205Y27243D01*
X-11631Y27550D01*
X-10726Y28293D01*
X-10720Y28296D01*
X-10026Y28991D01*
X-8032D01*
X-7144Y27945D01*
X-7073Y27888D01*
X-7014Y27817D01*
X-5951Y26942D01*
X-5870Y26899D01*
X-5800Y26839D01*
X-4598Y26167D01*
X-4511Y26139D01*
X-4432Y26093D01*
X-3129Y25646D01*
X-3038Y25633D01*
X-2952Y25602D01*
X-2190Y25485D01*
Y20991D01*
X-2074Y20406D01*
X-1742Y19910D01*
X3493Y14674D01*
Y14644D01*
X3795Y13914D01*
X4354Y13356D01*
X4978Y13098D01*
Y15038D01*
Y17516D01*
X868Y21625D01*
Y25572D01*
X1062Y25602D01*
X1148Y25633D01*
X1239Y25646D01*
X2542Y26093D01*
X2621Y26139D01*
X2708Y26167D01*
X3910Y26839D01*
X3980Y26899D01*
X4061Y26942D01*
X5124Y27817D01*
X5182Y27888D01*
X5254Y27945D01*
X6145Y28995D01*
X6190Y29075D01*
X6250Y29144D01*
X6940Y30336D01*
X6970Y30422D01*
X7017Y30501D01*
X7484Y31797D01*
X7498Y31887D01*
X7530Y31973D01*
X7759Y33331D01*
X7757Y33422D01*
X7773Y33512D01*
X7757Y34890D01*
X7739Y34979D01*
X7739Y35071D01*
X7478Y36423D01*
X7444Y36508D01*
X7428Y36598D01*
X7137Y37351D01*
X51259Y62824D01*
X51765Y62194D01*
D02*
G37*
G36*
X-39447Y7471D02*
X-39050Y7187D01*
Y6929D01*
X-38894Y6555D01*
Y2623D01*
X-40973Y545D01*
X-43144D01*
Y3331D01*
Y7329D01*
X-40955D01*
X-40370Y7445D01*
X-40050Y7659D01*
X-39447Y7471D01*
D02*
G37*
G36*
X-75656Y5868D02*
Y5299D01*
Y577D01*
X-76655D01*
X-77240Y460D01*
X-77736Y129D01*
X-82988Y-5123D01*
X-83235Y-5493D01*
X-83742Y-5529D01*
X-84292Y-5412D01*
X-84352Y-5185D01*
X-84878Y-4275D01*
X-85621Y-3532D01*
X-85707Y-2877D01*
X-76580Y6251D01*
X-75656Y5868D01*
D02*
G37*
G36*
X-91469Y5375D02*
X-91793Y4815D01*
X-92065Y3799D01*
Y2748D01*
X-91793Y1733D01*
X-91267Y823D01*
X-90622Y178D01*
X-90581Y-217D01*
X-90725Y-959D01*
X-91015Y-1153D01*
X-96830Y-6968D01*
X-106910D01*
X-107062Y-6815D01*
X-107792Y-6513D01*
X-107966D01*
X-108575Y-5513D01*
X-108148Y-4687D01*
X-108125Y-4609D01*
X-108085Y-4538D01*
X-107546Y-2900D01*
X-107536Y-2819D01*
X-107508Y-2743D01*
X-107234Y-1039D01*
X-107237Y-958D01*
X-107221Y-878D01*
X-107221Y847D01*
X-107237Y927D01*
X-107234Y1008D01*
X-107506Y2711D01*
X-107534Y2788D01*
X-107544Y2869D01*
X-108082Y4507D01*
X-108123Y4578D01*
X-108145Y4657D01*
X-108613Y5563D01*
X-107801Y6375D01*
X-91937D01*
X-91469Y5375D01*
D02*
G37*
G36*
X-91919Y-7797D02*
X-91793Y-8267D01*
X-91267Y-9177D01*
X-90809Y-9635D01*
X-91213Y-10635D01*
X-91616D01*
X-92202Y-10752D01*
X-92698Y-11083D01*
X-96461Y-14846D01*
X-96793Y-15342D01*
X-96909Y-15928D01*
Y-26747D01*
X-97062Y-26900D01*
X-97364Y-27630D01*
Y-28419D01*
X-97062Y-29148D01*
X-96504Y-29706D01*
X-95774Y-30008D01*
X-95817Y-30991D01*
X-110909D01*
X-111086Y-30494D01*
X-111133Y-30416D01*
X-111163Y-30329D01*
X-111850Y-29135D01*
X-111910Y-29067D01*
X-111954Y-28986D01*
X-112843Y-27934D01*
X-112915Y-27877D01*
X-112972Y-27806D01*
X-114034Y-26928D01*
X-114115Y-26885D01*
X-114184Y-26825D01*
X-115385Y-26151D01*
X-115472Y-26122D01*
X-115551Y-26076D01*
X-116853Y-25626D01*
X-116944Y-25613D01*
X-117030Y-25582D01*
X-117834Y-25456D01*
Y-11807D01*
X-116561Y-11627D01*
X-116484Y-11600D01*
X-116403Y-11592D01*
X-114754Y-11083D01*
X-114683Y-11044D01*
X-114604Y-11023D01*
X-113057Y-10260D01*
X-112993Y-10211D01*
X-112918Y-10177D01*
X-111511Y-9179D01*
X-111455Y-9120D01*
X-111387Y-9075D01*
X-111171Y-8863D01*
X-110867Y-8872D01*
X-110056Y-9170D01*
X-109869Y-9622D01*
X-109310Y-10180D01*
X-108581Y-10482D01*
X-107792D01*
X-107062Y-10180D01*
X-106910Y-10027D01*
X-96197D01*
X-95612Y-9911D01*
X-95115Y-9579D01*
X-93028Y-7492D01*
X-91919Y-7797D01*
D02*
G37*
G36*
X-116697Y10592D02*
X-115049Y10082D01*
X-113502Y9318D01*
X-112096Y8319D01*
X-110866Y7111D01*
X-109842Y5722D01*
X-109051Y4189D01*
X-108513Y2550D01*
X-108240Y847D01*
X-108241Y-878D01*
X-108514Y-2581D01*
X-109054Y-4219D01*
X-109846Y-5752D01*
X-110870Y-7140D01*
X-112101Y-8348D01*
X-113508Y-9346D01*
X-115055Y-10109D01*
X-116703Y-10617D01*
X-118411Y-10859D01*
X-119274Y-10843D01*
Y-10843D01*
X-119267Y10819D01*
X-118405Y10835D01*
X-116697Y10592D01*
D02*
G37*
G36*
X-35834Y-56D02*
Y-5073D01*
X-42144Y-11383D01*
X-42577Y-11328D01*
X-42800Y-11232D01*
X-43144Y-11001D01*
Y-6512D01*
Y-2514D01*
X-40339D01*
X-39754Y-2397D01*
X-39258Y-2066D01*
X-36834Y358D01*
X-35834Y-56D01*
D02*
G37*
G36*
X-75656Y-6821D02*
Y-8480D01*
Y-12417D01*
X-71817D01*
Y-13426D01*
X-71981Y-13536D01*
X-72946Y-14501D01*
X-73277Y-14997D01*
X-73394Y-15582D01*
Y-17130D01*
X-77361D01*
Y-20000D01*
Y-22870D01*
X-72527D01*
X-72387Y-23010D01*
Y-32525D01*
X-74948D01*
Y-40706D01*
X-66767D01*
Y-34176D01*
X-65843Y-33793D01*
X-64644Y-34992D01*
X-64669Y-35037D01*
X-64948Y-36077D01*
Y-37154D01*
X-64669Y-38194D01*
X-64131Y-39127D01*
X-63369Y-39889D01*
X-62436Y-40427D01*
X-61396Y-40706D01*
X-60319D01*
X-59279Y-40427D01*
X-58346Y-39889D01*
X-57584Y-39127D01*
X-56639Y-39489D01*
X-46267Y-49861D01*
X-45770Y-50193D01*
X-45185Y-50309D01*
X-43032D01*
X-42356Y-51049D01*
X-42244Y-52770D01*
X-42223Y-52849D01*
X-42221Y-52930D01*
X-41838Y-54612D01*
X-41805Y-54686D01*
X-41790Y-54766D01*
X-41300Y-55984D01*
X-53149Y-62824D01*
X-53654Y-62194D01*
X-53725Y-62135D01*
X-53781Y-62062D01*
X-54819Y-61158D01*
X-54899Y-61112D01*
X-54967Y-61051D01*
X-56150Y-60346D01*
X-56236Y-60315D01*
X-56314Y-60267D01*
X-57604Y-59783D01*
X-57694Y-59768D01*
X-57779Y-59735D01*
X-59134Y-59488D01*
X-59226Y-59490D01*
X-59316Y-59472D01*
X-60693Y-59470D01*
X-60783Y-59488D01*
X-60874Y-59486D01*
X-62230Y-59730D01*
X-62315Y-59763D01*
X-62406Y-59778D01*
X-63697Y-60258D01*
X-63775Y-60307D01*
X-63861Y-60337D01*
X-65046Y-61040D01*
X-65114Y-61101D01*
X-65193Y-61146D01*
X-66234Y-62048D01*
X-66290Y-62120D01*
X-66361Y-62179D01*
X-66871Y-62813D01*
X-78679Y-55995D01*
X-78192Y-54786D01*
X-78176Y-54706D01*
X-78143Y-54631D01*
X-77759Y-52949D01*
X-77757Y-52868D01*
X-77736Y-52789D01*
X-77623Y-51068D01*
X-77634Y-50987D01*
X-77626Y-50906D01*
X-77787Y-49189D01*
X-77810Y-49111D01*
X-77815Y-49029D01*
X-78245Y-47359D01*
X-78281Y-47286D01*
X-78298Y-47206D01*
X-78988Y-45625D01*
X-79034Y-45558D01*
X-79064Y-45482D01*
X-79995Y-44030D01*
X-80052Y-43971D01*
X-80093Y-43901D01*
X-81242Y-42615D01*
X-81307Y-42566D01*
X-81359Y-42503D01*
X-82697Y-41415D01*
X-82769Y-41377D01*
X-82831Y-41323D01*
X-84324Y-40460D01*
X-84401Y-40434D01*
X-84470Y-40390D01*
X-86082Y-39775D01*
X-86162Y-39761D01*
X-86237Y-39729D01*
X-86621Y-39649D01*
Y-37726D01*
X-78046Y-29151D01*
X-77711D01*
X-76982Y-28849D01*
X-76424Y-28291D01*
X-76122Y-27562D01*
Y-26772D01*
X-76424Y-26043D01*
X-76982Y-25485D01*
X-77711Y-25183D01*
X-78501D01*
X-79230Y-25485D01*
X-79788Y-26043D01*
X-80090Y-26772D01*
Y-26870D01*
X-89231Y-36011D01*
X-89563Y-36507D01*
X-89679Y-37093D01*
Y-38355D01*
X-89971Y-39279D01*
X-91685Y-39472D01*
X-91763Y-39496D01*
X-91844Y-39502D01*
X-93506Y-39963D01*
X-93579Y-40000D01*
X-93658Y-40019D01*
X-95226Y-40737D01*
X-95292Y-40785D01*
X-95368Y-40816D01*
X-96802Y-41773D01*
X-96860Y-41831D01*
X-96930Y-41874D01*
X-98195Y-43046D01*
X-98243Y-43112D01*
X-98304Y-43165D01*
X-99114Y-44198D01*
X-110983Y-37345D01*
X-110689Y-36593D01*
X-110673Y-36503D01*
X-110638Y-36418D01*
X-110375Y-35066D01*
X-110375Y-35037D01*
X-110196Y-34049D01*
X-90381D01*
X-89795Y-33933D01*
X-89299Y-33601D01*
X-78568Y-22870D01*
X-78361D01*
Y-20500D01*
X-80524D01*
X-91014Y-30991D01*
X-94942D01*
X-94985Y-30008D01*
X-94256Y-29706D01*
X-93697Y-29148D01*
X-93395Y-28419D01*
Y-27630D01*
X-93697Y-26900D01*
X-93850Y-26747D01*
Y-16561D01*
X-92989Y-15699D01*
X-92065Y-16082D01*
Y-20718D01*
X-84080D01*
Y-12734D01*
X-84258D01*
X-84641Y-11810D01*
X-81147Y-8317D01*
X-80147Y-8731D01*
Y-11849D01*
X-80424Y-12126D01*
X-80726Y-12855D01*
Y-13645D01*
X-80424Y-14374D01*
X-79866Y-14932D01*
X-79136Y-15234D01*
X-78347D01*
X-77618Y-14932D01*
X-77060Y-14374D01*
X-76758Y-13645D01*
Y-12855D01*
X-77060Y-12126D01*
X-77088Y-12097D01*
Y-6667D01*
X-76656Y-6331D01*
X-75656Y-6821D01*
D02*
G37*
G36*
X908Y-26610D02*
X2211Y-27057D01*
X3413Y-27729D01*
X4477Y-28604D01*
X5368Y-29655D01*
X6058Y-30847D01*
X6525Y-32142D01*
X6754Y-33501D01*
X6738Y-34878D01*
X6477Y-36230D01*
X5980Y-37515D01*
X5621Y-38103D01*
X-945Y-34321D01*
X-7511Y-38103D01*
X-7870Y-37515D01*
X-8367Y-36230D01*
X-8628Y-34878D01*
X-8644Y-33501D01*
X-8415Y-32142D01*
X-7948Y-30847D01*
X-7258Y-29655D01*
X-6367Y-28604D01*
X-5303Y-27729D01*
X-4101Y-27057D01*
X-2798Y-26610D01*
X-1436Y-26401D01*
X-945Y-26414D01*
X-454Y-26401D01*
X908Y-26610D01*
D02*
G37*
G36*
X-57718Y-21733D02*
X-52463Y-26989D01*
X-51966Y-27321D01*
X-51381Y-27437D01*
X-45846D01*
X-45432Y-28437D01*
X-49689Y-32694D01*
X-50319Y-32525D01*
X-51396D01*
X-52437Y-32804D01*
X-53369Y-33342D01*
X-53908Y-33881D01*
X-54055Y-33920D01*
X-54784Y-33878D01*
X-55093Y-33771D01*
X-55186Y-33633D01*
X-60823Y-27995D01*
Y-27242D01*
X-59823Y-26495D01*
X-59567Y-26570D01*
X-59264Y-27299D01*
X-58706Y-27858D01*
X-57977Y-28160D01*
X-57188D01*
X-56458Y-27858D01*
X-55900Y-27299D01*
X-55598Y-26570D01*
Y-25781D01*
X-55900Y-25051D01*
X-56458Y-24493D01*
X-57188Y-24191D01*
X-57404D01*
X-58783Y-22812D01*
X-58688Y-21966D01*
X-57757Y-21676D01*
X-57718Y-21733D01*
D02*
G37*
G36*
X-37219Y-28771D02*
Y-35977D01*
X-37372Y-36130D01*
X-37674Y-36859D01*
Y-37648D01*
X-37372Y-38378D01*
X-36814Y-38936D01*
X-36152Y-39210D01*
X-36069Y-39266D01*
X-35546Y-40238D01*
X-35648Y-40445D01*
X-37143Y-41307D01*
X-37204Y-41360D01*
X-37276Y-41399D01*
X-38615Y-42486D01*
X-38667Y-42549D01*
X-38732Y-42598D01*
X-39882Y-43883D01*
X-39923Y-43954D01*
X-39980Y-44012D01*
X-40912Y-45464D01*
X-40942Y-45540D01*
X-40988Y-45606D01*
X-41679Y-47187D01*
X-41693Y-47251D01*
X-44552D01*
X-50141Y-41661D01*
X-49817Y-40571D01*
X-49279Y-40427D01*
X-48346Y-39889D01*
X-47584Y-39127D01*
X-47046Y-38194D01*
X-46767Y-37154D01*
Y-36077D01*
X-47046Y-35037D01*
X-47287Y-34618D01*
X-43247Y-30578D01*
X-42502D01*
X-42349Y-30731D01*
X-41620Y-31033D01*
X-40830D01*
X-40101Y-30731D01*
X-39543Y-30173D01*
X-39241Y-29443D01*
Y-28654D01*
X-38382Y-28113D01*
X-37931Y-28059D01*
X-37219Y-28771D01*
D02*
G37*
G36*
X-63882Y-28628D02*
X-63766Y-29214D01*
X-63434Y-29710D01*
X-61928Y-31216D01*
X-62230Y-32298D01*
X-62848Y-32462D01*
X-66729Y-28581D01*
Y-16256D01*
X-63882D01*
Y-28628D01*
D02*
G37*
G36*
X-117186Y-26589D02*
X-115885Y-27040D01*
X-114684Y-27714D01*
X-113622Y-28592D01*
X-112733Y-29644D01*
X-112046Y-30838D01*
X-111582Y-32135D01*
X-111356Y-33493D01*
X-111375Y-34871D01*
X-111639Y-36222D01*
X-112139Y-37506D01*
X-112499Y-38093D01*
Y-38093D01*
X-119244Y-34199D01*
X-119236Y-26394D01*
X-118547Y-26377D01*
X-117186Y-26589D01*
D02*
G37*
G36*
X117362Y-26420D02*
X117362D01*
Y-34208D01*
X110599Y-38103D01*
X110240Y-37515D01*
X109743Y-36230D01*
X109482Y-34878D01*
X109466Y-33501D01*
X109695Y-32142D01*
X110162Y-30847D01*
X110852Y-29655D01*
X111743Y-28604D01*
X112807Y-27729D01*
X114009Y-27057D01*
X115312Y-26610D01*
X116674Y-26401D01*
X117362Y-26420D01*
D02*
G37*
G36*
X5621Y-38103D02*
X5621D01*
D01*
X5621D01*
D02*
G37*
G36*
X-5081Y-26437D02*
X-5800Y-26839D01*
X-5870Y-26899D01*
X-5951Y-26942D01*
X-7014Y-27817D01*
X-7073Y-27888D01*
X-7144Y-27945D01*
X-8032Y-28991D01*
X-9803D01*
X-10388Y-29107D01*
X-10884Y-29439D01*
X-14966Y-33520D01*
X-14980D01*
X-15709Y-33823D01*
X-16267Y-34381D01*
X-16526Y-35005D01*
X-12124D01*
X-10663Y-33544D01*
X-9658Y-33953D01*
X-9647Y-34890D01*
X-9629Y-34979D01*
X-9629Y-35071D01*
X-9368Y-36424D01*
X-9334Y-36508D01*
X-9318Y-36598D01*
X-9027Y-37351D01*
X-20866Y-44186D01*
X-21670Y-43159D01*
X-21732Y-43105D01*
X-21779Y-43039D01*
X-23044Y-41866D01*
X-23113Y-41824D01*
X-23171Y-41766D01*
X-24605Y-40808D01*
X-24681Y-40777D01*
X-24747Y-40729D01*
X-26314Y-40009D01*
X-26394Y-39991D01*
X-26466Y-39954D01*
X-28128Y-39492D01*
X-28209Y-39486D01*
X-28287Y-39461D01*
X-30001Y-39268D01*
X-30082Y-39274D01*
X-30163Y-39262D01*
X-31886Y-39343D01*
X-31965Y-39362D01*
X-32047Y-39363D01*
X-33735Y-39715D01*
X-33951Y-39681D01*
X-34252Y-38622D01*
X-34008Y-38378D01*
X-33705Y-37648D01*
Y-36859D01*
X-34008Y-36130D01*
X-34160Y-35977D01*
Y-28137D01*
X-34277Y-27552D01*
X-34608Y-27056D01*
X-35303Y-26361D01*
X-34920Y-25437D01*
X-5341D01*
X-5081Y-26437D01*
D02*
G37*
G36*
X-28401Y-40474D02*
X-26739Y-40936D01*
X-25172Y-41655D01*
X-23737Y-42614D01*
X-22473Y-43787D01*
X-21410Y-45145D01*
X-20992Y-45900D01*
X-39756Y-56725D01*
X-40200Y-55986D01*
X-40844Y-54386D01*
X-41227Y-52704D01*
X-41338Y-50983D01*
X-41176Y-49265D01*
X-40745Y-47595D01*
X-40054Y-46015D01*
X-39122Y-44563D01*
X-37972Y-43277D01*
X-36633Y-42190D01*
X-35139Y-41328D01*
X-33527Y-40713D01*
X-31839Y-40361D01*
X-30116Y-40281D01*
X-28401Y-40474D01*
D02*
G37*
G36*
X-88134Y-40374D02*
X-86446Y-40727D01*
X-84834Y-41343D01*
X-83341Y-42206D01*
X-82003Y-43294D01*
X-80853Y-44581D01*
X-79922Y-46033D01*
X-79233Y-47614D01*
X-78802Y-49284D01*
X-78641Y-51001D01*
X-78754Y-52723D01*
X-79137Y-54404D01*
X-79782Y-56004D01*
X-80227Y-56743D01*
Y-56743D01*
X-98984Y-45906D01*
X-98566Y-45152D01*
X-97502Y-43794D01*
X-96236Y-42621D01*
X-94802Y-41664D01*
X-93233Y-40946D01*
X-91571Y-40485D01*
X-89857Y-40293D01*
X-88134Y-40374D01*
D02*
G37*
G36*
X58793Y-60492D02*
X60148Y-60738D01*
X61438Y-61222D01*
X62621Y-61927D01*
X63660Y-62831D01*
X64521Y-63906D01*
X64850Y-64512D01*
X64850D01*
X58105Y-68406D01*
X51350Y-64496D01*
X51680Y-63891D01*
X52544Y-62818D01*
X53584Y-61917D01*
X54769Y-61214D01*
X56060Y-60733D01*
X57416Y-60490D01*
X58793Y-60492D01*
D02*
G37*
G36*
X-59317D02*
X-57962Y-60738D01*
X-56672Y-61222D01*
X-55489Y-61927D01*
X-54450Y-62831D01*
X-53589Y-63906D01*
X-53260Y-64512D01*
X-53260D01*
X-60005Y-68406D01*
X-66760Y-64496D01*
X-66430Y-63891D01*
X-65566Y-62818D01*
X-64526Y-61917D01*
X-63341Y-61214D01*
X-62050Y-60733D01*
X-60694Y-60490D01*
X-59317Y-60492D01*
D02*
G37*
%LPC*%
G36*
X-42894Y34473D02*
X-45146D01*
Y32713D01*
X-42894D01*
Y34473D01*
D02*
G37*
G36*
X-97861Y30870D02*
X-99935D01*
Y29529D01*
X-103729D01*
Y29973D01*
X-105213D01*
Y27201D01*
Y24430D01*
X-103729D01*
Y26471D01*
X-99935D01*
Y25130D01*
X-97861D01*
Y28000D01*
Y30870D01*
D02*
G37*
G36*
X-105001Y12516D02*
Y11076D01*
X-103560D01*
X-103819Y11700D01*
X-104377Y12258D01*
X-105001Y12516D01*
D02*
G37*
G36*
X73618Y44152D02*
Y40897D01*
X76872D01*
X76618Y41847D01*
X76123Y42704D01*
X75424Y43403D01*
X74568Y43897D01*
X73618Y44152D01*
D02*
G37*
G36*
X72618D02*
X71668Y43897D01*
X70812Y43403D01*
X70112Y42704D01*
X69618Y41847D01*
X69363Y40897D01*
X72618D01*
Y44152D01*
D02*
G37*
G36*
X76872Y39897D02*
X73618D01*
Y36643D01*
X74568Y36897D01*
X75424Y37392D01*
X76123Y38091D01*
X76618Y38948D01*
X76872Y39897D01*
D02*
G37*
G36*
X72618D02*
X69363D01*
X69618Y38948D01*
X70112Y38091D01*
X70812Y37392D01*
X71668Y36897D01*
X72618Y36643D01*
Y39897D01*
D02*
G37*
G36*
X57189Y44153D02*
X49677D01*
Y36641D01*
X57189D01*
Y44153D01*
D02*
G37*
G36*
X41705Y30154D02*
X40264D01*
Y28713D01*
X40888Y28972D01*
X41446Y29530D01*
X41705Y30154D01*
D02*
G37*
G36*
X39264D02*
X37824D01*
X38082Y29530D01*
X38640Y28972D01*
X39264Y28713D01*
Y30154D01*
D02*
G37*
G36*
X16686Y37592D02*
X15897D01*
X15167Y37290D01*
X14609Y36731D01*
X14307Y36002D01*
Y35213D01*
X14609Y34483D01*
X15167Y33925D01*
X15897Y33623D01*
X16686D01*
X17415Y33925D01*
X17568Y34078D01*
X27160D01*
X32014Y29224D01*
Y29008D01*
X32316Y28278D01*
X32875Y27720D01*
X33604Y27418D01*
X34393D01*
X35122Y27720D01*
X35681Y28278D01*
X35983Y29008D01*
Y29797D01*
X35681Y30526D01*
X35122Y31084D01*
X34393Y31387D01*
X34177D01*
X28875Y36689D01*
X28379Y37020D01*
X27793Y37137D01*
X17568D01*
X17415Y37290D01*
X16686Y37592D01*
D02*
G37*
G36*
X5977Y16979D02*
Y15538D01*
X7418D01*
X7160Y16162D01*
X6601Y16721D01*
X5977Y16979D01*
D02*
G37*
G36*
X7418Y14538D02*
X5977D01*
Y13098D01*
X6601Y13356D01*
X7160Y13914D01*
X7418Y14538D01*
D02*
G37*
G36*
X110807Y19081D02*
X109740D01*
X108710Y18805D01*
X107786Y18272D01*
X107032Y17518D01*
X106498Y16594D01*
X106222Y15563D01*
Y14497D01*
X106498Y13466D01*
X107032Y12543D01*
X107786Y11788D01*
X108710Y11255D01*
X109740Y10979D01*
X110807D01*
X111837Y11255D01*
X112761Y11788D01*
X113515Y12543D01*
X114048Y13466D01*
X114324Y14497D01*
Y15563D01*
X114048Y16594D01*
X113515Y17518D01*
X112761Y18272D01*
X111837Y18805D01*
X110807Y19081D01*
D02*
G37*
G36*
X-10984Y16548D02*
X-18969D01*
Y8564D01*
X-10984D01*
Y16548D01*
D02*
G37*
G36*
X-29880Y8019D02*
X-31320D01*
Y6578D01*
X-30696Y6837D01*
X-30138Y7395D01*
X-29880Y8019D01*
D02*
G37*
G36*
X54140Y6742D02*
X53516Y6484D01*
X52958Y5926D01*
X52699Y5302D01*
X54140D01*
Y6742D01*
D02*
G37*
G36*
X62289Y6623D02*
Y5183D01*
X63729D01*
X63471Y5807D01*
X62913Y6365D01*
X62289Y6623D01*
D02*
G37*
G36*
X59012Y6742D02*
Y4802D01*
X58012D01*
Y6742D01*
X57388Y6484D01*
X57229Y6325D01*
X56576Y6038D01*
X55923Y6325D01*
X55764Y6484D01*
X55140Y6742D01*
Y4802D01*
X54640D01*
Y4302D01*
X52699D01*
X52958Y3678D01*
X53331Y3305D01*
X53492Y2893D01*
X53405Y2083D01*
X53137Y1815D01*
X52878Y1192D01*
X54819D01*
Y192D01*
X52878D01*
X53137Y-433D01*
X53175Y-471D01*
X53403Y-1380D01*
X53135Y-1737D01*
X52862Y-2009D01*
X52604Y-2633D01*
X54544D01*
Y-3633D01*
X52604D01*
X52862Y-4257D01*
X53329Y-4910D01*
X52781Y-5482D01*
X52522Y-6106D01*
X54463D01*
Y-6605D01*
X54963D01*
Y-8546D01*
X55587Y-8288D01*
X55832Y-8043D01*
X56221Y-7752D01*
X57109Y-8014D01*
X57138Y-8043D01*
X57762Y-8301D01*
Y-6360D01*
X58762D01*
Y-8301D01*
X59386Y-8043D01*
X60039Y-7576D01*
X60610Y-8124D01*
X61234Y-8383D01*
Y-6442D01*
X61734D01*
Y-5942D01*
X63675D01*
X63524Y-5577D01*
X63417Y-5316D01*
X63654Y-4142D01*
X63702Y-4094D01*
X63961Y-3470D01*
X62020D01*
Y-2470D01*
X63961D01*
X63702Y-1846D01*
X63533Y-1677D01*
X63179Y-1206D01*
X63530Y-373D01*
X63789Y251D01*
X61848D01*
Y1251D01*
X63789D01*
X63530Y1875D01*
X63312Y2093D01*
X63055Y2677D01*
X63294Y3382D01*
X63471Y3559D01*
X63729Y4183D01*
X61789D01*
Y4683D01*
X61289D01*
Y6623D01*
X60665Y6365D01*
X59636Y6484D01*
X59012Y6742D01*
D02*
G37*
G36*
X110807Y9081D02*
X109740D01*
X108710Y8805D01*
X107786Y8272D01*
X107032Y7518D01*
X106498Y6594D01*
X106222Y5564D01*
Y4497D01*
X106498Y3466D01*
X107032Y2543D01*
X107786Y1788D01*
X108710Y1255D01*
X109740Y979D01*
X110807D01*
X111837Y1255D01*
X112761Y1788D01*
X113515Y2543D01*
X114048Y3466D01*
X114324Y4497D01*
Y5564D01*
X114048Y6594D01*
X113515Y7518D01*
X112761Y8272D01*
X111837Y8805D01*
X110807Y9081D01*
D02*
G37*
G36*
X63675Y-6942D02*
X62234D01*
Y-8383D01*
X62858Y-8124D01*
X63416Y-7566D01*
X63675Y-6942D01*
D02*
G37*
G36*
X53963Y-7106D02*
X52522D01*
X52781Y-7729D01*
X53339Y-8288D01*
X53963Y-8546D01*
Y-7106D01*
D02*
G37*
G36*
X110807Y-919D02*
X109740D01*
X108710Y-1195D01*
X107786Y-1728D01*
X107032Y-2482D01*
X106498Y-3406D01*
X106222Y-4436D01*
Y-5503D01*
X106498Y-6534D01*
X107032Y-7457D01*
X107786Y-8212D01*
X108710Y-8745D01*
X109740Y-9021D01*
X110807D01*
X111837Y-8745D01*
X112761Y-8212D01*
X113515Y-7457D01*
X114048Y-6534D01*
X114324Y-5503D01*
Y-4436D01*
X114048Y-3406D01*
X113515Y-2482D01*
X112761Y-1728D01*
X111837Y-1195D01*
X110807Y-919D01*
D02*
G37*
G36*
X114324Y-10919D02*
X106222D01*
Y-19021D01*
X114324D01*
Y-10919D01*
D02*
G37*
G36*
X30642Y-28074D02*
X29808D01*
X29003Y-28290D01*
X28281Y-28707D01*
X27692Y-29296D01*
X27275Y-30018D01*
X27060Y-30823D01*
Y-31657D01*
X27275Y-32462D01*
X27692Y-33184D01*
X28281Y-33773D01*
X29003Y-34190D01*
X29808Y-34405D01*
X30642D01*
X31447Y-34190D01*
X32168Y-33773D01*
X32758Y-33184D01*
X33174Y-32462D01*
X33390Y-31657D01*
Y-30823D01*
X33174Y-30018D01*
X32758Y-29296D01*
X32168Y-28707D01*
X31447Y-28290D01*
X30642Y-28074D01*
D02*
G37*
G36*
X44374Y-27090D02*
X36075D01*
Y-35390D01*
X44374D01*
Y-27090D01*
D02*
G37*
G36*
X40771Y-37090D02*
X40725D01*
Y-40740D01*
X44374D01*
Y-40694D01*
X44092Y-39638D01*
X43545Y-38692D01*
X42773Y-37919D01*
X41827Y-37373D01*
X40771Y-37090D01*
D02*
G37*
G36*
X39725D02*
X39679D01*
X38623Y-37373D01*
X37677Y-37919D01*
X36904Y-38692D01*
X36358Y-39638D01*
X36075Y-40694D01*
Y-40740D01*
X39725D01*
Y-37090D01*
D02*
G37*
G36*
X30642Y-38074D02*
X29808D01*
X29003Y-38290D01*
X28281Y-38707D01*
X27692Y-39296D01*
X27275Y-40018D01*
X27060Y-40823D01*
Y-41657D01*
X27275Y-42462D01*
X27692Y-43183D01*
X28281Y-43773D01*
X29003Y-44190D01*
X29808Y-44405D01*
X30642D01*
X31447Y-44190D01*
X32168Y-43773D01*
X32758Y-43183D01*
X33174Y-42462D01*
X33390Y-41657D01*
Y-40823D01*
X33174Y-40018D01*
X32758Y-39296D01*
X32168Y-38707D01*
X31447Y-38290D01*
X30642Y-38074D01*
D02*
G37*
G36*
X44374Y-41740D02*
X40725D01*
Y-45390D01*
X40771D01*
X41827Y-45107D01*
X42773Y-44560D01*
X43545Y-43788D01*
X44092Y-42842D01*
X44374Y-41786D01*
Y-41740D01*
D02*
G37*
G36*
X39725D02*
X36075D01*
Y-41786D01*
X36358Y-42842D01*
X36904Y-43788D01*
X37677Y-44560D01*
X38623Y-45107D01*
X39679Y-45390D01*
X39725D01*
Y-41740D01*
D02*
G37*
G36*
X-78361Y-17130D02*
X-80435D01*
Y-19500D01*
X-78361D01*
Y-17130D01*
D02*
G37*
G36*
X-12645Y-36005D02*
X-14085D01*
Y-37445D01*
X-13461Y-37187D01*
X-12903Y-36629D01*
X-12645Y-36005D01*
D02*
G37*
G36*
X-15085D02*
X-16526D01*
X-16267Y-36629D01*
X-15709Y-37187D01*
X-15085Y-37445D01*
Y-36005D01*
D02*
G37*
%LPD*%
D13*
X-13004Y28520D02*
G03*
X-11802Y29378I-1973J4036D01*
G01*
X-16949Y26592D02*
G03*
X-17582Y26215I1973J-4036D01*
G01*
X-83961Y31300D02*
X-72181D01*
X-70097Y29216D01*
X-88150Y35489D02*
X-83961Y31300D01*
X-88150Y35489D02*
Y48780D01*
X-72150Y37914D02*
X-65524Y31288D01*
X-84188Y37914D02*
X-72150D01*
X-48479Y16756D02*
X-47222Y18013D01*
X-42126D01*
X-43954Y21944D02*
X-43832Y21822D01*
X-47855Y21944D02*
X-43954D01*
X-50479Y19320D02*
X-47855Y21944D01*
X-50479Y15202D02*
Y19320D01*
X-50664Y15017D02*
X-50479Y15202D01*
X-50664Y13705D02*
Y15017D01*
Y13705D02*
X-50542Y13583D01*
X-62985Y62055D02*
X-60000Y65039D01*
X-62985Y40515D02*
Y62055D01*
Y40515D02*
X-55388Y32918D01*
Y29965D02*
Y32918D01*
X-54000Y40076D02*
Y52749D01*
Y40076D02*
X-46138Y32214D01*
X-45646D01*
X-52510Y15999D02*
X-52479Y16031D01*
Y18559D01*
X-52596Y18676D02*
X-52479Y18559D01*
X-52596Y18676D02*
Y20244D01*
X-46138Y26702D01*
X-45646D01*
X-54510Y15999D02*
Y16828D01*
X-54479Y16859D02*
Y17730D01*
X-54510Y16828D02*
X-54479Y16859D01*
X-55203Y18455D02*
X-54479Y17730D01*
X-56510Y15999D02*
Y16934D01*
X-60124Y20547D02*
X-56510Y16934D01*
X-55203Y18455D02*
Y22473D01*
X-50664Y27013D01*
Y29965D01*
X-60124Y29953D02*
X-60112Y29965D01*
X-60124Y20547D02*
Y29953D01*
X58110Y56472D02*
Y65039D01*
X39764Y38126D02*
X58110Y56472D01*
X39764Y30654D02*
Y38126D01*
X-661Y20991D02*
Y30520D01*
X-10660D02*
X-661D01*
X-11802Y29378D02*
X-10660Y30520D01*
X-16949Y26592D02*
X-13004Y28520D01*
X-28156Y18686D02*
X-17582Y26215D01*
X-28984Y18686D02*
X-28156Y18686D01*
X-28984Y17858D02*
Y18686D01*
X-661Y20991D02*
X5292Y15038D01*
X-9803Y-30520D02*
X-661D01*
X-14585Y-35303D02*
X-9803Y-30520D01*
X-60000Y58749D02*
X-54000Y52749D01*
X-60000Y58749D02*
Y65039D01*
X-116326Y32520D02*
X-111032D01*
X-116888Y31958D02*
X-116326Y32520D01*
X-111032D02*
X-106985Y28473D01*
X-116888Y30607D02*
Y31958D01*
X-117029Y30466D02*
X-116888Y30607D01*
X-117029Y18170D02*
Y30466D01*
X-105229Y28000D02*
X-97361D01*
X-105713Y27516D02*
X-105229Y28000D01*
X-105713Y27201D02*
Y27989D01*
X-106198Y28473D02*
X-105713Y27989D01*
X-106985Y28473D02*
X-106198D01*
X-31820Y8519D02*
X-28984Y17858D01*
X-78935Y-21370D02*
X-77861Y-20295D01*
X-109307Y10448D02*
X-105629D01*
X-117029Y18170D02*
X-109307Y10448D01*
X-105629D02*
X-105501Y10576D01*
X-77861Y-20295D02*
Y-20000D01*
X-79231Y-21370D02*
X-78935D01*
X-90381Y-32520D02*
X-79231Y-21370D01*
X-116326Y-32520D02*
X-90381D01*
X-44138Y10949D02*
X-35816Y19270D01*
Y36776D01*
X-31850Y17963D02*
Y48780D01*
X-40955Y8858D02*
X-31850Y17963D01*
X-34304Y-5706D02*
Y11816D01*
X-45817Y8858D02*
X-40955D01*
X-37365Y6964D02*
X-37035Y7294D01*
X-37365Y1990D02*
Y6964D01*
X-40339Y-984D02*
X-37365Y1990D01*
X-45817Y-984D02*
X-40339D01*
X-41154Y-12556D02*
X-34304Y-5706D01*
X-76167Y8827D02*
X-75399D01*
X-87228Y-2234D02*
X-76167Y8827D01*
X-89933Y-2234D02*
X-87228D01*
X-96197Y-8498D02*
X-89933Y-2234D01*
X-108186Y-8498D02*
X-96197D01*
X-80609Y7905D02*
X-77687Y10827D01*
X-72983D01*
X-108434Y7905D02*
X-80609D01*
X-116339Y0D02*
X-108434Y7905D01*
X-112820Y21184D02*
X-109781Y18146D01*
X-105713D01*
X-50542Y-15999D02*
X-50447Y-16094D01*
Y-17198D02*
Y-16094D01*
X-54572Y-17626D02*
Y-16031D01*
X-52447Y-18027D02*
Y-16922D01*
X-52542Y-16828D02*
X-52447Y-16922D01*
X-52542Y-16828D02*
Y-15999D01*
X-54447Y-19047D02*
Y-17751D01*
X-54572Y-17626D02*
X-54447Y-17751D01*
X-52447Y-18027D02*
X-48566Y-21908D01*
X-54447Y-19047D02*
X-49587Y-23908D01*
X-50447Y-17198D02*
X-48226Y-19420D01*
X-39605D01*
X-48566Y-21908D02*
X-28862D01*
X-56572Y-16124D02*
Y-16081D01*
X-56637Y-16189D02*
X-56572Y-16124D01*
X-56637Y-20652D02*
Y-16189D01*
Y-20652D02*
X-51381Y-25908D01*
X-49587Y-23908D02*
X12699D01*
X-37919Y-25908D02*
X-35690Y-28137D01*
X-51381Y-25908D02*
X-37919D01*
X-50858Y-36026D02*
X-43881Y-29048D01*
X-41225D01*
X12699Y-23908D02*
X24731Y-35939D01*
X-39605Y-19420D02*
X-28058Y-7872D01*
X-35690Y-37254D02*
Y-28137D01*
X-60353Y-23405D02*
Y-15999D01*
Y-23405D02*
X-57582Y-26175D01*
X21791Y8477D02*
X33457Y20143D01*
X21791Y1124D02*
Y8477D01*
X10310Y-10356D02*
X21791Y1124D01*
X-20184Y-10356D02*
X10310D01*
X-24589Y-14762D02*
X-20184Y-10356D01*
X-24589Y-17635D02*
Y-14762D01*
X-28862Y-21908D02*
X-24589Y-17635D01*
X-45087Y-17069D02*
X-40083D01*
X-48573Y-13583D02*
X-45087Y-17069D01*
X-40083D02*
X-22385Y630D01*
X-28058Y-7872D02*
X9281D01*
X-22385Y630D02*
X9281D01*
X-76655Y-953D02*
X-75399D01*
X-81906Y-6205D02*
X-76655Y-953D01*
X-81906Y-6913D02*
Y-6205D01*
X-87158Y-12165D02*
X-81906Y-6913D01*
X-68258Y-29215D02*
Y-15999D01*
Y-29215D02*
X-60858Y-36615D01*
X-91616Y-12165D02*
X-87158D01*
X-95380Y-15928D02*
X-91616Y-12165D01*
X-95380Y-28024D02*
Y-15928D01*
X-78618Y-5744D02*
X-75826Y-2953D01*
X-72983D01*
X-78618Y-13002D02*
Y-5744D01*
X-88150Y-37093D02*
X-77988Y-26930D01*
X-88150Y-48780D02*
Y-37093D01*
X-71865Y-15582D02*
X-70900Y-14617D01*
X-71865Y-18925D02*
Y-15582D01*
X-72939Y-20000D02*
X-71865Y-18925D01*
X-50858Y-36615D02*
Y-36026D01*
X-45185Y-48780D02*
X-31850D01*
X-56267Y-37698D02*
X-45185Y-48780D01*
X-56267Y-37698D02*
Y-34714D01*
X-62353Y-28628D02*
X-56267Y-34714D01*
X-62353Y-28628D02*
Y-13583D01*
X-52388Y14122D02*
Y15139D01*
X-52510Y14000D02*
X-52388Y14122D01*
X-52510Y13583D02*
Y14000D01*
X27793Y35607D02*
X33999Y29402D01*
X16291Y35607D02*
X27793D01*
X-59985Y17569D02*
X-58510Y16094D01*
Y16032D02*
Y16094D01*
X-72939Y-20295D02*
X-70858Y-22377D01*
Y-36615D02*
Y-22377D01*
X-105713Y18146D02*
X-100010D01*
X-98731Y19425D01*
X-98337D01*
X-97656Y20106D01*
Y20500D01*
X-92144D02*
X-91994Y20350D01*
X-85900D01*
X-86250Y28000D02*
X-85900Y27650D01*
X-92439Y28000D02*
X-86250D01*
X-85900Y20350D02*
X-77400D01*
X-85900Y27650D02*
X-77400D01*
X-73391D01*
X-72805Y27064D01*
Y26572D02*
Y27064D01*
Y26572D02*
X-71451Y25219D01*
X-70959D01*
X-60842Y17569D02*
X-59985D01*
X-62411Y19139D02*
X-60842Y17569D01*
X-62411Y19139D02*
Y22163D01*
X-65467Y25219D02*
X-62411Y22163D01*
X-65959Y25219D02*
X-65467D01*
X-65078Y16756D02*
X-64199Y15877D01*
Y14570D02*
Y15877D01*
X-65374Y16756D02*
X-65078D01*
X-70959Y25219D02*
X-65959D01*
X-70959Y19707D02*
X-65959D01*
X-76757D02*
X-70959D01*
X-77400Y20350D02*
X-76757Y19707D01*
X-65959Y17342D02*
X-65374Y16756D01*
X-65959Y17342D02*
Y19707D01*
D29*
X114449Y32520D02*
D03*
X-116326Y-32520D02*
D03*
X-116339Y0D02*
D03*
D30*
X-661Y30520D02*
D03*
X114449Y-32520D02*
D03*
X-661Y-30520D02*
D03*
X-116326Y32520D02*
D03*
X-31850Y-48780D02*
D03*
X-88150Y48780D02*
D03*
D31*
X58110Y65039D02*
D03*
Y-65039D02*
D03*
X-60000Y65039D02*
D03*
Y-65039D02*
D03*
X-88150Y-48780D02*
D03*
X-31850Y48780D02*
D03*
D40*
X-88073Y-16726D02*
D03*
X-14976Y12556D02*
D03*
D41*
X-88073Y-6726D02*
D03*
Y3274D02*
D03*
X-58492Y50888D02*
D03*
X-68492D02*
D03*
X-14976Y32556D02*
D03*
Y22556D02*
D03*
D47*
X-48492Y50888D02*
D03*
D48*
X-50858Y-36615D02*
D03*
X-60858D02*
D03*
D49*
X-70858D02*
D03*
D55*
X110273Y-4970D02*
D03*
Y5030D02*
D03*
X110273Y15030D02*
D03*
X-30038Y-16647D02*
D03*
X-10038D02*
D03*
X-20038D02*
D03*
D56*
X110273Y-14970D02*
D03*
D57*
X-38Y-16647D02*
D03*
D58*
X73118Y40397D02*
D03*
D59*
X53433D02*
D03*
D60*
X40225Y-41240D02*
D03*
D61*
Y-31240D02*
D03*
D62*
X54463Y-6605D02*
D03*
X58262Y-6360D02*
D03*
X61734Y-6442D02*
D03*
X62020Y-2970D02*
D03*
X58303Y-3256D02*
D03*
X54544Y-3133D02*
D03*
X54819Y691D02*
D03*
X58393Y632D02*
D03*
X61848Y751D02*
D03*
X61789Y4683D02*
D03*
X58512Y4802D02*
D03*
X54640D02*
D03*
X-70211Y29297D02*
D03*
X-65695Y31237D02*
D03*
X-43996Y21931D02*
D03*
X-42263Y18076D02*
D03*
X-84108Y37908D02*
D03*
X39764Y30654D02*
D03*
X5477Y15038D02*
D03*
X-28984Y18686D02*
D03*
X-14585Y-35505D02*
D03*
X-31820Y8519D02*
D03*
X-105501Y10576D02*
D03*
X-35816Y36776D02*
D03*
X-37065Y7324D02*
D03*
X-40951Y-13028D02*
D03*
X-108186Y-8498D02*
D03*
X-112882Y21246D02*
D03*
X-41225Y-29048D02*
D03*
X24731Y-35939D02*
D03*
X-57582Y-26175D02*
D03*
X33457Y20143D02*
D03*
X9281Y630D02*
D03*
Y-7872D02*
D03*
X-95380Y-28024D02*
D03*
X-78106Y-27167D02*
D03*
X-78742Y-13250D02*
D03*
X-35690Y-37254D02*
D03*
X16291Y35607D02*
D03*
X33999Y29402D02*
D03*
D63*
X-60112Y29965D02*
D03*
X-50664D02*
D03*
X-55388D02*
D03*
D64*
X-45646Y32214D02*
D03*
Y26702D02*
D03*
X-70959Y19707D02*
D03*
X-65959D02*
D03*
Y25219D02*
D03*
X-70959D02*
D03*
D65*
X-97361Y28000D02*
D03*
X-77861Y-20000D02*
D03*
X-72939D02*
D03*
X-92439Y28000D02*
D03*
D66*
X-105713Y27201D02*
D03*
Y18146D02*
D03*
D67*
X-59400Y0D02*
D03*
D68*
X-56447Y13583D02*
D03*
X-54479D02*
D03*
X-70227Y-13583D02*
D03*
X-52510Y13583D02*
D03*
X-68258Y-13583D02*
D03*
X-50542D02*
D03*
X-54479D02*
D03*
X-52510D02*
D03*
X-60384Y13583D02*
D03*
X-62353D02*
D03*
X-64321D02*
D03*
X-58416D02*
D03*
X-70227D02*
D03*
X-68258D02*
D03*
X-66290D02*
D03*
X-50542D02*
D03*
X-48573D02*
D03*
Y-13583D02*
D03*
X-56447D02*
D03*
X-58416D02*
D03*
X-60384D02*
D03*
X-62353D02*
D03*
X-64321D02*
D03*
X-66290D02*
D03*
D69*
X-45817Y-984D02*
D03*
X-72983Y-10827D02*
D03*
X-45817Y10827D02*
D03*
Y8858D02*
D03*
Y6890D02*
D03*
Y4921D02*
D03*
Y2953D02*
D03*
Y984D02*
D03*
Y-2953D02*
D03*
Y-4921D02*
D03*
Y-6890D02*
D03*
Y-8858D02*
D03*
Y-10827D02*
D03*
X-72983Y-8858D02*
D03*
Y-6890D02*
D03*
Y-4921D02*
D03*
Y-2953D02*
D03*
Y-984D02*
D03*
Y984D02*
D03*
Y2953D02*
D03*
Y4921D02*
D03*
Y6890D02*
D03*
Y8858D02*
D03*
Y10827D02*
D03*
D70*
X-92144Y20500D02*
D03*
X-97656D02*
D03*
D71*
X-77400Y27650D02*
D03*
Y20350D02*
D03*
X-85900D02*
D03*
Y27650D02*
D03*
M02*
